<svg xmlns="http://www.w3.org/2000/svg" xmlns:xlink="http://www.w3.org/1999/xlink" viewBox="0 0 651.54 432.35"><defs><style>.cls-1,.cls-12,.cls-15,.cls-2,.cls-7{fill:none;}.cls-2{stroke:#007dea;stroke-miterlimit:10;}.cls-3{fill:#ff00b0;}.cls-10,.cls-11,.cls-12,.cls-3,.cls-7,.cls-9{stroke:#0082fa;}.cls-10,.cls-11,.cls-12,.cls-15,.cls-3,.cls-7,.cls-9{stroke-linecap:round;stroke-linejoin:round;}.cls-10,.cls-11,.cls-15,.cls-3,.cls-7{stroke-width:0.75px;}.cls-4{fill:#0082fa;}.cls-10,.cls-5,.cls-9{fill:#d1efff;}.cls-11,.cls-6{fill:#fff;}.cls-8{fill:#e2f5ff;}.cls-12,.cls-9{stroke-width:0.5px;}.cls-13{fill:#0070da;}.cls-14{clip-path:url(#clip-path);}.cls-15{stroke:#fff;}.cls-16{clip-path:url(#clip-path-2);}.cls-17{clip-path:url(#clip-path-3);}</style><clipPath id="clip-path"><path class="cls-1" d="M603.57,233.82c2.29,3,3.62,9.66,2.68,14.74a13.89,13.89,0,0,1-1,2.67,13.9,13.9,0,0,0-1.54,6.35,13,13,0,0,0,1.26,6.28,14,14,0,0,1,.85,2.63,12.59,12.59,0,0,1-2.77,9.93,18.17,18.17,0,0,0-1.69,2.33,14.46,14.46,0,0,0-1.5,3.5,13.75,13.75,0,0,0-.71,3.69,16.17,16.17,0,0,0,.1,2.74c0,.43.07.87.09,1.33a9.31,9.31,0,0,1-.1,1.45,13.33,13.33,0,0,1-.38,1.7c-.1.3-.2.63-.34,1s-.32.68-.52,1.05a11.41,11.41,0,0,1-2.34,3.25,17.64,17.64,0,0,1-2.34,1.81,18.66,18.66,0,0,0-2.43,1.65,13.56,13.56,0,0,0-1.27,1.19,16.79,16.79,0,0,0-1.44,1.59c-.51.63-.88,1.23-1.25,1.74a11.18,11.18,0,0,0-.87,1.46,13.55,13.55,0,0,0-.57,1.35c-.08.22-.15.43-.22.65l-.24.62a13.44,13.44,0,0,1-4,5.56c-7.31,6.64-14.94,12-23.38,11-6-6.07-6.37-15.38-5.57-25.22a13.51,13.51,0,0,1,2-6.55l.35-.56.38-.57a13.89,13.89,0,0,0,.72-1.28,11.84,11.84,0,0,0,.62-1.58c.18-.61.44-1.27.62-2a16.52,16.52,0,0,0,.38-2.12,14.21,14.21,0,0,0,.17-1.73,20.82,20.82,0,0,0-.17-2.93,16.12,16.12,0,0,1,0-2.95,11.48,11.48,0,0,1,1.15-3.85c.17-.38.34-.72.52-1.05s.37-.59.56-.86a10.54,10.54,0,0,1,1.11-1.34,8.56,8.56,0,0,1,1.08-1c.38-.27.75-.5,1.12-.74a16.59,16.59,0,0,0,2.22-1.6,13.1,13.1,0,0,0,2.49-2.81A14.78,14.78,0,0,0,569.3,263a18.12,18.12,0,0,0,.82-2.76,12.53,12.53,0,0,1,6.18-8.26,13.42,13.42,0,0,1,2.6-.93,13,13,0,0,0,5.74-2.83,13.85,13.85,0,0,0,4.09-5.1,13.25,13.25,0,0,1,1.53-2.39C593.72,236.85,599.83,233.81,603.57,233.82Z"/></clipPath><clipPath id="clip-path-2"><path class="cls-1" d="M491.2,231.16c3.72.28,9.58,3.78,12.74,7.88a15,15,0,0,1,1.34,2.5,13.76,13.76,0,0,0,3.67,5.4,13.06,13.06,0,0,0,5.51,3.27,14.36,14.36,0,0,1,2.52,1.13,12.53,12.53,0,0,1,5.52,8.72,17.18,17.18,0,0,0,.6,2.8,14.48,14.48,0,0,0,1.6,3.47,13.21,13.21,0,0,0,2.26,3,17.11,17.11,0,0,0,2.09,1.77c.35.26.71.52,1.06.82a9.25,9.25,0,0,1,1,1,12,12,0,0,1,1,1.42c.16.27.33.57.49.9s.29.7.44,1.09a11.48,11.48,0,0,1,.84,3.92,16.68,16.68,0,0,1-.22,2.94,20.6,20.6,0,0,0-.41,2.91c0,.53,0,1.1,0,1.74a16.36,16.36,0,0,0,.22,2.14c.12.8.32,1.47.45,2.09a11.67,11.67,0,0,0,.5,1.63,12.46,12.46,0,0,0,.62,1.32l.33.6.31.59a13.5,13.5,0,0,1,1.46,6.69c0,9.87-1.1,19.12-7.51,24.71-8.49.35-15.68-5.57-22.45-12.76a13.51,13.51,0,0,1-3.54-5.86l-.19-.63c-.05-.22-.11-.45-.17-.67a12.53,12.53,0,0,0-.46-1.39,12.73,12.73,0,0,0-.76-1.53c-.33-.53-.65-1.16-1.11-1.82a17.79,17.79,0,0,0-1.31-1.7,17.28,17.28,0,0,0-1.18-1.29,19.31,19.31,0,0,0-2.29-1.83,17.65,17.65,0,0,1-2.19-2,11.44,11.44,0,0,1-2.09-3.43c-.16-.38-.3-.74-.43-1.09s-.19-.68-.26-1A11,11,0,0,1,491,289a8.71,8.71,0,0,1,0-1.45c.05-.46.13-.9.2-1.33a18.34,18.34,0,0,0,.31-2.72,13.37,13.37,0,0,0-.43-3.73,14.39,14.39,0,0,0-1.22-3.61,17.91,17.91,0,0,0-1.5-2.45,11.62,11.62,0,0,1-2.28-6.31,11.35,11.35,0,0,1,.29-3.81,13.13,13.13,0,0,1,1.05-2.56,13,13,0,0,0,1.75-6.16,14,14,0,0,0-1.05-6.45,12.91,12.91,0,0,1-.75-2.73C486.84,240.5,488.68,233.93,491.2,231.16Z"/></clipPath><clipPath id="clip-path-3"><path class="cls-1" d="M543.58,223.33c3.61,1.76,8.06,7.59,9.57,12.93a14.62,14.62,0,0,1,.35,3,14.84,14.84,0,0,0,1.51,6.84,14,14,0,0,0,4.2,5.46,15,15,0,0,1,2.07,2.12,12.79,12.79,0,0,1,1.8,3.69,12.51,12.51,0,0,1,.23,7.21,19.1,19.1,0,0,0-.52,3,15.86,15.86,0,0,0,.22,4.09,14.21,14.21,0,0,0,1.06,3.89,18.44,18.44,0,0,0,1.39,2.59c.24.4.49.81.72,1.24a9.14,9.14,0,0,1,.59,1.45,11.17,11.17,0,0,1,.44,1.81c0,.34.1.71.13,1.1s0,.81,0,1.26a12.46,12.46,0,0,1-.71,4.25,18.33,18.33,0,0,1-1.4,2.84,22.68,22.68,0,0,0-1.56,2.74,18,18,0,0,0-.66,1.75,19.6,19.6,0,0,0-.63,2.22c-.2.84-.27,1.6-.38,2.26a12.38,12.38,0,0,0-.15,1.83,15.45,15.45,0,0,0,.09,1.57c0,.24.06.49.1.73l.06.71a14.45,14.45,0,0,1-1.2,7.25c-3.89,9.86-8.7,18.63-17.32,21.66-8.61-3-13.43-11.8-17.32-21.66a14.53,14.53,0,0,1-1.19-7.25l.06-.71c0-.24.06-.49.1-.73a13.08,13.08,0,0,0,.08-1.57,12.28,12.28,0,0,0-.14-1.83c-.12-.66-.18-1.42-.38-2.26a17.64,17.64,0,0,0-.64-2.22,15.81,15.81,0,0,0-.65-1.75,22.68,22.68,0,0,0-1.56-2.74,18.33,18.33,0,0,1-1.4-2.84,12.22,12.22,0,0,1-.71-4.25c0-.45,0-.87,0-1.26s.08-.76.13-1.1a11.17,11.17,0,0,1,.44-1.81,9.14,9.14,0,0,1,.59-1.45c.23-.43.47-.84.72-1.24a19.53,19.53,0,0,0,1.39-2.59,14.57,14.57,0,0,0,1.06-3.89,15.86,15.86,0,0,0,.22-4.09,19.1,19.1,0,0,0-.52-3,12.51,12.51,0,0,1,.23-7.21,12.79,12.79,0,0,1,1.8-3.69,13.94,13.94,0,0,1,2.07-2.12,14,14,0,0,0,4.2-5.46,14.84,14.84,0,0,0,1.51-6.84,14.57,14.57,0,0,1,.34-3C535.52,230.92,540,225.09,543.58,223.33Z"/></clipPath></defs><g id="Layer_2" data-name="Layer 2"><g id="Layer_1-2" data-name="Layer 1"><path class="cls-2" d="M651.25,328.06,305.47,84.82a51.6,51.6,0,0,0-55.87-2.27L.25,229.24"/><path class="cls-3" d="M309.39,354.33a5.1,5.1,0,0,0,.08-.67,1.85,1.85,0,0,1,0-.23v-.3a7.72,7.72,0,0,0-.35-2.19c-.05-.16-.21-.6-.28-.76a9.41,9.41,0,0,0-.53-1.05,8.49,8.49,0,0,0-1.2-1.58,7.72,7.72,0,0,0-1.33-1.11,6.62,6.62,0,0,0-3.1-1.09,6,6,0,0,0-1.62.11,5.73,5.73,0,0,0-1.71.65l-8.62,5a3.63,3.63,0,0,0-1.48,3.37,11.16,11.16,0,0,0,5.16,8.72,3.55,3.55,0,0,0,3.53.31l8.62-5c.26-.17.47-.3.66-.45s.37-.32.6-.54a5.44,5.44,0,0,0,.82-1.11c0-.06.08-.14.13-.23s.08-.17.13-.26a.36.36,0,0,1,0-.09,1.42,1.42,0,0,1,.08-.18l.1-.27,0-.1a1.83,1.83,0,0,0,.08-.25s0-.07,0-.1l0-.08C309.33,354.67,309.36,354.51,309.39,354.33Z"/><path class="cls-4" d="M171.72,424a6.68,6.68,0,0,1,3.51,6.62c-3.34.68-6.33,1.26-7.17,1.35-2.15.25-2.73-1.27-1.41-2.72.75-.82,2.77-2.91,5.06-5.26Z"/><path class="cls-5" d="M186.49,417.53l2.68,6.94-2.72,3.82s-6,1.27-11.22,2.3a6.68,6.68,0,0,0-3.51-6.62h0c4.21-4.31,9.37-9.55,9.37-9.55Z"/><polygon class="cls-6" points="293.99 355.3 293.99 355.31 186.49 417.53 181.08 414.41 288.68 352.15 293.99 355.3"/><polygon class="cls-6" points="293.99 355.31 296.67 362.24 296.65 362.26 189.17 424.47 186.49 417.53 293.99 355.31"/><polygon class="cls-5" points="296.65 362.26 302.69 358.76 299.97 362.58 293.98 366.06 293.96 366.04 296.65 362.26"/><polygon class="cls-5" points="300.01 351.82 293.99 355.31 293.99 355.3 288.68 352.15 294.6 348.7 300.01 351.82"/><polygon class="cls-5" points="302.69 358.76 296.65 362.26 296.67 362.24 293.99 355.31 300.01 351.82 302.69 358.76"/><polygon class="cls-5" points="293.98 366.06 186.45 428.29 189.17 424.47 296.65 362.26 293.96 366.04 293.98 366.06"/><polyline class="cls-7" points="302.69 358.76 299.97 362.58 293.98 366.06 186.45 428.29"/><polyline class="cls-7" points="300.01 351.82 302.69 358.76 296.65 362.26 189.17 424.47"/><polyline class="cls-7" points="181.08 414.41 288.68 352.15 294.6 348.7 300.01 351.82 293.99 355.31 186.49 417.53"/><path class="cls-7" d="M181.08,414.41s-5.16,5.24-9.37,9.55c-2.29,2.35-4.31,4.44-5.06,5.26-1.32,1.45-.74,3,1.41,2.72.84-.09,3.83-.67,7.17-1.35,5.2-1,11.22-2.3,11.22-2.3l2.72-3.82-2.68-6.94Z"/><path class="cls-7" d="M171.72,424a6.68,6.68,0,0,1,3.51,6.62v0"/><polyline class="cls-7" points="288.68 352.15 293.99 355.3 293.99 355.31 296.67 362.24 296.65 362.26 293.96 366.04"/><path class="cls-8" d="M538.67,113.87,343.59,1.24A6,6,0,0,0,340,.4l-7.51.7a6.08,6.08,0,0,1,3.61.83L531.16,114.56c3.84,2.22,5.74,8,4.24,12.91L484.06,296.66c-1,3.39-3.41,5.49-6,5.74l7.51-.7c2.63-.25,5-2.34,6-5.74l51.35-169.18C544.4,121.86,542.51,116.08,538.67,113.87Z"/><path class="cls-6" d="M531.16,114.56,336.09,1.93c-3.83-2.21-8.15,0-9.65,4.9L275.1,176c-1.49,4.92.41,10.7,4.24,12.91L474.42,301.56c3.83,2.21,8.15,0,9.64-4.9L535.4,127.47C536.9,122.55,535,116.78,531.16,114.56Z"/><path class="cls-7" d="M531.16,114.56,336.09,1.93c-3.83-2.21-8.15,0-9.65,4.9L275.1,176c-1.49,4.92.41,10.7,4.24,12.91L474.42,301.56c3.83,2.21,8.15,0,9.64-4.9L535.4,127.47C536.9,122.55,535,116.78,531.16,114.56Z"/><path class="cls-9" d="M505.36,201.73l-3.46-2c-1.9-1.1-4.06,0-4.8,2.44l-1.35,4.43c-.74,2.46.21,5.33,2.11,6.44l3.46,2c1.91,1.1,4.06,0,4.8-2.44l1.35-4.43C508.21,205.71,507.27,202.83,505.36,201.73Z"/><polygon class="cls-4" points="336.39 8.17 282.77 184.86 467.54 291.54 521.16 114.85 336.39 8.17"/><path class="cls-7" d="M478,302.4l7.51-.7c2.63-.25,5-2.34,6-5.74l51.35-169.18c1.49-4.92-.4-10.7-4.24-12.91L343.59,1.24A6,6,0,0,0,340,.4l-7.51.7"/><path class="cls-6" d="M397,75,345.87,45.46c-1.36-.78-2.9,0-3.43,1.74l-29.77,97.67a4.06,4.06,0,0,0,1.5,4.58L365.31,179c1.36.78,2.89,0,3.42-1.74L398.5,79.57A4.1,4.1,0,0,0,397,75Z"/><path class="cls-10" d="M383.14,82,352,64c-1.36-.79-2.9,0-3.43,1.74L343,84a4.07,4.07,0,0,0,1.5,4.58l31.17,18c1.36.78,2.89,0,3.42-1.74l5.57-18.25A4.08,4.08,0,0,0,383.14,82Z"/><path class="cls-6" d="M465.12,225l-39.56-22.84c-1.36-.79-2.89,0-3.43,1.74l-3.53,11.58a4.08,4.08,0,0,0,1.5,4.58l39.57,22.84c1.36.79,2.89,0,3.42-1.73l3.53-11.58A4.09,4.09,0,0,0,465.12,225Z"/><polygon class="cls-6" points="456.48 144.93 398.06 111.21 397.54 112.92 455.96 146.65 456.48 144.93"/><polygon class="cls-6" points="387.69 145.22 476.67 196.59 477.19 194.89 388.21 143.52 387.69 145.22"/><polygon class="cls-6" points="406.32 142.52 480.16 185.15 480.68 183.44 406.84 140.81 406.32 142.52"/><polygon class="cls-6" points="399.14 107.65 488.12 159.02 488.64 157.32 399.66 105.95 399.14 107.65"/><polygon class="cls-6" points="384.2 156.67 473.18 208.04 473.7 206.33 384.72 154.96 384.2 156.67"/><polygon class="cls-6" points="385.95 150.95 474.93 202.32 475.44 200.61 386.47 149.24 385.95 150.95"/><polygon class="cls-6" points="389.44 139.5 478.41 190.87 478.93 189.16 389.96 137.79 389.44 139.5"/><polygon class="cls-6" points="401.27 100.68 400.75 102.39 489.73 153.77 490.25 152.05 401.27 100.68"/><path class="cls-6" d="M420.05,93.53l-1.49,4.9a2.56,2.56,0,0,1-1.22-.33c-.77-.44-.68-1-.25-2.4l1-3.3L417,91.78l-1,3.29c-.68,2.22-.67,3.33.74,4.14a2.65,2.65,0,0,0,1.49.24l-.12.39,1.06.61,1.92-6.31Z"/><path class="cls-6" d="M425.2,96.33a4.25,4.25,0,0,0-1.95-.07l.23-.76-1.07-.61-1.92,6.31,1.07.62,1.34-4.41a7.11,7.11,0,0,1,1.88.29Z"/><path class="cls-6" d="M441.77,106.25a2.73,2.73,0,0,0-1.39-3.53,6.91,6.91,0,0,0-2-.75l-.27,1.16a10.59,10.59,0,0,1,1.66.69,1.47,1.47,0,0,1,.84,2c-.27.88-1,1.28-2.12,1.88l-2.25,1.2-.37,1.2,4.18,2.42.37-1.23-2.93-1.69,1.92-.93A3.5,3.5,0,0,0,441.77,106.25Z"/><path class="cls-6" d="M447.62,108.52l.38-1.24L444.11,105l-1.53,4.34.63.58a3.3,3.3,0,0,1,1.47.45,1.53,1.53,0,0,1,.68,2c-.3,1-.92,1.3-1.68.86a16.71,16.71,0,0,1-1.9-1.4l-.45,1a11.66,11.66,0,0,0,2.1,1.72c1.4.81,2.53.24,3.1-1.66a2.86,2.86,0,0,0-1.33-3.7,3.14,3.14,0,0,0-1.43-.37l.83-2.1Z"/><path class="cls-6" d="M409.5,86a12.56,12.56,0,0,1,1.68,1.21l.38-1.12a10.42,10.42,0,0,0-1.83-1.43c-2-1.16-2.94-.1-3.89,3S405,92.4,407,93.58a9.59,9.59,0,0,0,2,.83l.33-1.17a12.85,12.85,0,0,1-1.77-.8c-1.33-.77-1.32-1.75-.59-4.12S408.26,85.27,409.5,86Z"/><path class="cls-6" d="M413.86,89.78c-1.65-1-2.57,0-3.19,2s-.51,3.62,1.18,4.6,2.57,0,3.21-2.07S415.5,90.73,413.86,89.78Zm.11,3.9c-.44,1.46-.85,2.06-1.77,1.53s-.9-1.35-.45-2.81.88-2,1.75-1.45S414.42,92.21,414,93.68Z"/><path class="cls-6" d="M432.53,100.56c-1.36-.78-2.46-.18-3.16,2.13s-.42,3.56,1.06,4.42a10.8,10.8,0,0,0,2.07.85l.3-1c-.05,0-1.07-.48-1.85-.94s-.95-1.14-.66-2.16l3.06,1.76.36-.94C434.32,102.68,433.91,101.36,432.53,100.56Zm.15,3.4-2.07-1.2c.38-1.2.84-1.48,1.57-1.06S433.07,102.7,432.68,104Z"/><path class="cls-6" d="M427.3,99c.59.34,1.63,1.17,1.69,1.21l.37-1.13a13.55,13.55,0,0,0-1.77-1.36c-1-.56-2-.53-2.43.9s0,2,1.06,2.81,1,1,.9,1.45-.5.58-1.21.17c-.5-.29-1.56-1.12-1.62-1.17L423.9,103a13.19,13.19,0,0,0,1.74,1.34c1.22.7,2.11.59,2.56-.88.39-1.27.07-1.89-1-2.84-.89-.77-1.07-1-.94-1.42S426.71,98.66,427.3,99Z"/><path class="cls-4" d="M358.43,81.52,357.36,85a1.77,1.77,0,0,1-.87-.24c-.55-.31-.48-.7-.18-1.71l.72-2.36-.77-.44-.71,2.35c-.49,1.59-.48,2.38.52,3a2,2,0,0,0,1.07.17l-.09.28.76.44L359.19,82Z"/><path class="cls-4" d="M362.1,83.52a3.27,3.27,0,0,0-1.39,0l.16-.54-.75-.44L358.74,87l.77.44,1-3.15a5,5,0,0,1,1.33.21Z"/><path class="cls-4" d="M373.94,90.61a1.94,1.94,0,0,0-1-2.52,5,5,0,0,0-1.45-.54l-.2.83a6.42,6.42,0,0,1,1.19.49,1.05,1.05,0,0,1,.6,1.4c-.19.63-.68.91-1.52,1.35l-1.6.85-.26.86,3,1.72.27-.87L370.86,93l1.37-.66C373.21,91.87,373.67,91.51,373.94,90.61Z"/><path class="cls-4" d="M378.12,92.23l.27-.89-2.78-1.6-1.09,3.09.45.42a2.3,2.3,0,0,1,1,.32,1.11,1.11,0,0,1,.49,1.46c-.22.71-.66.93-1.2.61a12,12,0,0,1-1.37-1l-.31.71a7.93,7.93,0,0,0,1.5,1.23c1,.58,1.8.17,2.22-1.19a2.05,2.05,0,0,0-1-2.64,2.13,2.13,0,0,0-1-.26L376,91Z"/><path class="cls-4" d="M350.89,76.13a9.41,9.41,0,0,1,1.2.87l.27-.8a7.18,7.18,0,0,0-1.3-1c-1.44-.83-2.1-.08-2.78,2.15s-.64,3.38.83,4.23a6.85,6.85,0,0,0,1.44.59l.23-.84a8.63,8.63,0,0,1-1.27-.57c-.95-.55-.94-1.24-.42-2.94S350,75.62,350.89,76.13Z"/><path class="cls-4" d="M354,78.84c-1.17-.67-1.83,0-2.28,1.43s-.36,2.59.85,3.28,1.83,0,2.29-1.47S355.17,79.52,354,78.84Zm.08,2.79c-.31,1-.61,1.47-1.26,1.09s-.64-1-.32-2,.63-1.39,1.25-1S354.4,80.58,354.08,81.63Z"/><path class="cls-4" d="M367.34,86.54c-1-.56-1.75-.12-2.25,1.52s-.3,2.55.75,3.16a7.53,7.53,0,0,0,1.48.61l.22-.74s-.77-.34-1.33-.67-.68-.81-.47-1.54l2.19,1.26.26-.68C368.62,88.05,368.33,87.11,367.34,86.54Zm.11,2.43L366,88.12c.27-.87.6-1.06,1.12-.76S367.72,88.07,367.45,89Z"/><path class="cls-4" d="M363.61,85.43a13.66,13.66,0,0,1,1.2.86l.27-.8a9,9,0,0,0-1.26-1c-.7-.4-1.43-.38-1.75.64s0,1.4.76,2,.75.71.65,1-.36.41-.87.12-1.11-.8-1.15-.83l-.28.8a9.4,9.4,0,0,0,1.24.95c.87.51,1.51.43,1.83-.63.27-.91.05-1.35-.74-2-.63-.55-.76-.72-.67-1S363.18,85.19,363.61,85.43Z"/><path class="cls-4" d="M425.15,214.4l.57-1.87.88.51.32-1-.88-.5.39-1.27-.95-.55-.39,1.27-.42-.25-.32,1.05.42.24-.58,1.89c-.4,1.32-.28,1.89.58,2.39a4.85,4.85,0,0,0,.77.28l.26-1s-.35-.18-.55-.3S425,214.86,425.15,214.4Z"/><polygon class="cls-4" points="434.27 216.24 433.2 215.62 431.97 216.94 431.58 216.81 432.69 213.17 431.74 212.63 429.79 219.02 430.74 219.57 431.26 217.87 431.67 218.02 431.86 220.22 432.93 220.83 432.69 217.86 434.27 216.24"/><path class="cls-4" d="M436.21,217.23c-1-.6-1.82-.08-2.32,1.55s-.25,2.6.83,3.22a6.5,6.5,0,0,0,1.55.6l.26-.92s-.75-.34-1.34-.68a.91.91,0,0,1-.48-1.21l2.1,1.21.33-.81C437.56,218.81,437.26,217.83,436.21,217.23Zm0,2.33-1.23-.71c.22-.69.47-.88.92-.62S436.45,218.82,436.22,219.56Z"/><path class="cls-4" d="M444.62,222.08c-1.24-.71-1.93,0-2.36,1.44s-.34,2.64.9,3.36,1.95-.06,2.37-1.47S445.86,222.8,444.62,222.08Zm-.05,2.78c-.27.88-.56,1.28-1.09,1s-.53-.87-.26-1.75.56-1.26,1.09-1S444.84,224,444.57,224.86Z"/><path class="cls-4" d="M429.25,217.25l.58-1.9a1.69,1.69,0,0,0-.82-2.28,5.33,5.33,0,0,0-1.53-.57l-.23.86s.89.43,1.36.7a.53.53,0,0,1,.27.74l-.09.28-.78-.36c-.8-.39-1.36-.36-1.67.67a1.64,1.64,0,0,0,.64,2.14,2.33,2.33,0,0,0,1.14.29,2,2,0,0,0,.92.9l.32-.91C429.18,217.66,429.18,217.53,429.25,217.25Zm-1-.34a2.78,2.78,0,0,1-.75-.26c-.25-.15-.28-.42-.18-.74s.29-.4.55-.28l.67.3Z"/><path class="cls-4" d="M454.47,229.07c.42.24,1.22.86,1.26.89l.33-1a10.53,10.53,0,0,0-1.32-1c-.75-.44-1.5-.37-1.82.69a1.7,1.7,0,0,0,.74,2.09c.61.51.66.65.6.85s-.23.29-.68,0a12.61,12.61,0,0,1-1.21-.87l-.34,1a9.49,9.49,0,0,0,1.3,1c.89.51,1.56.41,1.89-.66a1.69,1.69,0,0,0-.69-2.07c-.61-.54-.73-.66-.66-.87S454.06,228.83,454.47,229.07Z"/><path class="cls-4" d="M458.31,230c-1-.61-1.82-.08-2.32,1.55s-.25,2.6.82,3.22a6.44,6.44,0,0,0,1.56.59l.26-.91s-.76-.34-1.34-.68a.91.91,0,0,1-.48-1.21l2.1,1.21.32-.81C459.66,231.56,459.36,230.59,458.31,230Zm0,2.33-1.23-.71c.22-.69.46-.88.92-.62S458.55,231.58,458.32,232.32Z"/><path class="cls-4" d="M440.1,222.24c.28-.91.51-1.18,1.2-.78.26.15.78.53.81.55l.33-1a8.64,8.64,0,0,0-1.09-.86c-1.06-.61-1.72-.13-2.21,1.49s-.33,2.68.73,3.29a7.42,7.42,0,0,0,1.23.48l.26-1s-.58-.25-.85-.4C439.83,223.66,439.79,223.26,440.1,222.24Z"/><path class="cls-4" d="M453,226.91a3.42,3.42,0,0,0-1.32-.06l.15-.48-.95-.55-1.39,4.57.95.55.94-3.06a7.22,7.22,0,0,1,1.24.26Z"/><path class="cls-4" d="M449,224.76l-1,3.41a1.76,1.76,0,0,1-.73-.22c-.48-.27-.4-.65-.15-1.47l.74-2.4-1-.55-.73,2.38c-.47,1.55-.48,2.42.56,3a1.79,1.79,0,0,0,1,.14l-.08.26.95.55,1.4-4.57Z"/><polygon class="cls-6" points="317.28 152.91 314.76 161.08 318.85 160.25 321.29 164.85 323.81 156.68 317.28 152.91"/><path class="cls-11" d="M478.59,314,263.88,190.44c-5.1-2.94-13.35-2.94-18.43,0L174,232c-5.08,2.95-5.05,7.72.06,10.67l214.7,123.6c5.1,2.94,13.35,2.95,18.42,0l71.43-41.51C483.71,321.77,483.69,317,478.59,314Z"/><path class="cls-5" d="M377.88,337.73l-6.63-3.83a5.7,5.7,0,0,0-5.15,0l-6,3.49c-1.41.82-1.41,2.17,0,3l6.63,3.83a5.72,5.72,0,0,0,5.16,0l6-3.5C379.31,339.89,379.3,338.54,377.88,337.73Z"/><path class="cls-5" d="M387.59,340.71l6.48,3.74a5.7,5.7,0,0,0,5.15,0l6-3.51c1.42-.83,1.4-2.17,0-3l-6.48-3.74a5.7,5.7,0,0,0-5.15,0l-6.05,3.52C386.15,338.55,386.17,339.89,387.59,340.71Z"/><path class="cls-5" d="M391.8,345.76,385.33,342a5.67,5.67,0,0,0-5.15,0l-6,3.5c-1.4.82-1.4,2.16,0,3l6.48,3.74a5.72,5.72,0,0,0,5.16,0l6-3.5C393.24,347.93,393.23,346.59,391.8,345.76Z"/><path class="cls-5" d="M360.83,325.26l19.31,11.15a5.72,5.72,0,0,0,5.16,0l6.05-3.51c1.41-.82,1.39-2.17,0-3L372,318.76a5.69,5.69,0,0,0-5.16,0l-6.05,3.51C359.39,323.09,359.4,324.43,360.83,325.26Z"/><path class="cls-5" d="M347.55,317.59l5.84,3.37a5.68,5.68,0,0,0,5.14,0l6.05-3.51c1.42-.83,1.4-2.17,0-3l-5.83-3.36a5.67,5.67,0,0,0-5.15,0l-6.05,3.52C346.11,315.43,346.13,316.77,347.55,317.59Z"/><path class="cls-5" d="M363.79,296.12l5.84,3.37a5.73,5.73,0,0,0,5.15,0l6.56-3.81c1.4-.81,1.4-2.16,0-3l-5.84-3.37a5.7,5.7,0,0,0-5.15,0l-6.55,3.81C362.36,294,362.37,295.29,363.79,296.12Z"/><path class="cls-5" d="M394.87,303.49c1.41-.82,1.4-2.16,0-3L388.77,297a5.72,5.72,0,0,0-5.16,0l-6.55,3.81c-1.42.82-1.41,2.16,0,3l6.08,3.51a5.72,5.72,0,0,0,5.16,0Z"/><path class="cls-5" d="M361,262.85l5.1,2.94a5.72,5.72,0,0,0,5.16,0l.95-.55c1.42-.83,1.41-2.17,0-3l-5.1-2.95a5.72,5.72,0,0,0-5.16,0l-1,.56C359.54,260.68,359.54,262,361,262.85Z"/><path class="cls-5" d="M373.52,270.09l6.59,3.81a5.69,5.69,0,0,0,5.16,0l1-.55c1.42-.82,1.41-2.16,0-3l-6.59-3.81a5.72,5.72,0,0,0-5.16,0l-1,.55C372.09,267.92,372.1,269.27,373.52,270.09Z"/><path class="cls-5" d="M377.73,275.28l-6.59-3.8a5.72,5.72,0,0,0-5.16,0l-5.84,3.4c-1.41.82-1.4,2.17,0,3l6.6,3.81a5.68,5.68,0,0,0,5.14,0l5.85-3.39C379.16,277.45,379.15,276.1,377.73,275.28Z"/><path class="cls-5" d="M337.61,252.12l-5.84-3.37a5.7,5.7,0,0,0-5.15,0l-5.84,3.39c-1.41.82-1.41,2.17,0,3l5.83,3.37a5.7,5.7,0,0,0,5.15,0l5.84-3.4C339,254.28,339,252.94,337.61,252.12Z"/><path class="cls-5" d="M351.14,259.93l-6.09-3.51a5.7,5.7,0,0,0-5.15,0l-5.85,3.4c-1.41.82-1.39,2.16,0,3l6.09,3.52a5.72,5.72,0,0,0,5.16,0l5.84-3.39C352.57,262.1,352.56,260.75,351.14,259.93Z"/><path class="cls-5" d="M273.62,230.51l-5.83-3.37a5.72,5.72,0,0,0-5.16,0L256.08,231c-1.41.82-1.41,2.17,0,3l5.83,3.37a5.69,5.69,0,0,0,5.16,0l6.55-3.81C275.05,232.68,275,231.33,273.62,230.51Z"/><path class="cls-5" d="M283.31,220.77l-5.83-3.37a5.72,5.72,0,0,0-5.16,0l-5.84,3.4c-1.41.82-1.4,2.16,0,3l5.84,3.37a5.7,5.7,0,0,0,5.15,0l5.85-3.39C284.75,222.94,284.73,221.59,283.31,220.77Z"/><path class="cls-5" d="M279.86,216l5.83,3.37a5.74,5.74,0,0,0,5.17,0l.95-.56c1.41-.82,1.4-2.17,0-3L286,212.48a5.66,5.66,0,0,0-5.16,0l-1,.55C278.43,213.85,278.44,215.2,279.86,216Z"/><path class="cls-5" d="M293.14,223.68l6.08,3.52a5.74,5.74,0,0,0,5.17,0l.95-.55c1.41-.83,1.41-2.17,0-3l-6.09-3.52a5.7,5.7,0,0,0-5.15,0l-.95.56C291.71,221.52,291.72,222.86,293.14,223.68Z"/><path class="cls-5" d="M334.16,247.37l5.83,3.36a5.7,5.7,0,0,0,5.15,0l1-.55c1.41-.83,1.41-2.17,0-3l-5.83-3.37a5.74,5.74,0,0,0-5.17,0l-.95.56C332.72,245.2,332.73,246.54,334.16,247.37Z"/><path class="cls-5" d="M306.67,231.5l6,3.46a5.72,5.72,0,0,0,5.16,0l.95-.55c1.42-.83,1.4-2.17,0-3l-6-3.46a5.69,5.69,0,0,0-5.16,0l-.95.56C305.24,229.33,305.25,230.67,306.67,231.5Z"/><path class="cls-5" d="M296.84,228.58l-6.09-3.51a5.68,5.68,0,0,0-5.14,0l-5.85,3.39c-1.41.83-1.4,2.17,0,3l6.09,3.51a5.7,5.7,0,0,0,5.15,0l5.85-3.39C298.27,230.75,298.27,229.4,296.84,228.58Z"/><path class="cls-5" d="M310.29,236.34l-6-3.46a5.7,5.7,0,0,0-5.15,0l-5.85,3.4c-1.41.82-1.4,2.16,0,3l6,3.46a5.72,5.72,0,0,0,5.16,0l5.84-3.4C311.72,238.51,311.71,237.16,310.29,236.34Z"/><path class="cls-5" d="M320.12,239.26l6.59,3.81a5.72,5.72,0,0,0,5.16,0l.95-.56c1.42-.82,1.41-2.17,0-3l-6.59-3.8a5.72,5.72,0,0,0-5.16,0l-1,.55C318.69,237.09,318.69,238.44,320.12,239.26Z"/><path class="cls-5" d="M324.33,244.45l-6.59-3.8a5.69,5.69,0,0,0-5.16,0l-5.84,3.4c-1.41.82-1.4,2.16,0,3l6.59,3.81a5.7,5.7,0,0,0,5.15,0l5.85-3.39C325.76,246.62,325.75,245.27,324.33,244.45Z"/><path class="cls-5" d="M233.56,233.23c-1.42.82-1.41,2.16,0,3l6.58,3.8a5.74,5.74,0,0,0,5.17,0l5.78-3.37c1.42-.82,1.41-2.16,0-3l-6.59-3.81a5.72,5.72,0,0,0-5.16,0Z"/><path class="cls-5" d="M264.4,244.33c1.41-.83,1.4-2.17,0-3L258.55,238a5.72,5.72,0,0,0-5.16,0l-5.79,3.36c-1.41.83-1.41,2.17,0,3l5.84,3.37a5.72,5.72,0,0,0,5.16,0Z"/><path class="cls-5" d="M287.15,238.33l-6.09-3.52a5.68,5.68,0,0,0-5.14,0l-6.56,3.81c-1.41.82-1.4,2.16,0,3l6.09,3.52a5.72,5.72,0,0,0,5.16,0l6.56-3.81C288.58,240.49,288.57,239.14,287.15,238.33Z"/><path class="cls-5" d="M300.6,246.09l-6-3.46a5.67,5.67,0,0,0-5.15,0l-6.56,3.81c-1.41.82-1.4,2.17,0,3l6,3.46a5.7,5.7,0,0,0,5.15,0l6.55-3.81C302,248.25,302,246.91,300.6,246.09Z"/><path class="cls-5" d="M314.63,254.19,308,250.38a5.7,5.7,0,0,0-5.15,0l-6.55,3.81c-1.42.82-1.41,2.17,0,3l6.59,3.81a5.77,5.77,0,0,0,5.17,0l6.55-3.81C316.07,256.36,316.05,255,314.63,254.19Z"/><path class="cls-5" d="M274.43,259.8l6,3.46a5.69,5.69,0,0,0,5.16,0l5.79-3.36c1.42-.82,1.4-2.17,0-3l-6-3.47a5.72,5.72,0,0,0-5.16,0l-5.79,3.37C273,257.63,273,259,274.43,259.8Z"/><path class="cls-5" d="M327.91,261.86l-5.83-3.37a5.7,5.7,0,0,0-5.15,0l-6.55,3.81c-1.42.82-1.41,2.16,0,3l5.83,3.36a5.72,5.72,0,0,0,5.16,0l6.55-3.81C329.34,264,329.33,262.68,327.91,261.86Z"/><path class="cls-5" d="M287.87,267.56l6.59,3.81a5.72,5.72,0,0,0,5.16,0l5.79-3.37c1.42-.82,1.41-2.16,0-3l-6.59-3.8a5.72,5.72,0,0,0-5.16,0l-5.79,3.36C286.44,265.4,286.45,266.74,287.87,267.56Z"/><path class="cls-5" d="M266.66,270.89l6,3.46a5.7,5.7,0,0,0,5.15,0l6.05-3.52c1.42-.82,1.4-2.16,0-3l-6-3.46a5.73,5.73,0,0,0-5.15,0l-6,3.52C265.23,268.73,265.24,270.07,266.66,270.89Z"/><path class="cls-5" d="M241.74,272.05l6,3.46a5.72,5.72,0,0,0,5.16,0l6-3.49c1.41-.82,1.4-2.17,0-3l-6-3.47a5.7,5.7,0,0,0-5.15,0l-6,3.5C240.31,269.88,240.31,271.22,241.74,272.05Z"/><path class="cls-5" d="M341.44,269.67l-6.08-3.51a5.73,5.73,0,0,0-5.15,0L323.65,270c-1.41.82-1.4,2.17,0,3l6.08,3.51a5.66,5.66,0,0,0,5.16,0l6.55-3.81C342.87,271.84,342.86,270.49,341.44,269.67Z"/><path class="cls-5" d="M301.91,275.67l5.83,3.37a5.72,5.72,0,0,0,5.16,0l5.79-3.36c1.41-.82,1.41-2.17,0-3l-5.84-3.37a5.72,5.72,0,0,0-5.16,0l-5.79,3.37C300.48,273.5,300.48,274.85,301.91,275.67Z"/><path class="cls-5" d="M280.11,278.65l6.59,3.81a5.7,5.7,0,0,0,5.15,0l6-3.51c1.41-.83,1.4-2.17,0-3l-6.59-3.8a5.64,5.64,0,0,0-5.15,0l-6.05,3.51C278.68,276.49,278.68,277.83,280.11,278.65Z"/><path class="cls-5" d="M354,276.92,348.89,274a5.7,5.7,0,0,0-5.15,0l-6.55,3.81c-1.42.82-1.41,2.16,0,3l5.11,2.95a5.7,5.7,0,0,0,5.15,0L354,279.9C355.42,279.08,355.41,277.74,354,276.92Z"/><path class="cls-5" d="M315.19,283.34l6.08,3.51a5.72,5.72,0,0,0,5.16,0l5.79-3.37c1.42-.82,1.41-2.16,0-3L326.13,277a5.74,5.74,0,0,0-5.17,0l-5.78,3.37C313.76,281.17,313.77,282.51,315.19,283.34Z"/><path class="cls-5" d="M294.15,286.76l5.83,3.37a5.7,5.7,0,0,0,5.15,0l6.05-3.51c1.42-.83,1.4-2.17,0-3l-5.83-3.37a5.7,5.7,0,0,0-5.15,0l-6.05,3.52C292.71,284.6,292.73,285.94,294.15,286.76Z"/><path class="cls-5" d="M368,285l-6.58-3.8a5.72,5.72,0,0,0-5.16,0l-6.55,3.8c-1.42.83-1.41,2.17,0,3l6.58,3.81a5.74,5.74,0,0,0,5.17,0l6.55-3.81C369.47,287.19,369.46,285.85,368,285Z"/><path class="cls-5" d="M328.72,291.15l5.1,2.94a5.66,5.66,0,0,0,5.16,0l5.79-3.36c1.42-.82,1.41-2.17,0-3l-5.09-2.95a5.74,5.74,0,0,0-5.17,0l-5.79,3.37C327.29,289,327.3,290.33,328.72,291.15Z"/><path class="cls-5" d="M307.43,294.43l6.09,3.51a5.68,5.68,0,0,0,5.14,0l6-3.51c1.42-.82,1.4-2.17,0-3l-6.09-3.52a5.7,5.7,0,0,0-5.15,0l-6,3.52C306,292.27,306,293.61,307.43,294.43Z"/><path class="cls-5" d="M341.27,298.39l6.6,3.81a5.7,5.7,0,0,0,5.15,0l5.79-3.37c1.42-.82,1.41-2.16,0-3L352.21,292a5.74,5.74,0,0,0-5.17,0l-5.78,3.36C339.84,296.23,339.85,297.57,341.27,298.39Z"/><path class="cls-5" d="M321,302.24l5.1,2.95a5.68,5.68,0,0,0,5.14,0l6.05-3.52c1.42-.82,1.4-2.16,0-3l-5.1-2.94a5.67,5.67,0,0,0-5.15,0l-6.05,3.52C319.53,300.08,319.53,301.41,321,302.24Z"/><path class="cls-5" d="M355.31,306.5l5.83,3.37a5.72,5.72,0,0,0,5.16,0l5.79-3.37c1.42-.82,1.4-2.17,0-3l-5.84-3.36a5.67,5.67,0,0,0-5.15,0l-5.79,3.36C353.88,304.34,353.88,305.67,355.31,306.5Z"/><path class="cls-5" d="M333.51,309.48l6.59,3.81a5.72,5.72,0,0,0,5.16,0l6.05-3.52c1.41-.82,1.4-2.16,0-3L344.69,303a5.67,5.67,0,0,0-5.15,0l-6.05,3.51C332.08,307.33,332.09,308.66,333.51,309.48Z"/><path class="cls-5" d="M337.84,314.61l-71.51-41.29a5.7,5.7,0,0,0-5.15,0l-6,3.5c-1.41.82-1.41,2.17,0,3l71.51,41.29a5.72,5.72,0,0,0,5.16,0l6-3.5C339.27,316.77,339.27,315.43,337.84,314.61Z"/><path class="cls-5" d="M351.12,322.28l-5.83-3.37a5.64,5.64,0,0,0-5.15,0l-6,3.49c-1.41.82-1.41,2.17,0,3l5.84,3.37a5.73,5.73,0,0,0,5.15,0l6-3.5C352.55,324.44,352.54,323.1,351.12,322.28Z"/><path class="cls-5" d="M363.8,329.59l-5.23-3a5.72,5.72,0,0,0-5.16,0l-6,3.5c-1.41.82-1.41,2.16,0,3l5.23,3a5.72,5.72,0,0,0,5.16,0l6-3.5C365.23,331.76,365.22,330.42,363.8,329.59Z"/><path class="cls-5" d="M228.21,264.24l6.08,3.51a5.72,5.72,0,0,0,5.16,0l6-3.5c1.41-.82,1.4-2.17,0-3l-6.08-3.51a5.7,5.7,0,0,0-5.15,0l-6,3.5C226.78,262.07,226.78,263.41,228.21,264.24Z"/><path class="cls-5" d="M214.92,256.57l5.83,3.36a5.72,5.72,0,0,0,5.16,0l6-3.5c1.41-.82,1.4-2.16,0-3l-5.83-3.37a5.7,5.7,0,0,0-5.15,0l-6,3.5C213.5,254.4,213.5,255.74,214.92,256.57Z"/><path class="cls-5" d="M218.63,245.78,212,242a5.73,5.73,0,0,0-5.15,0l-6,3.5c-1.41.82-1.41,2.17,0,3l6.6,3.81a5.72,5.72,0,0,0,5.16,0l6-3.5C220.06,248,220.06,246.6,218.63,245.78Z"/><path class="cls-5" d="M433.12,338.76l-7.23-4.18a5.7,5.7,0,0,0-5.15,0L415,338c-1.42.82-1.42,2.16,0,3l7.23,4.17a5.66,5.66,0,0,0,5.16,0l5.79-3.36C434.56,340.92,434.55,339.58,433.12,338.76Z"/><path class="cls-5" d="M419.93,346.43l-7.23-4.18a5.7,5.7,0,0,0-5.15,0l-6.05,3.52c-1.41.82-1.41,2.16,0,3l7.23,4.17a5.67,5.67,0,0,0,5.15,0l6.05-3.52C421.36,348.59,421.35,347.25,419.93,346.43Z"/><path class="cls-5" d="M264.37,266.59l6.05-3.51c1.41-.82,1.4-2.16,0-3l-6.08-3.51a5.7,5.7,0,0,0-5.15,0l-6.05,3.51c-1.42.83-1.4,2.17,0,3l6.08,3.51A5.69,5.69,0,0,0,264.37,266.59Z"/><path class="cls-5" d="M265.82,207.91l6.59,3.81a5.72,5.72,0,0,0,5.16,0l1-.56c1.41-.82,1.4-2.16,0-3l-6.59-3.8a5.72,5.72,0,0,0-5.16,0l-.95.55C264.39,205.75,264.4,207.09,265.82,207.91Z"/><path class="cls-5" d="M251.24,199.49l7.13,4.12a5.68,5.68,0,0,0,5.17,0l.95-.55c1.41-.82,1.41-2.17,0-3L257.33,196a5.7,5.7,0,0,0-5.15,0l-1,.56C249.81,197.33,249.82,198.67,251.24,199.49Z"/><path class="cls-5" d="M237.88,207.26l7.14,4.12a5.7,5.7,0,0,0,5.15,0L256,208c1.4-.81,1.4-2.16,0-3l-7.14-4.12a5.68,5.68,0,0,0-5.14,0l-5.85,3.39C236.45,205.09,236.46,206.43,237.88,207.26Z"/><path class="cls-5" d="M270,213.1l-6.59-3.8a5.67,5.67,0,0,0-5.15,0l-5.85,3.4c-1.41.82-1.4,2.16,0,3l6.59,3.8a5.72,5.72,0,0,0,5.16,0l5.84-3.39C271.46,215.27,271.45,213.93,270,213.1Z"/><path class="cls-5" d="M223.92,215.36l10.69,6.17a5.66,5.66,0,0,0,5.16,0l6.55-3.81c1.41-.82,1.41-2.16,0-3l-10.69-6.17a5.68,5.68,0,0,0-5.14,0l-6.56,3.81C222.5,213.2,222.51,214.54,223.92,215.36Z"/><path class="cls-5" d="M248.6,219l-6.56,3.8c-1.41.83-1.4,2.17,0,3l6.59,3.81a5.72,5.72,0,0,0,5.16,0l6.55-3.81c1.41-.82,1.4-2.16,0-3l-6.59-3.8A5.7,5.7,0,0,0,248.6,219Z"/><path class="cls-5" d="M210.73,223l15.39,8.89a5.74,5.74,0,0,0,5.17,0l5.79-3.37c1.41-.82,1.4-2.17,0-3l-15.39-8.88a5.72,5.72,0,0,0-5.16,0L210.72,220C209.31,220.87,209.32,222.21,210.73,223Z"/><path class="cls-5" d="M198.59,244.16l6-3.5c1.41-.82,1.41-2.16,0-3L195,232.16a5.7,5.7,0,0,0-5.15,0l-6,3.49c-1.41.82-1.41,2.17,0,3l9.57,5.52A5.67,5.67,0,0,0,198.59,244.16Z"/><path class="cls-5" d="M197.29,230.84,218.37,243a5.7,5.7,0,0,0,5.15,0l6-3.52c1.41-.82,1.4-2.16,0-3l-21.08-12.17a5.7,5.7,0,0,0-5.15,0l-6,3.52C195.86,228.68,195.87,230,197.29,230.84Z"/><path class="cls-5" d="M225.79,244.33c-1.41.82-1.4,2.16,0,3l6.6,3.81a5.67,5.67,0,0,0,5.15,0l6.05-3.52c1.42-.82,1.4-2.16,0-3l-6.6-3.81a5.7,5.7,0,0,0-5.15,0Z"/><path class="cls-5" d="M251,248.92a5.69,5.69,0,0,0-5.16,0l-6,3.51c-1.41.82-1.4,2.16,0,3l5.83,3.37a5.7,5.7,0,0,0,5.15,0l6-3.51c1.41-.83,1.4-2.16,0-3Z"/><path class="cls-5" d="M425.86,329l6.55-3.81c1.41-.82,1.4-2.16,0-3l-16.32-9.42a5.69,5.69,0,0,0-5.16,0l-6.55,3.81c-1.42.82-1.41,2.16,0,3L420.7,329A5.72,5.72,0,0,0,425.86,329Z"/><path class="cls-5" d="M390.61,311.6l6.32,3.65a5.72,5.72,0,0,0,5.16,0l6.55-3.81c1.41-.82,1.4-2.16,0-3l-6.32-3.65a5.72,5.72,0,0,0-5.16,0l-6.55,3.81C389.17,309.43,389.18,310.77,390.61,311.6Z"/><path class="cls-5" d="M412.67,336.64l5.79-3.37c1.42-.82,1.41-2.16,0-3l-25.39-14.66a5.7,5.7,0,0,0-5.15,0L382.11,319c-1.41.83-1.41,2.17,0,3l25.39,14.66A5.72,5.72,0,0,0,412.67,336.64Z"/><path class="cls-5" d="M368.59,314.17l6.08,3.51a5.72,5.72,0,0,0,5.16,0l5.79-3.37c1.42-.82,1.41-2.16,0-3l-6.08-3.52a5.74,5.74,0,0,0-5.17,0l-5.78,3.37C367.16,312,367.17,313.34,368.59,314.17Z"/><path class="cls-5" d="M260.9,252,267,255.5a5.72,5.72,0,0,0,5.16,0l5.79-3.36c1.41-.83,1.41-2.17,0-3l-6.08-3.51a5.66,5.66,0,0,0-5.16,0L260.88,249C259.46,249.82,259.47,251.17,260.9,252Z"/><path class="cls-5" d="M460.31,323l-7.23-4.17a5.67,5.67,0,0,0-5.15,0l-5.85,3.39c-1.4.82-1.4,2.16,0,3l7.23,4.18a5.72,5.72,0,0,0,5.16,0l5.84-3.39C461.74,325.12,461.73,323.78,460.31,323Z"/><path class="cls-5" d="M447.07,330.65l-7.23-4.17a5.7,5.7,0,0,0-5.15,0l-6.55,3.81c-1.42.82-1.42,2.16,0,3l7.23,4.18a5.72,5.72,0,0,0,5.16,0l6.55-3.81C448.5,332.82,448.49,331.48,447.07,330.65Z"/><path class="cls-5" d="M363.69,267.17l-5.1-2.94a5.72,5.72,0,0,0-5.16,0l-5.84,3.39c-1.41.82-1.4,2.17,0,3l5.1,2.94a5.69,5.69,0,0,0,5.16,0l5.84-3.4C365.12,269.34,365.11,268,363.69,267.17Z"/><path class="cls-5" d="M468.79,318l-7.23-4.17a5.72,5.72,0,0,0-5.16,0l-.95.55c-1.42.83-1.41,2.17,0,3l7.23,4.17a5.66,5.66,0,0,0,5.16,0l1-.55C470.22,320.2,470.21,318.85,468.79,318Z"/><path class="cls-5" d="M428.14,301.63l6.6,3.8a5.7,5.7,0,0,0,5.15,0l.95-.55c1.42-.83,1.41-2.17,0-3l-6.59-3.81a5.72,5.72,0,0,0-5.16,0l-1,.56C426.71,299.46,426.72,300.8,428.14,301.63Z"/><path class="cls-5" d="M442.18,309.74,448,313.1a5.72,5.72,0,0,0,5.16,0l1-.56c1.41-.82,1.4-2.16,0-3l-5.83-3.37a5.72,5.72,0,0,0-5.16,0l-.95.56C440.75,307.57,440.76,308.91,442.18,309.74Z"/><path class="cls-5" d="M439.81,320.87l5.84-3.4c1.41-.82,1.4-2.16,0-3L425.76,303a5.72,5.72,0,0,0-5.16,0l-5.84,3.4c-1.41.81-1.4,2.16,0,3l19.87,11.47A5.75,5.75,0,0,0,439.81,320.87Z"/><path class="cls-5" d="M414.37,293.68l6.33,3.65a5.7,5.7,0,0,0,5.15,0l.95-.56c1.42-.82,1.41-2.16,0-3l-6.33-3.66a5.72,5.72,0,0,0-5.16,0l-1,.56C412.94,291.51,412.94,292.85,414.37,293.68Z"/><path class="cls-5" d="M400.84,285.87l6.08,3.51a5.72,5.72,0,0,0,5.16,0l1-.56c1.41-.82,1.4-2.16,0-3l-6.08-3.51a5.72,5.72,0,0,0-5.16,0l-1,.56C399.41,283.7,399.41,285,400.84,285.87Z"/><path class="cls-5" d="M387.56,278.2l5.83,3.36a5.66,5.66,0,0,0,5.16,0l1-.55c1.41-.82,1.4-2.17,0-3l-5.84-3.37a5.67,5.67,0,0,0-5.15,0l-.95.55C386.13,276,386.14,277.38,387.56,278.2Z"/><path class="cls-5" d="M391,283l-5.84-3.37a5.68,5.68,0,0,0-5.14,0l-5.85,3.4c-1.41.82-1.4,2.16,0,3l5.83,3.37a5.72,5.72,0,0,0,5.16,0l5.84-3.4C392.44,285.12,392.43,283.77,391,283Z"/><path class="cls-5" d="M404.54,290.76l-6.08-3.51a5.75,5.75,0,0,0-5.16,0l-5.84,3.4c-1.41.82-1.4,2.17,0,3l6.08,3.51a5.72,5.72,0,0,0,5.16,0l5.84-3.39C406,292.93,406,291.58,404.54,290.76Z"/><path class="cls-5" d="M412.49,305.09l5.84-3.39c1.41-.82,1.4-2.17,0-3L412,295.06a5.72,5.72,0,0,0-5.16,0L401,298.45c-1.41.82-1.4,2.17,0,3l6.33,3.65A5.7,5.7,0,0,0,412.49,305.09Z"/><path class="cls-5" d="M347.43,255l6.09,3.51a5.66,5.66,0,0,0,5.16,0l1-.55c1.41-.82,1.4-2.17,0-3l-6.09-3.51a5.72,5.72,0,0,0-5.16,0l-.95.55C346,252.86,346,254.21,347.43,255Z"/><path class="cls-5" d="M406.48,354.24l-7.23-4.18a5.71,5.71,0,0,0-5.14,0l-6,3.5c-1.41.82-1.42,2.17,0,3l7.23,4.17a5.69,5.69,0,0,0,5.16,0l6-3.5C407.92,356.4,407.91,355.06,406.48,354.24Z"/><path class="cls-12" d="M377.88,337.73l-6.63-3.83a5.7,5.7,0,0,0-5.15,0l-6,3.49c-1.41.82-1.41,2.17,0,3l6.63,3.83a5.72,5.72,0,0,0,5.16,0l6-3.5C379.31,339.89,379.3,338.54,377.88,337.73Z"/><path class="cls-12" d="M387.59,340.71l6.48,3.74a5.7,5.7,0,0,0,5.15,0l6-3.51c1.42-.83,1.4-2.17,0-3l-6.48-3.74a5.7,5.7,0,0,0-5.15,0l-6.05,3.52C386.15,338.55,386.17,339.89,387.59,340.71Z"/><path class="cls-12" d="M391.8,345.76,385.33,342a5.67,5.67,0,0,0-5.15,0l-6,3.5c-1.4.82-1.4,2.16,0,3l6.48,3.74a5.72,5.72,0,0,0,5.16,0l6-3.5C393.24,347.93,393.23,346.59,391.8,345.76Z"/><path class="cls-12" d="M360.83,325.26l19.31,11.15a5.72,5.72,0,0,0,5.16,0l6.05-3.51c1.41-.82,1.39-2.17,0-3L372,318.76a5.69,5.69,0,0,0-5.16,0l-6.05,3.51C359.39,323.09,359.4,324.43,360.83,325.26Z"/><path class="cls-12" d="M347.55,317.59l5.84,3.37a5.68,5.68,0,0,0,5.14,0l6.05-3.51c1.42-.83,1.4-2.17,0-3l-5.83-3.36a5.67,5.67,0,0,0-5.15,0l-6.05,3.52C346.11,315.43,346.13,316.77,347.55,317.59Z"/><path class="cls-12" d="M363.79,296.12l5.84,3.37a5.73,5.73,0,0,0,5.15,0l6.56-3.81c1.4-.81,1.4-2.16,0-3l-5.84-3.37a5.7,5.7,0,0,0-5.15,0l-6.55,3.81C362.36,294,362.37,295.29,363.79,296.12Z"/><path class="cls-12" d="M394.87,303.49c1.41-.82,1.4-2.16,0-3L388.77,297a5.72,5.72,0,0,0-5.16,0l-6.55,3.81c-1.42.82-1.41,2.16,0,3l6.08,3.51a5.72,5.72,0,0,0,5.16,0Z"/><path class="cls-12" d="M361,262.85l5.1,2.94a5.72,5.72,0,0,0,5.16,0l.95-.55c1.42-.83,1.41-2.17,0-3l-5.1-2.95a5.72,5.72,0,0,0-5.16,0l-1,.56C359.54,260.68,359.54,262,361,262.85Z"/><path class="cls-12" d="M373.52,270.09l6.59,3.81a5.69,5.69,0,0,0,5.16,0l1-.55c1.42-.82,1.41-2.16,0-3l-6.59-3.81a5.72,5.72,0,0,0-5.16,0l-1,.55C372.09,267.92,372.1,269.27,373.52,270.09Z"/><path class="cls-12" d="M377.73,275.28l-6.59-3.8a5.72,5.72,0,0,0-5.16,0l-5.84,3.4c-1.41.82-1.4,2.17,0,3l6.6,3.81a5.68,5.68,0,0,0,5.14,0l5.85-3.39C379.16,277.45,379.15,276.1,377.73,275.28Z"/><path class="cls-12" d="M337.61,252.12l-5.84-3.37a5.7,5.7,0,0,0-5.15,0l-5.84,3.39c-1.41.82-1.41,2.17,0,3l5.83,3.37a5.7,5.7,0,0,0,5.15,0l5.84-3.4C339,254.28,339,252.94,337.61,252.12Z"/><path class="cls-12" d="M351.14,259.93l-6.09-3.51a5.7,5.7,0,0,0-5.15,0l-5.85,3.4c-1.41.82-1.39,2.16,0,3l6.09,3.52a5.72,5.72,0,0,0,5.16,0l5.84-3.39C352.57,262.1,352.56,260.75,351.14,259.93Z"/><path class="cls-12" d="M273.62,230.51l-5.83-3.37a5.72,5.72,0,0,0-5.16,0L256.08,231c-1.41.82-1.41,2.17,0,3l5.83,3.37a5.69,5.69,0,0,0,5.16,0l6.55-3.81C275.05,232.68,275,231.33,273.62,230.51Z"/><path class="cls-12" d="M283.31,220.77l-5.83-3.37a5.72,5.72,0,0,0-5.16,0l-5.84,3.4c-1.41.82-1.4,2.16,0,3l5.84,3.37a5.7,5.7,0,0,0,5.15,0l5.85-3.39C284.75,222.94,284.73,221.59,283.31,220.77Z"/><path class="cls-12" d="M279.86,216l5.83,3.37a5.74,5.74,0,0,0,5.17,0l.95-.56c1.41-.82,1.4-2.17,0-3L286,212.48a5.66,5.66,0,0,0-5.16,0l-1,.55C278.43,213.85,278.44,215.2,279.86,216Z"/><path class="cls-12" d="M293.14,223.68l6.08,3.52a5.74,5.74,0,0,0,5.17,0l.95-.55c1.41-.83,1.41-2.17,0-3l-6.09-3.52a5.7,5.7,0,0,0-5.15,0l-.95.56C291.71,221.52,291.72,222.86,293.14,223.68Z"/><path class="cls-12" d="M334.16,247.37l5.83,3.36a5.7,5.7,0,0,0,5.15,0l1-.55c1.41-.83,1.41-2.17,0-3l-5.83-3.37a5.74,5.74,0,0,0-5.17,0l-.95.56C332.72,245.2,332.73,246.54,334.16,247.37Z"/><path class="cls-12" d="M306.67,231.5l6,3.46a5.72,5.72,0,0,0,5.16,0l.95-.55c1.42-.83,1.4-2.17,0-3l-6-3.46a5.69,5.69,0,0,0-5.16,0l-.95.56C305.24,229.33,305.25,230.67,306.67,231.5Z"/><path class="cls-12" d="M296.84,228.58l-6.09-3.51a5.68,5.68,0,0,0-5.14,0l-5.85,3.39c-1.41.83-1.4,2.17,0,3l6.09,3.51a5.7,5.7,0,0,0,5.15,0l5.85-3.39C298.27,230.75,298.27,229.4,296.84,228.58Z"/><path class="cls-12" d="M310.29,236.34l-6-3.46a5.7,5.7,0,0,0-5.15,0l-5.85,3.4c-1.41.82-1.4,2.16,0,3l6,3.46a5.72,5.72,0,0,0,5.16,0l5.84-3.4C311.72,238.51,311.71,237.16,310.29,236.34Z"/><path class="cls-12" d="M320.12,239.26l6.59,3.81a5.72,5.72,0,0,0,5.16,0l.95-.56c1.42-.82,1.41-2.17,0-3l-6.59-3.8a5.72,5.72,0,0,0-5.16,0l-1,.55C318.69,237.09,318.69,238.44,320.12,239.26Z"/><path class="cls-12" d="M324.33,244.45l-6.59-3.8a5.69,5.69,0,0,0-5.16,0l-5.84,3.4c-1.41.82-1.4,2.16,0,3l6.59,3.81a5.7,5.7,0,0,0,5.15,0l5.85-3.39C325.76,246.62,325.75,245.27,324.33,244.45Z"/><path class="cls-12" d="M233.56,233.23c-1.42.82-1.41,2.16,0,3l6.58,3.8a5.74,5.74,0,0,0,5.17,0l5.78-3.37c1.42-.82,1.41-2.16,0-3l-6.59-3.81a5.72,5.72,0,0,0-5.16,0Z"/><path class="cls-12" d="M264.4,244.33c1.41-.83,1.4-2.17,0-3L258.55,238a5.72,5.72,0,0,0-5.16,0l-5.79,3.36c-1.41.83-1.41,2.17,0,3l5.84,3.37a5.72,5.72,0,0,0,5.16,0Z"/><path class="cls-12" d="M287.15,238.33l-6.09-3.52a5.68,5.68,0,0,0-5.14,0l-6.56,3.81c-1.41.82-1.4,2.16,0,3l6.09,3.52a5.72,5.72,0,0,0,5.16,0l6.56-3.81C288.58,240.49,288.57,239.14,287.15,238.33Z"/><path class="cls-12" d="M300.6,246.09l-6-3.46a5.67,5.67,0,0,0-5.15,0l-6.56,3.81c-1.41.82-1.4,2.17,0,3l6,3.46a5.7,5.7,0,0,0,5.15,0l6.55-3.81C302,248.25,302,246.91,300.6,246.09Z"/><path class="cls-12" d="M314.63,254.19,308,250.38a5.7,5.7,0,0,0-5.15,0l-6.55,3.81c-1.42.82-1.41,2.17,0,3l6.59,3.81a5.77,5.77,0,0,0,5.17,0l6.55-3.81C316.07,256.36,316.05,255,314.63,254.19Z"/><path class="cls-12" d="M274.43,259.8l6,3.46a5.69,5.69,0,0,0,5.16,0l5.79-3.36c1.42-.82,1.4-2.17,0-3l-6-3.47a5.72,5.72,0,0,0-5.16,0l-5.79,3.37C273,257.63,273,259,274.43,259.8Z"/><path class="cls-12" d="M327.91,261.86l-5.83-3.37a5.7,5.7,0,0,0-5.15,0l-6.55,3.81c-1.42.82-1.41,2.16,0,3l5.83,3.36a5.72,5.72,0,0,0,5.16,0l6.55-3.81C329.34,264,329.33,262.68,327.91,261.86Z"/><path class="cls-12" d="M287.87,267.56l6.59,3.81a5.72,5.72,0,0,0,5.16,0l5.79-3.37c1.42-.82,1.41-2.16,0-3l-6.59-3.8a5.72,5.72,0,0,0-5.16,0l-5.79,3.36C286.44,265.4,286.45,266.74,287.87,267.56Z"/><path class="cls-12" d="M266.66,270.89l6,3.46a5.7,5.7,0,0,0,5.15,0l6.05-3.52c1.42-.82,1.4-2.16,0-3l-6-3.46a5.73,5.73,0,0,0-5.15,0l-6,3.52C265.23,268.73,265.24,270.07,266.66,270.89Z"/><path class="cls-12" d="M241.74,272.05l6,3.46a5.72,5.72,0,0,0,5.16,0l6-3.49c1.41-.82,1.4-2.17,0-3l-6-3.47a5.7,5.7,0,0,0-5.15,0l-6,3.5C240.31,269.88,240.31,271.22,241.74,272.05Z"/><path class="cls-12" d="M341.44,269.67l-6.08-3.51a5.73,5.73,0,0,0-5.15,0L323.65,270c-1.41.82-1.4,2.17,0,3l6.08,3.51a5.66,5.66,0,0,0,5.16,0l6.55-3.81C342.87,271.84,342.86,270.49,341.44,269.67Z"/><path class="cls-12" d="M301.91,275.67l5.83,3.37a5.72,5.72,0,0,0,5.16,0l5.79-3.36c1.41-.82,1.41-2.17,0-3l-5.84-3.37a5.72,5.72,0,0,0-5.16,0l-5.79,3.37C300.48,273.5,300.48,274.85,301.91,275.67Z"/><path class="cls-12" d="M280.11,278.65l6.59,3.81a5.7,5.7,0,0,0,5.15,0l6-3.51c1.41-.83,1.4-2.17,0-3l-6.59-3.8a5.64,5.64,0,0,0-5.15,0l-6.05,3.51C278.68,276.49,278.68,277.83,280.11,278.65Z"/><path class="cls-12" d="M354,276.92,348.89,274a5.7,5.7,0,0,0-5.15,0l-6.55,3.81c-1.42.82-1.41,2.16,0,3l5.11,2.95a5.7,5.7,0,0,0,5.15,0L354,279.9C355.42,279.08,355.41,277.74,354,276.92Z"/><path class="cls-12" d="M315.19,283.34l6.08,3.51a5.72,5.72,0,0,0,5.16,0l5.79-3.37c1.42-.82,1.41-2.16,0-3L326.13,277a5.74,5.74,0,0,0-5.17,0l-5.78,3.37C313.76,281.17,313.77,282.51,315.19,283.34Z"/><path class="cls-12" d="M294.15,286.76l5.83,3.37a5.7,5.7,0,0,0,5.15,0l6.05-3.51c1.42-.83,1.4-2.17,0-3l-5.83-3.37a5.7,5.7,0,0,0-5.15,0l-6.05,3.52C292.71,284.6,292.73,285.94,294.15,286.76Z"/><path class="cls-12" d="M368,285l-6.58-3.8a5.72,5.72,0,0,0-5.16,0l-6.55,3.8c-1.42.83-1.41,2.17,0,3l6.58,3.81a5.74,5.74,0,0,0,5.17,0l6.55-3.81C369.47,287.19,369.46,285.85,368,285Z"/><path class="cls-12" d="M328.72,291.15l5.1,2.94a5.66,5.66,0,0,0,5.16,0l5.79-3.36c1.42-.82,1.41-2.17,0-3l-5.09-2.95a5.74,5.74,0,0,0-5.17,0l-5.79,3.37C327.29,289,327.3,290.33,328.72,291.15Z"/><path class="cls-12" d="M307.43,294.43l6.09,3.51a5.68,5.68,0,0,0,5.14,0l6-3.51c1.42-.82,1.4-2.17,0-3l-6.09-3.52a5.7,5.7,0,0,0-5.15,0l-6,3.52C306,292.27,306,293.61,307.43,294.43Z"/><path class="cls-12" d="M341.27,298.39l6.6,3.81a5.7,5.7,0,0,0,5.15,0l5.79-3.37c1.42-.82,1.41-2.16,0-3L352.21,292a5.74,5.74,0,0,0-5.17,0l-5.78,3.36C339.84,296.23,339.85,297.57,341.27,298.39Z"/><path class="cls-12" d="M321,302.24l5.1,2.95a5.68,5.68,0,0,0,5.14,0l6.05-3.52c1.42-.82,1.4-2.16,0-3l-5.1-2.94a5.67,5.67,0,0,0-5.15,0l-6.05,3.52C319.53,300.08,319.53,301.41,321,302.24Z"/><path class="cls-12" d="M355.31,306.5l5.83,3.37a5.72,5.72,0,0,0,5.16,0l5.79-3.37c1.42-.82,1.4-2.17,0-3l-5.84-3.36a5.67,5.67,0,0,0-5.15,0l-5.79,3.36C353.88,304.34,353.88,305.67,355.31,306.5Z"/><path class="cls-12" d="M333.51,309.48l6.59,3.81a5.72,5.72,0,0,0,5.16,0l6.05-3.52c1.41-.82,1.4-2.16,0-3L344.69,303a5.67,5.67,0,0,0-5.15,0l-6.05,3.51C332.08,307.33,332.09,308.66,333.51,309.48Z"/><path class="cls-12" d="M337.84,314.61l-71.51-41.29a5.7,5.7,0,0,0-5.15,0l-6,3.5c-1.41.82-1.41,2.17,0,3l71.51,41.29a5.72,5.72,0,0,0,5.16,0l6-3.5C339.27,316.77,339.27,315.43,337.84,314.61Z"/><path class="cls-12" d="M351.12,322.28l-5.83-3.37a5.64,5.64,0,0,0-5.15,0l-6,3.49c-1.41.82-1.41,2.17,0,3l5.84,3.37a5.73,5.73,0,0,0,5.15,0l6-3.5C352.55,324.44,352.54,323.1,351.12,322.28Z"/><path class="cls-12" d="M363.8,329.59l-5.23-3a5.72,5.72,0,0,0-5.16,0l-6,3.5c-1.41.82-1.41,2.16,0,3l5.23,3a5.72,5.72,0,0,0,5.16,0l6-3.5C365.23,331.76,365.22,330.42,363.8,329.59Z"/><path class="cls-12" d="M228.21,264.24l6.08,3.51a5.72,5.72,0,0,0,5.16,0l6-3.5c1.41-.82,1.4-2.17,0-3l-6.08-3.51a5.7,5.7,0,0,0-5.15,0l-6,3.5C226.78,262.07,226.78,263.41,228.21,264.24Z"/><path class="cls-12" d="M214.92,256.57l5.83,3.36a5.72,5.72,0,0,0,5.16,0l6-3.5c1.41-.82,1.4-2.16,0-3l-5.83-3.37a5.7,5.7,0,0,0-5.15,0l-6,3.5C213.5,254.4,213.5,255.74,214.92,256.57Z"/><path class="cls-12" d="M218.63,245.78,212,242a5.73,5.73,0,0,0-5.15,0l-6,3.5c-1.41.82-1.41,2.17,0,3l6.6,3.81a5.72,5.72,0,0,0,5.16,0l6-3.5C220.06,248,220.06,246.6,218.63,245.78Z"/><path class="cls-12" d="M433.12,338.76l-7.23-4.18a5.7,5.7,0,0,0-5.15,0L415,338c-1.42.82-1.42,2.16,0,3l7.23,4.17a5.66,5.66,0,0,0,5.16,0l5.79-3.36C434.56,340.92,434.55,339.58,433.12,338.76Z"/><path class="cls-12" d="M419.93,346.43l-7.23-4.18a5.7,5.7,0,0,0-5.15,0l-6.05,3.52c-1.41.82-1.41,2.16,0,3l7.23,4.17a5.67,5.67,0,0,0,5.15,0l6.05-3.52C421.36,348.59,421.35,347.25,419.93,346.43Z"/><path class="cls-12" d="M264.37,266.59l6.05-3.51c1.41-.82,1.4-2.16,0-3l-6.08-3.51a5.7,5.7,0,0,0-5.15,0l-6.05,3.51c-1.42.83-1.4,2.17,0,3l6.08,3.51A5.69,5.69,0,0,0,264.37,266.59Z"/><path class="cls-12" d="M265.82,207.91l6.59,3.81a5.72,5.72,0,0,0,5.16,0l1-.56c1.41-.82,1.4-2.16,0-3l-6.59-3.8a5.72,5.72,0,0,0-5.16,0l-.95.55C264.39,205.75,264.4,207.09,265.82,207.91Z"/><path class="cls-12" d="M251.24,199.49l7.13,4.12a5.68,5.68,0,0,0,5.17,0l.95-.55c1.41-.82,1.41-2.17,0-3L257.33,196a5.7,5.7,0,0,0-5.15,0l-1,.56C249.81,197.33,249.82,198.67,251.24,199.49Z"/><path class="cls-12" d="M237.88,207.26l7.14,4.12a5.7,5.7,0,0,0,5.15,0L256,208c1.4-.81,1.4-2.16,0-3l-7.14-4.12a5.68,5.68,0,0,0-5.14,0l-5.85,3.39C236.45,205.09,236.46,206.43,237.88,207.26Z"/><path class="cls-12" d="M270,213.1l-6.59-3.8a5.67,5.67,0,0,0-5.15,0l-5.85,3.4c-1.41.82-1.4,2.16,0,3l6.59,3.8a5.72,5.72,0,0,0,5.16,0l5.84-3.39C271.46,215.27,271.45,213.93,270,213.1Z"/><path class="cls-12" d="M223.92,215.36l10.69,6.17a5.66,5.66,0,0,0,5.16,0l6.55-3.81c1.41-.82,1.41-2.16,0-3l-10.69-6.17a5.68,5.68,0,0,0-5.14,0l-6.56,3.81C222.5,213.2,222.51,214.54,223.92,215.36Z"/><path class="cls-12" d="M248.6,219l-6.56,3.8c-1.41.83-1.4,2.17,0,3l6.59,3.81a5.72,5.72,0,0,0,5.16,0l6.55-3.81c1.41-.82,1.4-2.16,0-3l-6.59-3.8A5.7,5.7,0,0,0,248.6,219Z"/><path class="cls-12" d="M210.73,223l15.39,8.89a5.74,5.74,0,0,0,5.17,0l5.79-3.37c1.41-.82,1.4-2.17,0-3l-15.39-8.88a5.72,5.72,0,0,0-5.16,0L210.72,220C209.31,220.87,209.32,222.21,210.73,223Z"/><path class="cls-12" d="M198.59,244.16l6-3.5c1.41-.82,1.41-2.16,0-3L195,232.16a5.7,5.7,0,0,0-5.15,0l-6,3.49c-1.41.82-1.41,2.17,0,3l9.57,5.52A5.67,5.67,0,0,0,198.59,244.16Z"/><path class="cls-12" d="M197.29,230.84,218.37,243a5.7,5.7,0,0,0,5.15,0l6-3.52c1.41-.82,1.4-2.16,0-3l-21.08-12.17a5.7,5.7,0,0,0-5.15,0l-6,3.52C195.86,228.68,195.87,230,197.29,230.84Z"/><path class="cls-12" d="M225.79,244.33c-1.41.82-1.4,2.16,0,3l6.6,3.81a5.67,5.67,0,0,0,5.15,0l6.05-3.52c1.42-.82,1.4-2.16,0-3l-6.6-3.81a5.7,5.7,0,0,0-5.15,0Z"/><path class="cls-12" d="M251,248.92a5.69,5.69,0,0,0-5.16,0l-6,3.51c-1.41.82-1.4,2.16,0,3l5.83,3.37a5.7,5.7,0,0,0,5.15,0l6-3.51c1.41-.83,1.4-2.16,0-3Z"/><path class="cls-12" d="M425.86,329l6.55-3.81c1.41-.82,1.4-2.16,0-3l-16.32-9.42a5.69,5.69,0,0,0-5.16,0l-6.55,3.81c-1.42.82-1.41,2.16,0,3L420.7,329A5.72,5.72,0,0,0,425.86,329Z"/><path class="cls-12" d="M390.61,311.6l6.32,3.65a5.72,5.72,0,0,0,5.16,0l6.55-3.81c1.41-.82,1.4-2.16,0-3l-6.32-3.65a5.72,5.72,0,0,0-5.16,0l-6.55,3.81C389.17,309.43,389.18,310.77,390.61,311.6Z"/><path class="cls-12" d="M412.67,336.64l5.79-3.37c1.42-.82,1.41-2.16,0-3l-25.39-14.66a5.7,5.7,0,0,0-5.15,0L382.11,319c-1.41.83-1.41,2.17,0,3l25.39,14.66A5.72,5.72,0,0,0,412.67,336.64Z"/><path class="cls-12" d="M368.59,314.17l6.08,3.51a5.72,5.72,0,0,0,5.16,0l5.79-3.37c1.42-.82,1.41-2.16,0-3l-6.08-3.52a5.74,5.74,0,0,0-5.17,0l-5.78,3.37C367.16,312,367.17,313.34,368.59,314.17Z"/><path class="cls-12" d="M260.9,252,267,255.5a5.72,5.72,0,0,0,5.16,0l5.79-3.36c1.41-.83,1.41-2.17,0-3l-6.08-3.51a5.66,5.66,0,0,0-5.16,0L260.88,249C259.46,249.82,259.47,251.17,260.9,252Z"/><path class="cls-12" d="M460.31,323l-7.23-4.17a5.67,5.67,0,0,0-5.15,0l-5.85,3.39c-1.4.82-1.4,2.16,0,3l7.23,4.18a5.72,5.72,0,0,0,5.16,0l5.84-3.39C461.74,325.12,461.73,323.78,460.31,323Z"/><path class="cls-12" d="M447.07,330.65l-7.23-4.17a5.7,5.7,0,0,0-5.15,0l-6.55,3.81c-1.42.82-1.42,2.16,0,3l7.23,4.18a5.72,5.72,0,0,0,5.16,0l6.55-3.81C448.5,332.82,448.49,331.48,447.07,330.65Z"/><path class="cls-12" d="M363.69,267.17l-5.1-2.94a5.72,5.72,0,0,0-5.16,0l-5.84,3.39c-1.41.82-1.4,2.17,0,3l5.1,2.94a5.69,5.69,0,0,0,5.16,0l5.84-3.4C365.12,269.34,365.11,268,363.69,267.17Z"/><path class="cls-12" d="M468.79,318l-7.23-4.17a5.72,5.72,0,0,0-5.16,0l-.95.55c-1.42.83-1.41,2.17,0,3l7.23,4.17a5.66,5.66,0,0,0,5.16,0l1-.55C470.22,320.2,470.21,318.85,468.79,318Z"/><path class="cls-12" d="M428.14,301.63l6.6,3.8a5.7,5.7,0,0,0,5.15,0l.95-.55c1.42-.83,1.41-2.17,0-3l-6.59-3.81a5.72,5.72,0,0,0-5.16,0l-1,.56C426.71,299.46,426.72,300.8,428.14,301.63Z"/><path class="cls-12" d="M442.18,309.74,448,313.1a5.72,5.72,0,0,0,5.16,0l1-.56c1.41-.82,1.4-2.16,0-3l-5.83-3.37a5.72,5.72,0,0,0-5.16,0l-.95.56C440.75,307.57,440.76,308.91,442.18,309.74Z"/><path class="cls-12" d="M439.81,320.87l5.84-3.4c1.41-.82,1.4-2.16,0-3L425.76,303a5.72,5.72,0,0,0-5.16,0l-5.84,3.4c-1.41.81-1.4,2.16,0,3l19.87,11.47A5.75,5.75,0,0,0,439.81,320.87Z"/><path class="cls-12" d="M414.37,293.68l6.33,3.65a5.7,5.7,0,0,0,5.15,0l.95-.56c1.42-.82,1.41-2.16,0-3l-6.33-3.66a5.72,5.72,0,0,0-5.16,0l-1,.56C412.94,291.51,412.94,292.85,414.37,293.68Z"/><path class="cls-12" d="M400.84,285.87l6.08,3.51a5.72,5.72,0,0,0,5.16,0l1-.56c1.41-.82,1.4-2.16,0-3l-6.08-3.51a5.72,5.72,0,0,0-5.16,0l-1,.56C399.41,283.7,399.41,285,400.84,285.87Z"/><path class="cls-12" d="M387.56,278.2l5.83,3.36a5.66,5.66,0,0,0,5.16,0l1-.55c1.41-.82,1.4-2.17,0-3l-5.84-3.37a5.67,5.67,0,0,0-5.15,0l-.95.55C386.13,276,386.14,277.38,387.56,278.2Z"/><path class="cls-12" d="M391,283l-5.84-3.37a5.68,5.68,0,0,0-5.14,0l-5.85,3.4c-1.41.82-1.4,2.16,0,3l5.83,3.37a5.72,5.72,0,0,0,5.16,0l5.84-3.4C392.44,285.12,392.43,283.77,391,283Z"/><path class="cls-12" d="M404.54,290.76l-6.08-3.51a5.75,5.75,0,0,0-5.16,0l-5.84,3.4c-1.41.82-1.4,2.17,0,3l6.08,3.51a5.72,5.72,0,0,0,5.16,0l5.84-3.39C406,292.93,406,291.58,404.54,290.76Z"/><path class="cls-12" d="M412.49,305.09l5.84-3.39c1.41-.82,1.4-2.17,0-3L412,295.06a5.72,5.72,0,0,0-5.16,0L401,298.45c-1.41.82-1.4,2.17,0,3l6.33,3.65A5.7,5.7,0,0,0,412.49,305.09Z"/><path class="cls-12" d="M347.43,255l6.09,3.51a5.66,5.66,0,0,0,5.16,0l1-.55c1.41-.82,1.4-2.17,0-3l-6.09-3.51a5.72,5.72,0,0,0-5.16,0l-.95.55C346,252.86,346,254.21,347.43,255Z"/><path class="cls-12" d="M406.48,354.24l-7.23-4.18a5.71,5.71,0,0,0-5.14,0l-6,3.5c-1.41.82-1.42,2.17,0,3l7.23,4.17a5.69,5.69,0,0,0,5.16,0l6-3.5C407.92,356.4,407.91,355.06,406.48,354.24Z"/><path class="cls-11" d="M504.76,324.82a4.18,4.18,0,0,0-1.11-1.42,5.71,5.71,0,0,0-4-1.2,10.25,10.25,0,0,0-3.86,1.09c-.35.16-.35.16-7.23,4.16l-12.84,7.47-17.63,10.24-20.74,12-22.2,12.91-22,12.78L373,394.59l-16.59,9.64L345,410.85c-4.65,2.71-4.65,2.71-5.14,3s-1.42,1-2.41,1.78c-4.21,3.34-10.17,8.82-13.36,11.77-1.28,1.24-1.23,2.08-1,2.56a1.13,1.13,0,0,0,.45.41,2.49,2.49,0,0,0,1.81.13c.19-.05.25-.06.91-.27l2.28-.73,2.06-.67c4.33-1.41,7-2.38,7.34-2.48a59.72,59.72,0,0,0,8-3.27l.08,0,32.49-18.89,85.07-49.44,17.63-10.24L494.1,337c6.52-3.8,6.52-3.8,7-4.13a12,12,0,0,0,1.77-1.41,7,7,0,0,0,2.26-4.8A4.47,4.47,0,0,0,504.76,324.82Z"/><path class="cls-12" d="M341.22,413.07a9.37,9.37,0,0,1,2.71,2.13,11.2,11.2,0,0,1,2.89,7.41"/><path class="cls-12" d="M487.24,341a12.73,12.73,0,0,0-3.18-7.31,11,11,0,0,0-2.56-2.15m-3.25,1.89a6.08,6.08,0,0,1,3.64,2.2,9.14,9.14,0,0,1,2.39,7.09"/><path class="cls-5" d="M258.87,92.52a16.18,16.18,0,0,1-3.2,9.47,29.58,29.58,0,0,1-9.95,8.47c-17,9.5-44.1,9.23-60.45-.61a28.49,28.49,0,0,1-8.64-7.64s0,0,0,0a16,16,0,0,1-3.25-9.43q0-6.26,0-12.53c0,6.15,4,12.3,11.9,17.08,16.34,9.83,43.41,10.11,60.44.61,8.76-4.88,13.16-11.38,13.16-17.89C258.86,84.19,258.86,88.36,258.87,92.52Z"/><path class="cls-5" d="M258.84,80V80c0,6.51-4.4,13-13.16,17.89-17,9.5-44.1,9.22-60.44-.61-7.93-4.78-11.88-10.93-11.9-17.08,0-5,2.55-9.94,7.65-14.19l2.64-2.2c-10.55,8.78-9.33,20.93,3.94,28.9,15.1,9.1,40.12,9.35,55.87.57,14.26-8,16-20.58,5-29.66.89.74,1.77,1.47,2.66,2.19C256.26,70.09,258.82,75,258.84,80Z"/><path class="cls-6" d="M255.67,102l-8.43,50.64a12.79,12.79,0,0,1-2.84,6,14.35,14.35,0,0,1-1.12,1.25,23.8,23.8,0,0,1-5.47,4.06c-12.38,6.91-32.07,6.71-44-.44a23.2,23.2,0,0,1-4.5-3.46h0a16.07,16.07,0,0,1-1.12-1.24h0a12.87,12.87,0,0,1-2.87-5.93l-8.72-50.61a28.49,28.49,0,0,0,8.64,7.64c16.35,9.84,43.42,10.11,60.45.61A29.58,29.58,0,0,0,255.67,102Z"/><path class="cls-5" d="M248.46,63.66c11,9.08,9.24,21.7-5,29.66-15.75,8.78-40.77,8.53-55.87-.57-13.27-8-14.49-20.12-3.94-28.9a32.44,32.44,0,0,1,5.1-3.46c15.74-8.79,40.76-8.54,55.86.56A34.15,34.15,0,0,1,248.46,63.66Zm-15.08,23.6c8.73-4.86,10.06-12.51,3.82-18.19l-3.84-3.5a.44.44,0,0,0-.11-.09,14.73,14.73,0,0,0-2.51-1.86c-7.77-4.68-20.65-4.81-28.75-.29a16.31,16.31,0,0,0-3.14,2.24l-.16.14-3.77,3.48c-6,5.5-5,12.83,3.13,17.71C207.61,92.66,223.42,92.81,233.38,87.26Z"/><path class="cls-5" d="M243.28,159.85a23.8,23.8,0,0,1-5.47,4.06c-12.38,6.91-32.07,6.71-44-.44a23.2,23.2,0,0,1-4.5-3.46h0a16.07,16.07,0,0,1-1.12-1.24c.92,3.17,3.41,6.21,7.54,8.69,10.89,6.55,28.91,6.73,40.26.4,4.63-2.58,7.42-5.84,8.38-9.25A14.35,14.35,0,0,1,243.28,159.85Z"/><path class="cls-5" d="M237.2,69.07c6.24,5.68,4.91,13.33-3.82,18.19-10,5.55-25.77,5.4-35.33-.36C190,82,189,74.69,194.92,69.19l3.77-3.48c-4.68,4.47-3.83,10.35,2.7,14.27,7.78,4.69,20.65,4.82,28.75.3,7.06-3.94,8.18-10.1,3.22-14.71Z"/><path class="cls-5" d="M233.36,65.57c5,4.61,3.84,10.77-3.22,14.71-8.1,4.52-21,4.39-28.75-.3-6.53-3.92-7.38-9.8-2.7-14.27l.16-.14A16.31,16.31,0,0,1,202,63.33c8.1-4.52,21-4.39,28.75.29a14.73,14.73,0,0,1,2.51,1.86A.44.44,0,0,1,233.36,65.57Zm-13.09,8.76c2.43-1.35,2.51-3.57.19-5a9.48,9.48,0,0,0-8.6-.09c-2.42,1.35-2.51,3.58-.18,5a7.35,7.35,0,0,0,2.16.83,10.17,10.17,0,0,0,4.46,0A7.13,7.13,0,0,0,220.27,74.33Z"/><path class="cls-5" d="M220.46,69.36c2.32,1.4,2.24,3.62-.19,5a7.13,7.13,0,0,1-2,.75l.4-.2c1.5-.83,1.56-2.23.11-3.1a5.92,5.92,0,0,0-5.36,0c-1.51.84-1.56,2.23-.12,3.1a3,3,0,0,0,.51.25,7.35,7.35,0,0,1-2.16-.83c-2.33-1.4-2.24-3.63.18-5A9.48,9.48,0,0,1,220.46,69.36Z"/><path class="cls-5" d="M218.81,71.78c1.45.87,1.39,2.27-.11,3.1l-.4.2a10.17,10.17,0,0,1-4.46,0,3,3,0,0,1-.51-.25c-1.44-.87-1.39-2.26.12-3.1A5.92,5.92,0,0,1,218.81,71.78Z"/><path class="cls-7" d="M244.4,158.6c-1,3.41-3.75,6.67-8.38,9.25-11.35,6.33-29.37,6.15-40.26-.4-4.13-2.48-6.62-5.52-7.54-8.69"/><path class="cls-7" d="M255.67,102l-8.43,50.64a12.79,12.79,0,0,1-2.84,6,14.35,14.35,0,0,1-1.12,1.25,23.8,23.8,0,0,1-5.47,4.06c-12.38,6.91-32.07,6.71-44-.44a23.2,23.2,0,0,1-4.5-3.46h0a16.07,16.07,0,0,1-1.12-1.24h0a12.87,12.87,0,0,1-2.87-5.93l-8.72-50.61"/><path class="cls-7" d="M258.84,80c0,6.51-4.4,13-13.16,17.89-17,9.5-44.1,9.22-60.44-.61-7.93-4.78-11.88-10.93-11.9-17.08,0-5,2.55-9.94,7.65-14.19l2.64-2.2"/><path class="cls-7" d="M248.46,63.66c.89.74,1.77,1.47,2.66,2.19,5.14,4.24,7.7,9.19,7.72,14.14"/><path class="cls-7" d="M248.46,63.66A34.15,34.15,0,0,0,244.59,61c-15.1-9.1-40.12-9.35-55.86-.56a32.44,32.44,0,0,0-5.1,3.46c-10.55,8.78-9.33,20.93,3.94,28.9,15.1,9.1,40.12,9.35,55.87.57C257.7,85.36,259.48,72.74,248.46,63.66Z"/><path class="cls-7" d="M218.3,75.08l.4-.2c1.5-.83,1.56-2.23.11-3.1a5.92,5.92,0,0,0-5.36,0c-1.51.84-1.56,2.23-.12,3.1a3,3,0,0,0,.51.25"/><path class="cls-7" d="M233.36,65.57l3.84,3.5c6.24,5.68,4.91,13.33-3.82,18.19-10,5.55-25.77,5.4-35.33-.36C190,82,189,74.69,194.92,69.19l3.77-3.48"/><path class="cls-7" d="M233.25,65.48a14.73,14.73,0,0,0-2.51-1.86c-7.77-4.68-20.65-4.81-28.75-.29a16.31,16.31,0,0,0-3.14,2.24l-.16.14c-4.68,4.47-3.83,10.35,2.7,14.27,7.78,4.69,20.65,4.82,28.75.3,7.06-3.94,8.18-10.1,3.22-14.71A.44.44,0,0,0,233.25,65.48Z"/><path class="cls-7" d="M213.84,75.08a7.35,7.35,0,0,1-2.16-.83c-2.33-1.4-2.24-3.63.18-5a9.48,9.48,0,0,1,8.6.09c2.32,1.4,2.24,3.62-.19,5a7.13,7.13,0,0,1-2,.75A10.17,10.17,0,0,1,213.84,75.08Z"/><path class="cls-7" d="M258.84,80V80c0,4.15,0,8.32,0,12.48a16.18,16.18,0,0,1-3.2,9.47,29.58,29.58,0,0,1-9.95,8.47c-17,9.5-44.1,9.23-60.45-.61a28.49,28.49,0,0,1-8.64-7.64s0,0,0,0a16,16,0,0,1-3.25-9.43q0-6.26,0-12.53"/><path class="cls-10" d="M152.9,170.89v-1.75h-.13c-.73-5.82-4.94-11.52-12.64-16-16.95-9.79-44.33-9.79-61.17,0-7.65,4.44-11.79,10.14-12.46,16h-.11v1.75h0v39.73c0,6.41,4.3,12.83,12.77,17.72,17,9.78,44.33,9.78,61.17,0,8.42-4.89,12.6-11.31,12.57-17.72V170.89Z"/><polygon class="cls-11" points="109.39 129.94 32.41 174.67 109.9 219.41 186.88 174.67 109.39 129.94"/><polygon class="cls-10" points="109.9 224.38 109.9 219.41 32.41 174.67 32.41 179.64 109.9 224.38"/><polygon class="cls-10" points="109.9 224.38 109.9 219.41 186.88 174.67 186.88 179.64 109.9 224.38"/><path class="cls-10" d="M168.19,243.33c-17.4-9.64-18.69-46.6-18.69-46.6l-34.57-29.2-9.25,5,34.57,29.2s1.29,37,18.69,46.59l1.49-3.88Z"/><path class="cls-10" d="M151.93,393.76a16,16,0,0,1-14.49,0L64.07,351.4c-2-1.17-3-2.7-3-4.23q0,7.62,0,15.23c0,1.52,1,3.06,3,4.22L137.39,409a16,16,0,0,0,14.5,0l123.43-71.73.05-15.22Z"/><path class="cls-11" d="M275.37,322,151.93,393.76a16,16,0,0,1-14.49,0L64.07,351.4c-4-2.32-4-6.08,0-8.4l123.43-71.73Z"/><line class="cls-7" x1="272.42" y1="323.74" x2="272.42" y2="338.94"/><path class="cls-10" d="M202.64,278.45a10.54,10.54,0,0,1-.11,1.57l7.75,4.47a13.61,13.61,0,0,0,.11-1.54c0-2.53-.9-4.3-2.34-5.14l-7.74-4.5C201.75,274.15,202.64,275.92,202.64,278.45Z"/><path class="cls-11" d="M203.28,268.21c-2.22-1.29-5.29-1.1-8.68.85-4.29,2.48-8.06,7.21-10.22,12.31l7.74,4.5c2.16-5.1,5.93-9.83,10.22-12.31,3.39-2,6.46-2.14,8.68-.85Z"/><path class="cls-10" d="M202.36,278.37c4.42-2.55,8-.5,8,4.58a13.61,13.61,0,0,1-.11,1.54l3.37,1.95a20.4,20.4,0,0,0,.92-5.91c0-7.74-5.49-10.86-12.23-7-4.29,2.48-8.06,7.21-10.22,12.31l5.74-3.31A15.08,15.08,0,0,1,202.36,278.37Z"/><path class="cls-10" d="M217.84,287.21a12.23,12.23,0,0,1-.11,1.58l7.75,4.47a13.73,13.73,0,0,0,.1-1.55c0-2.52-.9-4.3-2.33-5.13l-7.74-4.5C216.94,282.92,217.83,284.69,217.84,287.21Z"/><path class="cls-11" d="M218.47,277c-2.21-1.29-5.28-1.11-8.67.85-4.29,2.47-8.06,7.2-10.22,12.31l7.74,4.5c2.16-5.11,5.93-9.84,10.22-12.32,3.39-1.95,6.46-2.13,8.68-.85Z"/><path class="cls-10" d="M217.56,287.13c4.41-2.55,8-.5,8,4.58a13.73,13.73,0,0,1-.1,1.55l3.37,1.94a20.35,20.35,0,0,0,.92-5.91c0-7.73-5.5-10.85-12.23-7-4.29,2.48-8.06,7.21-10.22,12.32l5.74-3.32A15.34,15.34,0,0,1,217.56,287.13Z"/><path class="cls-10" d="M233,296a12.08,12.08,0,0,1-.11,1.57l7.74,4.47a11.63,11.63,0,0,0,.11-1.54c0-2.53-.9-4.3-2.33-5.14l-7.74-4.5C232.14,291.68,233,293.45,233,296Z"/><path class="cls-11" d="M233.67,285.74c-2.21-1.29-5.28-1.11-8.67.85-4.3,2.48-8.06,7.2-10.22,12.31l7.74,4.5c2.16-5.1,5.93-9.83,10.22-12.31,3.39-2,6.46-2.14,8.67-.85Z"/><path class="cls-10" d="M232.75,295.9c4.42-2.55,8-.5,8,4.58a11.63,11.63,0,0,1-.11,1.54l3.38,2a20.75,20.75,0,0,0,.92-5.91c0-7.74-5.5-10.86-12.23-7-4.29,2.48-8.06,7.21-10.22,12.31l5.74-3.32A15.26,15.26,0,0,1,232.75,295.9Z"/><path class="cls-10" d="M248.24,304.74a12.35,12.35,0,0,1-.11,1.58l7.74,4.47a11.9,11.9,0,0,0,.11-1.55c0-2.52-.9-4.3-2.33-5.13l-7.74-4.5C247.34,300.44,248.23,302.22,248.24,304.74Z"/><path class="cls-11" d="M248.87,294.51c-2.21-1.29-5.28-1.11-8.67.85-4.3,2.47-8.06,7.2-10.22,12.31l7.74,4.49c2.16-5.1,5.92-9.83,10.22-12.31,3.39-2,6.46-2.13,8.67-.85Z"/><path class="cls-10" d="M248,304.66c4.42-2.55,8-.5,8,4.58a11.9,11.9,0,0,1-.11,1.55l3.38,1.94a21.1,21.1,0,0,0,.92-5.91c0-7.73-5.5-10.85-12.23-7-4.3,2.48-8.06,7.21-10.22,12.31l5.74-3.31A15.43,15.43,0,0,1,248,304.66Z"/><path class="cls-10" d="M263.44,313.51a12.08,12.08,0,0,1-.11,1.57l7.74,4.47a11.66,11.66,0,0,0,.11-1.55c0-2.52-.9-4.29-2.34-5.13l-7.74-4.5C262.54,309.21,263.43,311,263.44,313.51Z"/><path class="cls-11" d="M264.07,303.27c-2.22-1.29-5.29-1.11-8.67.85-4.3,2.48-8.07,7.2-10.23,12.31l7.74,4.5c2.17-5.11,5.93-9.83,10.23-12.31,3.39-2,6.45-2.14,8.67-.85Z"/><path class="cls-10" d="M263.15,313.43c4.42-2.55,8-.5,8,4.57a11.66,11.66,0,0,1-.11,1.55l3.38,1.95a21.1,21.1,0,0,0,.92-5.91c0-7.74-5.5-10.86-12.23-7-4.3,2.48-8.06,7.2-10.23,12.31l5.75-3.32A15.14,15.14,0,0,1,263.15,313.43Z"/><path class="cls-10" d="M237.92,322.2l-55.48-32a7.7,7.7,0,0,0-7,0l-26.84,15.59c-1.93,1.12-1.93,2.95,0,4.07l55.48,32a7.72,7.72,0,0,0,7,0L238,326.26C239.88,325.14,239.87,323.32,237.92,322.2Z"/><path class="cls-4" d="M212.28,326.09c.54-.31,1-.32,2.19.34s3.21,2.2,3.32,2.28l2.23-1.25a27.57,27.57,0,0,0-3.36-2.52,7,7,0,0,0-7.09-.35c-2.19,1.27-1.56,2.23.24,3.68,1.54,1.23,1.55,1.47,1.12,1.72s-1.11.26-2.39-.48c-1-.59-3.06-2.12-3.17-2.2l-2.3,1.25a25.34,25.34,0,0,0,3.35,2.49c2.5,1.44,4.9,1.79,7.22.44,2-1.16,1.86-2,0-3.6C212.11,326.63,211.82,326.35,212.28,326.09Z"/><path class="cls-4" d="M199.32,324.23c-1.44-.83-1.47-1.46-.29-2.17l5.87,3.39,2-.95c3-1.74,3.06-3.43.13-5.12s-6.22-1.49-9.75.55-3.78,3.68-.77,5.42a32.21,32.21,0,0,0,4.72,2.08l1.92-1.17C203.08,326.21,201,325.17,199.32,324.23Zm5.57-3.58c1.25.73,1.2,1.29-.4,2.23l-3.46-2C202.55,320,203.61,319.92,204.89,320.65Z"/><path class="cls-4" d="M192.4,318.52l4.06-2.36,2.45,1.41,2.27-1.31-2.46-1.42,2.77-1.6-2.68-1.55-2.76,1.61-1.18-.68-2.26,1.31,1.18.68-4.12,2.4c-2.86,1.66-3.08,2.59-.66,4a19.4,19.4,0,0,0,2.33,1l2-1.31s-1-.53-1.56-.85C191,319.36,191.41,319.09,192.4,318.52Z"/><path class="cls-4" d="M189.34,309.15c-3.47-2-6.71-1.42-9.77.35s-4.1,3.68-.62,5.69,6.75,1.39,9.8-.39S192.81,311.15,189.34,309.15Zm-3.3,4.09c-1.93,1.12-3.36,1.49-4.83.64s-.85-1.69,1.08-2.81,3.31-1.46,4.79-.61S188,312.12,186,313.24Z"/><path class="cls-4" d="M179.37,303.39a11.86,11.86,0,0,0-3.27-1l.54-.32L174,300.56l-9.91,5.76,2.67,1.55,7.42-4.32a10.06,10.06,0,0,1,2.17.84c1.3.75.53,1.43-1,2.31l-5.3,3.08,2.68,1.54,5.37-3.12C181.15,306.44,182.17,305,179.37,303.39Z"/><path class="cls-5" d="M572.43,371.72c8.5-4.74,12.78-11.07,12.78-17.39,0,1.65,0,3.31,0,5,0,6.34-4.26,12.68-12.78,17.43-16.55,9.23-42.84,9-58.72-.59-7.71-4.64-11.55-10.62-11.56-16.59,0-1.67,0-3.34,0-5,0,6,3.86,11.95,11.57,16.59C529.6,380.68,555.88,381,572.43,371.72Z"/><path class="cls-5" d="M558.89,316c8.11,4.88,7.83,12.65-.62,17.36s-21.87,4.58-30-.31-7.83-12.65.62-17.35S550.79,311.11,558.89,316Z"/><path class="cls-6" d="M570.26,320.4c2.46,5.41-.1,11.43-7.58,15.6-11,6.13-28.43,5.95-39-.39-7-4.2-9.18-10.05-6.68-15.31,0,0,0,0,0,0,1.28-2.67,3.77-5.17,7.47-7.23,11-6.12,28.43-5.95,39,.39a16.75,16.75,0,0,1,6.63,6.68C570.17,320.2,570.22,320.3,570.26,320.4Zm-12,13c8.45-4.71,8.73-12.48.62-17.36s-21.52-5-30-.3-8.72,12.48-.62,17.35S549.83,338.06,558.27,333.35Z"/><path class="cls-6" d="M585.21,354.29v0c0,6.32-4.28,12.65-12.78,17.39-16.55,9.23-42.83,9-58.71-.59-7.71-4.64-11.55-10.62-11.57-16.59a15,15,0,0,1,1.54-6.55q6.66-13.85,13.34-27.69c-2.5,5.26-.3,11.11,6.68,15.31,10.54,6.34,28,6.52,39,.39,7.48-4.17,10-10.19,7.58-15.6q6.71,13.69,13.38,27.37A14.92,14.92,0,0,1,585.21,354.29Z"/><path class="cls-7" d="M585.21,354.33c0,1.65,0,3.31,0,5,0,6.34-4.26,12.68-12.78,17.43-16.55,9.23-42.84,9-58.72-.59-7.71-4.64-11.55-10.62-11.56-16.59,0-1.67,0-3.34,0-5"/><path class="cls-7" d="M517,320.3c-2.5,5.26-.3,11.11,6.68,15.31,10.54,6.34,28,6.52,39,.39,7.48-4.17,10-10.19,7.58-15.6"/><path class="cls-7" d="M570.12,320.1a16.75,16.75,0,0,0-6.63-6.68c-10.54-6.34-28-6.51-39-.39-3.7,2.06-6.19,4.56-7.47,7.23"/><path class="cls-7" d="M558.27,333.35c-8.44,4.71-21.87,4.58-30-.31s-7.83-12.65.62-17.35,21.87-4.58,30,.3S566.72,328.64,558.27,333.35Z"/><path class="cls-7" d="M570.12,320.1c0,.1.1.2.14.3q6.71,13.69,13.38,27.37a14.92,14.92,0,0,1,1.57,6.52v0c0,6.32-4.28,12.65-12.78,17.39-16.55,9.23-42.83,9-58.71-.59-7.71-4.64-11.55-10.62-11.57-16.59a15,15,0,0,1,1.54-6.55q6.66-13.85,13.34-27.69s0,0,0,0"/><path class="cls-4" d="M603.57,233.82c2.29,3,3.62,9.66,2.68,14.74a13.89,13.89,0,0,1-1,2.67,13.9,13.9,0,0,0-1.54,6.35,13,13,0,0,0,1.26,6.28,14,14,0,0,1,.85,2.63,12.59,12.59,0,0,1-2.77,9.93,18.17,18.17,0,0,0-1.69,2.33,14.46,14.46,0,0,0-1.5,3.5,13.75,13.75,0,0,0-.71,3.69,16.17,16.17,0,0,0,.1,2.74c0,.43.07.87.09,1.33a9.31,9.31,0,0,1-.1,1.45,13.33,13.33,0,0,1-.38,1.7c-.1.3-.2.63-.34,1s-.32.68-.52,1.05a11.41,11.41,0,0,1-2.34,3.25,17.64,17.64,0,0,1-2.34,1.81,18.66,18.66,0,0,0-2.43,1.65,13.56,13.56,0,0,0-1.27,1.19,16.79,16.79,0,0,0-1.44,1.59c-.51.63-.88,1.23-1.25,1.74a11.18,11.18,0,0,0-.87,1.46,13.55,13.55,0,0,0-.57,1.35c-.08.22-.15.43-.22.65l-.24.62a13.44,13.44,0,0,1-4,5.56c-7.31,6.64-14.94,12-23.38,11-6-6.07-6.37-15.38-5.57-25.22a13.51,13.51,0,0,1,2-6.55l.35-.56.38-.57a13.89,13.89,0,0,0,.72-1.28,11.84,11.84,0,0,0,.62-1.58c.18-.61.44-1.27.62-2a16.52,16.52,0,0,0,.38-2.12,14.21,14.21,0,0,0,.17-1.73,20.82,20.82,0,0,0-.17-2.93,16.12,16.12,0,0,1,0-2.95,11.48,11.48,0,0,1,1.15-3.85c.17-.38.34-.72.52-1.05s.37-.59.56-.86a10.54,10.54,0,0,1,1.11-1.34,8.56,8.56,0,0,1,1.08-1c.38-.27.75-.5,1.12-.74a16.59,16.59,0,0,0,2.22-1.6,13.1,13.1,0,0,0,2.49-2.81A14.78,14.78,0,0,0,569.3,263a18.12,18.12,0,0,0,.82-2.76,12.53,12.53,0,0,1,6.18-8.26,13.42,13.42,0,0,1,2.6-.93,13,13,0,0,0,5.74-2.83,13.85,13.85,0,0,0,4.09-5.1,13.25,13.25,0,0,1,1.53-2.39C593.72,236.85,599.83,233.81,603.57,233.82Z"/><path class="cls-13" d="M563.5,314.94a13.58,13.58,0,0,0,1.72-6.62v-.66l0-.69a12.15,12.15,0,0,1,0-1.46,11.63,11.63,0,0,1,.29-1.68c.17-.61.29-1.31.55-2.07a16.49,16.49,0,0,1,.77-2,15.43,15.43,0,0,1,.76-1.57,20,20,0,0,1,1.68-2.41,17,17,0,0,0,1.53-2.52,11.49,11.49,0,0,0,1-3.88c0-.42.08-.8.1-1.17s0-.71,0-1a11.43,11.43,0,0,0-.25-1.72,9.9,9.9,0,0,0-.42-1.39c-.18-.42-.38-.82-.57-1.21a16.89,16.89,0,0,1-1.07-2.52,13.61,13.61,0,0,1-.66-3.7,15,15,0,0,1,.15-3.81,17.73,17.73,0,0,1,.74-2.77,11.62,11.62,0,0,0,.39-6.7,12.4,12.4,0,0,0-.49-1.7,13.3,13.3,0,0,1-.44,1.3,14.78,14.78,0,0,1-1.86,3.32,13.1,13.1,0,0,1-2.49,2.81,16.59,16.59,0,0,1-2.22,1.6c-.37.24-.74.47-1.12.74a8.56,8.56,0,0,0-1.08,1,10.54,10.54,0,0,0-1.11,1.34c-.19.27-.38.55-.56.86s-.35.67-.52,1.05a11.48,11.48,0,0,0-1.15,3.85,16.12,16.12,0,0,0,0,2.95,20.82,20.82,0,0,1,.17,2.93,14.21,14.21,0,0,1-.17,1.73,16.52,16.52,0,0,1-.38,2.12c-.18.78-.44,1.44-.62,2a11.84,11.84,0,0,1-.62,1.58,13.89,13.89,0,0,1-.72,1.28l-.38.57-.35.56a13.51,13.51,0,0,0-2,6.55c-.75,9.25-.42,18,4.56,24.1A60.52,60.52,0,0,0,563.5,314.94Z"/><g class="cls-14"><line class="cls-15" x1="558.9" y1="324.62" x2="600.62" y2="239.82"/><polyline class="cls-15" points="548.23 305.09 560.43 321.5 580.88 321.16"/><polyline class="cls-15" points="554.25 292.84 566.46 309.25 586.91 308.91"/><polyline class="cls-15" points="555.9 274.38 572.58 296.81 600.52 296.33"/><polyline class="cls-15" points="564.83 266.89 578.22 284.89 600.65 284.51"/><polyline class="cls-15" points="571.42 254.4 584.68 272.23 606.88 271.85"/><polyline class="cls-15" points="578.36 243.84 590.56 260.26 611.02 259.91"/><polyline class="cls-15" points="584.38 231.6 596.59 248.01 617.04 247.66"/></g><path class="cls-4" d="M491.2,231.16c3.72.28,9.58,3.78,12.74,7.88a15,15,0,0,1,1.34,2.5,13.76,13.76,0,0,0,3.67,5.4,13.06,13.06,0,0,0,5.51,3.27,14.36,14.36,0,0,1,2.52,1.13,12.53,12.53,0,0,1,5.52,8.72,17.18,17.18,0,0,0,.6,2.8,14.48,14.48,0,0,0,1.6,3.47,13.21,13.21,0,0,0,2.26,3,17.11,17.11,0,0,0,2.09,1.77c.35.26.71.52,1.06.82a9.25,9.25,0,0,1,1,1,12,12,0,0,1,1,1.42c.16.27.33.57.49.9s.29.7.44,1.09a11.48,11.48,0,0,1,.84,3.92,16.68,16.68,0,0,1-.22,2.94,20.6,20.6,0,0,0-.41,2.91c0,.53,0,1.1,0,1.74a16.36,16.36,0,0,0,.22,2.14c.12.8.32,1.47.45,2.09a11.67,11.67,0,0,0,.5,1.63,12.46,12.46,0,0,0,.62,1.32l.33.6.31.59a13.5,13.5,0,0,1,1.46,6.69c0,9.87-1.1,19.12-7.51,24.71-8.49.35-15.68-5.57-22.45-12.76a13.51,13.51,0,0,1-3.54-5.86l-.19-.63c-.05-.22-.11-.45-.17-.67a12.53,12.53,0,0,0-.46-1.39,12.73,12.73,0,0,0-.76-1.53c-.33-.53-.65-1.16-1.11-1.82a17.79,17.79,0,0,0-1.31-1.7,17.28,17.28,0,0,0-1.18-1.29,19.31,19.31,0,0,0-2.29-1.83,17.65,17.65,0,0,1-2.19-2,11.44,11.44,0,0,1-2.09-3.43c-.16-.38-.3-.74-.43-1.09s-.19-.68-.26-1A11,11,0,0,1,491,289a8.71,8.71,0,0,1,0-1.45c.05-.46.13-.9.2-1.33a18.34,18.34,0,0,0,.31-2.72,13.37,13.37,0,0,0-.43-3.73,14.39,14.39,0,0,0-1.22-3.61,17.91,17.91,0,0,0-1.5-2.45,11.62,11.62,0,0,1-2.28-6.31,11.35,11.35,0,0,1,.29-3.81,13.13,13.13,0,0,1,1.05-2.56,13,13,0,0,0,1.75-6.16,14,14,0,0,0-1.05-6.45,12.91,12.91,0,0,1-.75-2.73C486.84,240.5,488.68,233.93,491.2,231.16Z"/><path class="cls-13" d="M535.73,296.25l-.31-.59-.33-.6a12.46,12.46,0,0,1-.62-1.32,11.67,11.67,0,0,1-.5-1.63c-.13-.62-.33-1.29-.45-2.09a16.36,16.36,0,0,1-.22-2.14c0-.64-.06-1.21,0-1.74a20.6,20.6,0,0,1,.41-2.91,16.68,16.68,0,0,0,.22-2.94,11.48,11.48,0,0,0-.84-3.92c-.15-.39-.29-.76-.44-1.09s-.33-.63-.49-.9a12,12,0,0,0-1-1.42,9.25,9.25,0,0,0-1-1c-.35-.3-.71-.56-1.06-.82a17.11,17.11,0,0,1-2.09-1.77,13.21,13.21,0,0,1-2.26-3,14.48,14.48,0,0,1-1.6-3.47,17.18,17.18,0,0,1-.6-2.8,12.63,12.63,0,0,0-1.22-3.95A14.52,14.52,0,0,1,519,259a13.52,13.52,0,0,0-1.73,2.15,12.57,12.57,0,0,0-.94,10.27,17.72,17.72,0,0,1,.75,2.77,15,15,0,0,1,.15,3.81,13.2,13.2,0,0,1-.65,3.7,16.45,16.45,0,0,1-1.06,2.53c-.19.39-.38.79-.56,1.21a8.43,8.43,0,0,0-.42,1.39,11.24,11.24,0,0,0-.25,1.72c0,.32,0,.66,0,1s.06.75.11,1.16a11.59,11.59,0,0,0,1,3.88,17.33,17.33,0,0,0,1.55,2.52,20.19,20.19,0,0,1,1.68,2.4,16.53,16.53,0,0,1,.76,1.57,14.59,14.59,0,0,1,.78,2c.26.76.39,1.45.55,2.06a11.63,11.63,0,0,1,.29,1.68,10.49,10.49,0,0,1,.06,1.46l0,.69v.66a13.42,13.42,0,0,0,1.74,6.62,59.35,59.35,0,0,0,7,11.22c6.28-5.61,7.41-14.79,7.37-24.58A13.5,13.5,0,0,0,535.73,296.25Z"/><g class="cls-16"><line class="cls-15" x1="528.69" y1="325.15" x2="493.67" y2="237.37"/><polyline class="cls-15" points="507.03 319.99 527.4 321.92 540.84 306.51"/><polyline class="cls-15" points="501.98 307.31 522.34 309.24 535.78 293.83"/><polyline class="cls-15" points="489.38 293.72 517.2 296.36 535.57 275.29"/><polyline class="cls-15" points="489.79 282.07 512.13 284.19 526.88 267.28"/><polyline class="cls-15" points="484.94 268.82 507.05 270.91 521.65 254.17"/><polyline class="cls-15" points="481.75 256.6 502.11 258.52 515.55 243.11"/><polyline class="cls-15" points="476.69 243.91 497.05 245.85 510.5 230.43"/></g><path class="cls-4" d="M543.58,223.33c3.61,1.76,8.06,7.59,9.57,12.93a14.62,14.62,0,0,1,.35,3,14.84,14.84,0,0,0,1.51,6.84,14,14,0,0,0,4.2,5.46,15,15,0,0,1,2.07,2.12,12.79,12.79,0,0,1,1.8,3.69,12.51,12.51,0,0,1,.23,7.21,19.1,19.1,0,0,0-.52,3,15.86,15.86,0,0,0,.22,4.09,14.21,14.21,0,0,0,1.06,3.89,18.44,18.44,0,0,0,1.39,2.59c.24.4.49.81.72,1.24a9.14,9.14,0,0,1,.59,1.45,11.17,11.17,0,0,1,.44,1.81c0,.34.1.71.13,1.1s0,.81,0,1.26a12.46,12.46,0,0,1-.71,4.25,18.33,18.33,0,0,1-1.4,2.84,22.68,22.68,0,0,0-1.56,2.74,18,18,0,0,0-.66,1.75,19.6,19.6,0,0,0-.63,2.22c-.2.84-.27,1.6-.38,2.26a12.38,12.38,0,0,0-.15,1.83,15.45,15.45,0,0,0,.09,1.57c0,.24.06.49.1.73l.06.71a14.45,14.45,0,0,1-1.2,7.25c-3.89,9.86-8.7,18.63-17.32,21.66-8.61-3-13.43-11.8-17.32-21.66a14.53,14.53,0,0,1-1.19-7.25l.06-.71c0-.24.06-.49.1-.73a13.08,13.08,0,0,0,.08-1.57,12.28,12.28,0,0,0-.14-1.83c-.12-.66-.18-1.42-.38-2.26a17.64,17.64,0,0,0-.64-2.22,15.81,15.81,0,0,0-.65-1.75,22.68,22.68,0,0,0-1.56-2.74,18.33,18.33,0,0,1-1.4-2.84,12.22,12.22,0,0,1-.71-4.25c0-.45,0-.87,0-1.26s.08-.76.13-1.1a11.17,11.17,0,0,1,.44-1.81,9.14,9.14,0,0,1,.59-1.45c.23-.43.47-.84.72-1.24a19.53,19.53,0,0,0,1.39-2.59,14.57,14.57,0,0,0,1.06-3.89,15.86,15.86,0,0,0,.22-4.09,19.1,19.1,0,0,0-.52-3,12.51,12.51,0,0,1,.23-7.21,12.79,12.79,0,0,1,1.8-3.69,13.94,13.94,0,0,1,2.07-2.12,14,14,0,0,0,4.2-5.46,14.84,14.84,0,0,0,1.51-6.84,14.57,14.57,0,0,1,.34-3C535.52,230.92,540,225.09,543.58,223.33Z"/><g class="cls-17"><line class="cls-15" x1="543.58" y1="331.99" x2="543.58" y2="230.51"/><polyline class="cls-15" points="524.04 318.23 543.58 328.26 563.13 318.23"/><polyline class="cls-15" points="524.04 303.57 543.58 313.6 563.13 303.57"/><polyline class="cls-15" points="516.88 285 543.58 298.7 570.28 285"/><polyline class="cls-15" points="521.93 273.56 543.37 284.55 564.8 273.56"/><polyline class="cls-15" points="522.36 258.4 543.58 269.29 564.8 258.4"/><polyline class="cls-15" points="524.04 244.94 543.58 254.97 563.13 244.94"/><polyline class="cls-15" points="524.04 230.28 543.58 240.31 563.13 230.28"/></g></g></g></svg>