<svg xmlns="http://www.w3.org/2000/svg" viewBox="0 0 43.52 34.45"><defs><style>.cls-1{fill:#fff;}</style></defs><g id="Layer_2" data-name="Layer 2"><g id="Layer_1-2" data-name="Layer 1"><path class="cls-1" d="M43.52,20.83c-.08.39-.15.77-.24,1.15a9,9,0,0,1-8.62,7c-3.51.05-7,0-10.53,0H23.6v1.83h.5c1.66,0,3.31,0,5,0a1.75,1.75,0,0,1,1.74,1.6,1.78,1.78,0,0,1-1.27,1.92,2.22,2.22,0,0,1-.63.08H14.59A1.81,1.81,0,0,1,14,30.91a2.85,2.85,0,0,1,.71-.07h5.21V29H9.18A9,9,0,0,1,.23,21.89a8.83,8.83,0,0,1-.21-2q0-5.4,0-10.8A9,9,0,0,1,9.1,0H34.42a9,9,0,0,1,9,7.92,1.87,1.87,0,0,0,.08.32ZM21.76,3.64H9.31a5.81,5.81,0,0,0-1.1.07A5.38,5.38,0,0,0,3.64,9.16c0,3.57,0,7.14,0,10.71a5.81,5.81,0,0,0,.06.93,5.45,5.45,0,0,0,5.57,4.6h25a6.32,6.32,0,0,0,1.23-.1,5.4,5.4,0,0,0,4.4-5.38c0-3.6,0-7.2,0-10.79a5.26,5.26,0,0,0-.06-.89,5.39,5.39,0,0,0-5.44-4.59C30.17,3.63,26,3.64,21.76,3.64Z"/></g></g></svg>