<svg xmlns="http://www.w3.org/2000/svg" viewBox="0 0 40.52 40.51"><defs><style>.cls-1{fill:#fff;}</style></defs><g id="Layer_2" data-name="Layer 2"><g id="Layer_1-2" data-name="Layer 1"><path class="cls-1" d="M28.34,0h.71A1.84,1.84,0,0,1,30.4,2.09c0,.42,0,.84,0,1.3.66,0,1.28,0,1.89,0a8.4,8.4,0,0,1,8,6.53c.08.36.15.72.22,1.07V32.82c0,.12-.06.23-.07.34a8.4,8.4,0,0,1-8.19,7.32q-12,0-24,0A8.37,8.37,0,0,1,0,32.22C0,25.36,0,18.51.06,11.65A8.07,8.07,0,0,1,5.22,4a7.94,7.94,0,0,1,3.47-.65c.48,0,1,0,1.46,0,0-.47,0-.88,0-1.29A1.84,1.84,0,0,1,11.5,0h.71a1.91,1.91,0,0,1,1.33,2.15c0,.4,0,.8,0,1.21H27c0-.42,0-.82,0-1.21A1.91,1.91,0,0,1,28.34,0ZM3.41,16.89V32a5.57,5.57,0,0,0,.06.91,5,5,0,0,0,5.15,4.25H31.91a5.49,5.49,0,0,0,1-.06A5,5,0,0,0,37.14,32c0-4.89,0-9.78,0-14.67,0-.12,0-.25,0-.4Zm33.73-3.41V11.89A5,5,0,0,0,32,6.75c-7.8,0-15.61,0-23.41,0a5,5,0,0,0-1.93.35c-3,1.25-3.46,3.72-3.18,6.37Z"/><path class="cls-1" d="M20.29,22.78a2.53,2.53,0,1,1-2.54,2.52A2.52,2.52,0,0,1,20.29,22.78Z"/><path class="cls-1" d="M14.36,25.3a2.53,2.53,0,0,1-2.52,2.54,2.53,2.53,0,0,1,0-5.06A2.52,2.52,0,0,1,14.36,25.3Z"/><path class="cls-1" d="M26.19,25.31a2.52,2.52,0,0,1,2.53-2.53,2.53,2.53,0,1,1,0,5.06A2.53,2.53,0,0,1,26.19,25.31Z"/></g></g></svg>