<svg xmlns="http://www.w3.org/2000/svg" viewBox="0 0 29.4 35.27"><defs><style>.cls-1{fill:#fff;}</style></defs><g id="Layer_2" data-name="Layer 2"><g id="Layer_1-2" data-name="Layer 1"><path class="cls-1" d="M22.76,35.27H5.26l-.47-.1A5.82,5.82,0,0,1,0,29.38C0,22,0,14.69,0,7.35a7.14,7.14,0,0,1,0-.8A7.35,7.35,0,0,1,7.44,0h14.5a7.76,7.76,0,0,1,1.67.17,7.29,7.29,0,0,1,5.77,7.26c0,3.15,0,6.31,0,9.47,0,3.74,0,7.48,0,11.22a7.23,7.23,0,0,1-4.95,6.74C23.88,35.05,23.31,35.14,22.76,35.27ZM8.84,23.48h17.6c0-.12,0-.22,0-.32V7.46A4.4,4.4,0,0,0,21.92,3c-4.24,0-8.47,0-12.71,0H8.84Zm17.61,3H6.12c-.14,0-.28,0-.41,0A2.94,2.94,0,0,0,6,32.33H22a4.41,4.41,0,0,0,4.26-3A8.88,8.88,0,0,0,26.45,26.45ZM5.86,23.51V3.21c-.14.06-.26.09-.37.15A4.37,4.37,0,0,0,2.93,7.54V24.31A6.12,6.12,0,0,1,5.86,23.51Z"/></g></g></svg>