<svg xmlns="http://www.w3.org/2000/svg" viewBox="0 0 37.29 37.29"><defs><style>.cls-1{fill:#fff;stroke:#fff;stroke-miterlimit:10;stroke-width:0.75px;}</style></defs><g id="Layer_2" data-name="Layer 2"><g id="Layer_1-2" data-name="Layer 1"><path class="cls-1" d="M.38,33.63v-30a6.48,6.48,0,0,1,.32-1A3.74,3.74,0,0,1,4.31.38c5,0,10,0,15,0h13.6a3.87,3.87,0,0,1,2,.49A3.76,3.76,0,0,1,36.92,4.3q0,7.26,0,14.52,0,7.09,0,14.19a3.8,3.8,0,0,1-2.65,3.72l-.64.18h-30l-.23-.07A3.79,3.79,0,0,1,.56,34.27C.49,34.06.44,33.84.38,33.63Zm35-15.77V4.38a2.31,2.31,0,0,0-2.5-2.49H19.81l-.37,0v16Zm-33.51,0h16v-16H4.41A2.32,2.32,0,0,0,1.89,4.43V17.85Zm0,1.57V32.9a2.31,2.31,0,0,0,2.52,2.5H17.85v-16Zm33.51,0h-16v16H32.88a2.32,2.32,0,0,0,2.52-2.54V19.44Z"/><path class="cls-1" d="M27.76,11H24.87c-.57,0-.88-.28-.88-.75s.32-.77.9-.77h5.82a.77.77,0,0,1,.85.59.73.73,0,0,1-.76.92Z"/><path class="cls-1" d="M8.74,9.51c0-.76,0-1.49,0-2.21a.76.76,0,0,1,1.06-.77.79.79,0,0,1,.47.81V9.51h2.23a.76.76,0,0,1,.79.63.73.73,0,0,1-.74.88c-.62,0-1.23,0-1.85,0h-.43v1.91a2.74,2.74,0,0,1,0,.5.75.75,0,0,1-1.48,0c0-.31,0-.62,0-.93V11h-1c-.41,0-.83,0-1.25,0a.73.73,0,0,1-.78-.74.75.75,0,0,1,.8-.77Z"/><path class="cls-1" d="M10.55,27.78l1.74,1.71a.74.74,0,0,1,.08,1.06.73.73,0,0,1-1.13,0c-.57-.56-1.12-1.13-1.73-1.74L8.4,30c-.21.22-.43.44-.65.65a.74.74,0,0,1-1.06,0,.71.71,0,0,1,0-1.05C7.26,29,7.85,28.4,8.46,27.8l-.31-.32L6.74,26.07A.76.76,0,1,1,7.81,25L9.5,26.72l.79-.78c.3-.31.6-.61.91-.91a.76.76,0,1,1,1.05,1.07C11.71,26.65,11.15,27.19,10.55,27.78Z"/><path class="cls-1" d="M27.78,24.73H30.6a1.8,1.8,0,0,1,.46.05.7.7,0,0,1,.52.69.72.72,0,0,1-.5.74,1.54,1.54,0,0,1-.43.05H24.91c-.53,0-.84-.22-.91-.61s.25-.91.86-.92C25.83,24.72,26.81,24.73,27.78,24.73Z"/><path class="cls-1" d="M27.82,29.3c.93,0,1.85,0,2.78,0a1.44,1.44,0,0,1,.46.05.7.7,0,0,1,.52.69.71.71,0,0,1-.5.73,1.59,1.59,0,0,1-.43.06H24.91c-.53,0-.84-.22-.91-.62s.25-.91.86-.91C25.84,29.29,26.83,29.3,27.82,29.3Z"/></g></g></svg>