<svg xmlns="http://www.w3.org/2000/svg" viewBox="0 0 41.74 35.74"><defs><style>.cls-1{fill:#fff;stroke:#fff;stroke-miterlimit:10;stroke-width:0.5px;}</style></defs><g id="Layer_2" data-name="Layer 2"><g id="Layer_1-2" data-name="Layer 1"><path class="cls-1" d="M41.49,23a15.48,15.48,0,0,1-.75,2.27,6.74,6.74,0,0,1-10.62,1.92A6.57,6.57,0,0,1,28,22.35a1.59,1.59,0,0,1,.32-.74c.1-.19.3-.33.4-.52q2.36-5,4.7-10.06l.17-.4-2.8-.8L24.47,8a.47.47,0,0,0-.63.2A3.43,3.43,0,0,1,22,9.61c-.19.06-.29.13-.29.35q0,8.1,0,16.2s0,.07,0,.18h.49a17.17,17.17,0,0,1,2.49.1,3.24,3.24,0,0,1,2.68,3.3.48.48,0,0,0,.41.56,3.37,3.37,0,0,1,2.3,3.25c0,.24,0,.49,0,.73,0,.91-.3,1.21-1.2,1.21H12.44a.79.79,0,0,1-.78-.69,4.42,4.42,0,0,1,.63-3.32,3,3,0,0,1,1.52-1.14.6.6,0,0,0,.52-.68A3.25,3.25,0,0,1,17,26.44a4.34,4.34,0,0,1,1.08-.09c.64,0,1.28,0,2,0v-.48Q20,18,20,10.11a.5.5,0,0,0-.41-.56A3.47,3.47,0,0,1,17.23,6.5a.73.73,0,0,0-.61-.75C14,5,11.46,4.28,8.88,3.55L8.5,3.46c.07.16.1.28.16.39Q10.82,8.5,13,13.15c.08.16.27.27.37.44s.38.53.37.79A6.5,6.5,0,0,1,9.9,20.31a6.4,6.4,0,0,1-7-.68,6.47,6.47,0,0,1-2.67-5.3,1.47,1.47,0,0,1,.28-.68c.14-.23.37-.41.49-.65Q3.35,8,5.65,3.09c.06-.12.11-.25.18-.42l-1.9-.55A9.07,9.07,0,0,1,3,1.86a.84.84,0,0,1-.55-1A.81.81,0,0,1,3.44.26,10.12,10.12,0,0,1,4.49.53L17.24,4.2A.48.48,0,0,0,17.88,4a3.68,3.68,0,0,1,3.91-1.43,3.62,3.62,0,0,1,2.7,3.16.73.73,0,0,0,.64.77q6.63,1.87,13.26,3.79c.36.1.74.22.81.63a1.28,1.28,0,0,1-.18.81.77.77,0,0,1-.92.23c-.49-.13-1-.28-1.47-.42l-.43-.12a3.69,3.69,0,0,0,.17.41c1.44,3.1,2.88,6.2,4.35,9.29a5.14,5.14,0,0,0,.77.93ZM7,4.19,2.68,13.38h8.58ZM39,21.36l-4.3-9.19-4.29,9.19Zm.7,1.73h-10a5,5,0,0,0,5,4.18A5.09,5.09,0,0,0,39.7,23.09ZM2,15.1a5,5,0,0,0,9.92,0ZM28.4,33.79a1.73,1.73,0,0,0-1.9-2H15.23a2.59,2.59,0,0,0-.56.05,1.65,1.65,0,0,0-1.33,1.94Zm-2.69-3.7a1.74,1.74,0,0,0-.64-1.71A2,2,0,0,0,23.74,28H18a5.27,5.27,0,0,0-.56,0,1.66,1.66,0,0,0-1.39,2Zm-4.85-22a2,2,0,1,0-2-2A2,2,0,0,0,20.86,8.1Z"/></g></g></svg>