<svg xmlns="http://www.w3.org/2000/svg" viewBox="0 0 34.82 34.82"><defs><style>.cls-1{fill:#fff;}</style></defs><g id="Layer_2" data-name="Layer 2"><g id="Layer_1-2" data-name="Layer 1"><path class="cls-1" d="M6.6,34.82c-.56-.13-1.13-.22-1.68-.4A7.19,7.19,0,0,1,0,27.71Q0,14.6,0,1.5a1.45,1.45,0,0,1,2.9-.1c0,.14,0,.27,0,.41v25.6a4.31,4.31,0,0,0,2.16,3.91,4,4,0,0,0,2,.59h.55q12.68,0,25.36,0a1.72,1.72,0,0,1,1.85,1.15v.62a1.72,1.72,0,0,1-1.16,1.15Z"/><path class="cls-1" d="M34.82,1.7A2.93,2.93,0,0,1,34,2.88l-7.62,7.61a4.35,4.35,0,0,1-6.34,0l-3-3a1.4,1.4,0,0,0-1.52-.41,2.1,2.1,0,0,0-.75.5q-2.49,2.46-5,4.94a1.48,1.48,0,0,1-1,.52,1.39,1.39,0,0,1-1.37-.77,1.41,1.41,0,0,1,.14-1.57,2.62,2.62,0,0,1,.28-.3l4.92-4.92a4.35,4.35,0,0,1,6.37,0c1,1,1.95,1.95,2.93,2.93a1.46,1.46,0,0,0,2.29,0Q28.31,4.47,32.24.52a1.43,1.43,0,0,1,2.23,0,4.36,4.36,0,0,1,.35.72Z"/><path class="cls-1" d="M29,20.3V13.13a1.43,1.43,0,0,1,1.61-1.51,1.45,1.45,0,0,1,1.27,1.23,2.44,2.44,0,0,1,0,.27V27.5a1.44,1.44,0,0,1-2.88.21c0-.42,0-.84,0-1.26Z"/><path class="cls-1" d="M14.52,20.3c0-2.39,0-4.78,0-7.17a1.44,1.44,0,0,1,2.87-.28,2.45,2.45,0,0,1,0,.27V27.5a1.44,1.44,0,0,1-2.88.21c0-.42,0-.84,0-1.26Z"/><path class="cls-1" d="M21.76,23.21c0-1.45,0-2.9,0-4.35a1.44,1.44,0,0,1,2.74-.63,1.79,1.79,0,0,1,.15.72q0,4.28,0,8.53a1.45,1.45,0,0,1-2.87.38,2.12,2.12,0,0,1,0-.44Z"/><path class="cls-1" d="M7.25,23.21c0-1.45,0-2.9,0-4.35a1.43,1.43,0,0,1,1.17-1.42,1.41,1.41,0,0,1,1.57.79,1.79,1.79,0,0,1,.15.72q0,4.28,0,8.53a1.45,1.45,0,0,1-2.87.38,2.12,2.12,0,0,1,0-.44C7.25,26,7.25,24.62,7.25,23.21Z"/></g></g></svg>