<svg xmlns="http://www.w3.org/2000/svg" viewBox="0 0 42.75 42.77"><defs><style>.cls-1{fill:#fff;}</style></defs><g id="Layer_2" data-name="Layer 2"><g id="Layer_1-2" data-name="Layer 1"><path class="cls-1" d="M18.12,0h3c.8.12,1.6.21,2.38.38a19.42,19.42,0,0,1,12.36,8.3,61.58,61.58,0,0,1,4.72,8.43,26.91,26.91,0,0,1,2,5.19,3.47,3.47,0,0,1-2.9,4.39,10.23,10.23,0,0,1-1.12.06c-.15,1.09-.28,2.15-.44,3.21a8.9,8.9,0,0,1-7.73,7.38c-.63.07-1.27.08-1.92.11l0,.25a5.32,5.32,0,0,1-5.35,5.06q-6.23,0-12.45,0a5.25,5.25,0,0,1-5.2-4.22,12.63,12.63,0,0,1-.14-2.61,7.51,7.51,0,0,0-1.57-4.78,18.66,18.66,0,0,1-3.36-7.6C.24,22.64.14,21.71,0,20.8V18.37c0-.11.05-.23.07-.35.12-.81.19-1.63.35-2.43A19.59,19.59,0,0,1,15.59.42C16.43.25,17.28.14,18.12,0ZM39.18,23.16c-.06-.19-.1-.32-.15-.45A55,55,0,0,0,32.77,10.5,16,16,0,1,0,6.72,29.14a11.26,11.26,0,0,1,1.89,3.91,17.75,17.75,0,0,1,.31,4.24,1.75,1.75,0,0,0,1.89,1.9q6.12,0,12.24,0A1.77,1.77,0,0,0,25,37.28c0-.49,0-1,0-1.46a1.8,1.8,0,0,1,2-2c.9,0,1.81,0,2.71,0a5.29,5.29,0,0,0,5-4.44c.23-1.46.41-2.92.59-4.38a1.85,1.85,0,0,1,2.08-1.85Z"/><path class="cls-1" d="M24.5,13.63,26,12.77a1.65,1.65,0,1,1,1.65,2.85c-.43.25-.86.5-1.3.74a.29.29,0,0,0-.17.4,5.6,5.6,0,0,1,0,2.93.33.33,0,0,0,.19.43c.46.24.9.5,1.34.76a1.64,1.64,0,1,1-1.62,2.86L24.73,23a.41.41,0,0,0-.34,0c-.46.32-.88.71-1.36,1a16.36,16.36,0,0,1-1.58.7v1.73a1.66,1.66,0,0,1-1.63,1.74,1.68,1.68,0,0,1-1.67-1.71c0-.52,0-1,0-1.55a.31.31,0,0,0-.26-.35A6.65,6.65,0,0,1,15.28,23a.42.42,0,0,0-.38,0c-.46.23-.89.5-1.34.75a1.65,1.65,0,1,1-1.64-2.85c.43-.26.86-.51,1.3-.75.19-.1.26-.2.2-.42a5.6,5.6,0,0,1,0-2.93c.06-.22,0-.32-.2-.42l-1.34-.77a1.65,1.65,0,1,1,1.63-2.86c.53.29,1.05.6,1.59.91A7,7,0,0,1,18,11.92c.08,0,.15-.19.16-.29,0-.5,0-1,0-1.5a1.65,1.65,0,1,1,3.3,0c0,.49,0,1,0,1.47,0,.1.09.28.18.3A7.11,7.11,0,0,1,24.5,13.63Zm-1.41,4.62a3.29,3.29,0,1,0-3.33,3.27A3.28,3.28,0,0,0,23.09,18.25Z"/></g></g></svg>