<svg xmlns="http://www.w3.org/2000/svg" viewBox="0 0 31.97 39.25"><defs><style>.cls-1{fill:#fff;}</style></defs><g id="Layer_2" data-name="Layer 2"><g id="Layer_1-2" data-name="Layer 1"><path class="cls-1" d="M7.44,39.25a21.85,21.85,0,0,1-2.28-.61A8,8,0,0,1,0,31.32C0,26.25,0,21.17,0,16.1c0-2.59,0-5.18,0-7.77A8.13,8.13,0,0,1,6.88.12a7.91,7.91,0,0,1,6.19,1.51Q20.89,7.35,28.69,13.1a8.13,8.13,0,0,1-.11,13.13C23.44,30,18.28,33.81,13.12,37.59a8.14,8.14,0,0,1-4,1.59,1.42,1.42,0,0,0-.22.07ZM3.28,19.59c0,3.79,0,7.59,0,11.38a4.68,4.68,0,0,0,3,4.6,4.68,4.68,0,0,0,4.88-.63L26.5,23.71a4.9,4.9,0,0,0,0-8.13l-6.76-5L11.16,4.3a4.74,4.74,0,0,0-3.75-.95,4.79,4.79,0,0,0-4.12,4.9Q3.27,13.92,3.28,19.59Z"/></g></g></svg>