<svg xmlns="http://www.w3.org/2000/svg" viewBox="0 0 29.01 38.66"><defs><style>.cls-1{fill:#fff;}</style></defs><g id="Layer_2" data-name="Layer 2"><g id="Layer_1-2" data-name="Layer 1"><path class="cls-1" d="M26.65,38.66a2.26,2.26,0,0,1-1.53-2.47,10.27,10.27,0,0,0-5.93-9.95A10.58,10.58,0,0,0,4,34.34a10.43,10.43,0,0,0-.09,1.85,2.21,2.21,0,0,1-1.53,2.47H1.56A2.22,2.22,0,0,1,0,36.26a14.51,14.51,0,0,1,28.44-4.52A15.74,15.74,0,0,1,29,36.8a2,2,0,0,1-1.53,1.86Z"/><path class="cls-1" d="M14.53,17.39A8.7,8.7,0,1,1,23.2,8.77,8.7,8.7,0,0,1,14.53,17.39Zm4.8-8.66a4.82,4.82,0,1,0-4.81,4.81A4.83,4.83,0,0,0,19.33,8.73Z"/></g></g></svg>