<svg xmlns="http://www.w3.org/2000/svg" viewBox="0 0 74.85 32.63"><defs><style>.cls-1{font-size:16.4px;font-family:Meticula-ExtraBold;font-weight:800;letter-spacing:-0.04em;}.cls-1,.cls-2{fill:#003471;}.cls-3{fill:#06f;}</style></defs><g id="Layer_2" data-name="Layer 2"><g id="Layer_1-2" data-name="Layer 1"><text class="cls-1" transform="translate(29.74 24.96)">iClass</text><rect class="cls-2" x="5" y="1.45" width="7.47" height="7.47" rx="3.74"/><path class="cls-3" d="M19.33,30.76a3.73,3.73,0,0,1-5.1,1.36l-7-4A3.74,3.74,0,0,1,5,24.66V16.3a3.67,3.67,0,0,1,.66-2.11h0A3.66,3.66,0,0,1,7,12.89l7.24-4.18A3.74,3.74,0,0,1,18,15.18l-5.49,3.17v4.13L18,25.65A3.74,3.74,0,0,1,19.33,30.76Z"/><circle class="cls-3" cx="1.45" cy="1.45" r="1.45"/><circle class="cls-3" cx="16.02" cy="1.45" r="1.45"/></g></g></svg>