<svg xmlns="http://www.w3.org/2000/svg" viewBox="0 0 65.53 28.56"><defs><style>.cls-1{font-size:14.36px;font-family:Meticula-ExtraBold;font-weight:800;letter-spacing:-0.04em;}.cls-1,.cls-2{fill:#fff;}</style></defs><g id="Layer_2" data-name="Layer 2"><g id="Layer_1-2" data-name="Layer 1"><text class="cls-1" transform="translate(26.04 21.86)">iClass</text><rect class="cls-2" x="4.38" y="1.27" width="6.54" height="6.54" rx="3.27"/><path class="cls-2" d="M16.93,26.93a3.27,3.27,0,0,1-4.47,1.19L6.31,24.58a3.27,3.27,0,0,1-1.93-3V14.27A3.27,3.27,0,0,1,5,12.42H5a3.23,3.23,0,0,1,1.16-1.13l6.34-3.66a3.27,3.27,0,0,1,3.27,5.67l-4.81,2.77v3.62l4.81,2.78A3.28,3.28,0,0,1,16.93,26.93Z"/><circle class="cls-2" cx="1.27" cy="1.27" r="1.27"/><circle class="cls-2" cx="14.03" cy="1.27" r="1.27"/></g></g></svg>