<svg xmlns="http://www.w3.org/2000/svg" viewBox="0 0 318.56 508.45"><defs><style>.cls-1{fill:#fff;opacity:0.15;}.cls-2{fill:#22211f;}.cls-3{fill:#2e2e2c;}.cls-4{fill:#201f1d;}.cls-5{fill:#292929;}.cls-6{fill:#1b2930;}.cls-7{fill:#06f;}.cls-8{fill:#d65a30;}.cls-9{fill:#e55028;}.cls-10{fill:#fdfdfd;}.cls-11{fill:#f7f8f7;}.cls-12{fill:#381e15;}.cls-13{fill:#101010;}.cls-14{fill:#fcfcfc;}.cls-15{fill:#fefefe;}</style></defs><g id="Layer_2" data-name="Layer 2"><g id="Layer_1-2" data-name="Layer 1"><path class="cls-1" d="M72.41,222.38c4.47-1,8.79-2.65,13.38-3.18.53-.06,1.06-.1,1.6-.15a.48.48,0,0,1,0,.33,3.68,3.68,0,0,0-1.31,2.39l.05.09,0-.1A15.37,15.37,0,0,0,83,227.2a.22.22,0,0,0-.1.26,9.59,9.59,0,0,0-2,4.22h0a52.18,52.18,0,0,0-5.41,16.48l-.16.82c-1.55,6.83-1.39,13.72-.81,20.63,0,.4.36.54.64.72l0,0-.08.79a.74.74,0,0,0-.31.89c.68,3.69,1.31,7.39,2.35,11,4.65,16.26,13.21,30.21,24.92,42.31a10.53,10.53,0,0,1,2.35,3.55A116.92,116.92,0,0,0,114,348.05a118.83,118.83,0,0,0,23.72,27.79c3.42,2.94,7.4,5.16,10.53,8.46a173.65,173.65,0,0,0,22.76,20,212,212,0,0,0,57.31,30.53c14.81,5.11,30,8.36,45.71,8.75,2.74.07,2.75.06,2.75,2.91q0,29,0,58.07c0,1.3-.08,2.6-.12,3.89-16.28.08-31.26-4.48-45.24-12.65-11.17-6.53-20.84-15-30.15-23.85-8.61-8.21-16.67-17-26-24.43-5.21-4.16-10.68-8-17.22-9.67-11.87-3.08-22.87-.48-33.17,5.75-7.53,4.55-13.78,10.74-20.58,16.23s-13.85,9.73-22.18,12.05c-14.21,4-27.15,1.21-39.07-7.23-12.56-8.9-21.36-20.82-27.87-34.58C6.9,412.54,3,393.89,1.19,374.71A242.28,242.28,0,0,1,.06,345.83,166.36,166.36,0,0,1,7.82,300.1a152.93,152.93,0,0,1,16.29-36c10.54-16.76,23.84-30.59,42.12-39,.77-.36,1.51-1,2.47-.73a2.48,2.48,0,0,1-.3,1.58,104.69,104.69,0,0,0-6.62,20.44c-3.41,16.08-2.85,31.92,2.79,47.45A63.71,63.71,0,0,0,68.12,302c.29.56.59,1.16,1.38.81a1.18,1.18,0,0,0,.6-1.71c-.15-.39-.35-.75-.53-1.12-8.11-17-9.5-34.74-5.65-53A110.15,110.15,0,0,1,72.41,222.38ZM70.05,455.52c6.65-.12,11.42-5.2,11.27-12-.13-6.36-5.42-11.2-12.06-11.06-6.31.14-11.1,5.44-11,12.13A11.36,11.36,0,0,0,70.05,455.52Zm8.16-141.27c-.3-.72-.63-1.51-1.59-1.56-.8-.05-1.05.53-1,1.22.1.87.49,1.62,1.48,1.62C77.8,315.53,78.18,315,78.21,314.25Z"/><path class="cls-2" d="M188.37,339.33h0Zm-24.09-5.72,0,0h0Zm-10.7,11h0Zm-40.27-9.06h0ZM97.79,317.45h0v0Zm-2.5-3.25h0Z"/><path class="cls-3" d="M314.62,317.67a24.37,24.37,0,0,0-6-2.52c-4.75-1.3-9.5-2.55-14.24-3.89-.65-.19-1.68-.15-1.78-1.07s.66-1.33,1.28-1.74c2-1.26,4-2.38,5.89-3.72a10.2,10.2,0,0,0,3.53-12.06c-1.32-3.32-4.13-4.47-7.27-2.82a24.71,24.71,0,0,1-8.26,2.25,52.35,52.35,0,0,0-6.87,1.13c-1.85.53-1.95-.13-1.95-1.65,0-12.91,0-25.82,0-38.74-.54-.28-1.06-.6-1.59-.86a3.75,3.75,0,0,1-.84-.59h0a3.72,3.72,0,0,1-1-.42h0l-.16-.1a80.21,80.21,0,0,1-12.64-5.34,1.57,1.57,0,0,1-.82-1.87c.18-1.22.3-2.43.45-3.66-.07-4.84.8-9.6,1.09-14.42.43-7.27,1-14.56.18-21.86-.22-2-.37-4.09-.39-6.09a71.3,71.3,0,0,0-1.39-11.33,86.78,86.78,0,0,0-2.47-9.13c-.39-1.41-2-1.32-2.87-2.11-.59-.5-1.6-.56-1.55-1.66-1.76-.89-.76-2.65-1.13-4a42.35,42.35,0,0,1-1.42-9.34c0-1-.41-2.07-1.85-1.88.7,4.53,1.76,9,2.08,13.6.33.34.38.71,0,1s-.48,0-.62-.25a28.56,28.56,0,0,0-6.5-1.9c-.28,1.15.41,1.7,1.36,1.76,1.77.13,3.25,1.21,5,1.45.66.09,1.32.33,1.4,1.19a5.81,5.81,0,0,0,.92.42c2.73.74,4.2,2.37,4.92,5.24a120.51,120.51,0,0,1,3.3,28.43,171.82,171.82,0,0,1-2.87,35.07c-.32,1.54.39,2.25,1.6,2.89a76,76,0,0,0,13.77,5.8,2.27,2.27,0,0,1,1.93,2.58q-.1,18.67,0,37.34a2.57,2.57,0,0,1-1.65,2.68c-3.06,1.58-6.07,3.21-9.69,2.75-2.4-.31-4.55-1.43-6.76-2.3A221.85,221.85,0,0,1,203,264.24a3.31,3.31,0,0,1-1.48-3.1,37.64,37.64,0,0,0-.26-6.95,2.89,2.89,0,0,0-1.86-2.41,134.66,134.66,0,0,1-22-13.07c-.66-.49-1.43-1.15-2.12-.21s.21,1.57.92,2.08A151.85,151.85,0,0,0,194.91,252c.67.33,1.31.69,2,1-.18,1-1,1-1.52,1.31-10,5.3-18.3,12.63-25.9,20.86a3.94,3.94,0,0,0-.39.7,2.29,2.29,0,0,1-1.94,2.23l0,0c-.76,1.64-1.09,3.63-3.32,4.06a.19.19,0,0,0-.07.21,7.64,7.64,0,0,1-3.71,5.06c.16,1,0,1.69-1.22,1.62a23.87,23.87,0,0,1-2.11,4.48,17.75,17.75,0,0,1-3.14,3.82c.32,1.38-.64,2.38-1.26,3.33-1.44,2.27-2,5.07-4.09,6.92-.08,3.11-2,5.61-2.92,8.41-1.33,3.89-2.6,7.79-3.56,11.78a64.34,64.34,0,0,0-1.71,18,12.35,12.35,0,0,0,.3,2.82c.71,2.62.38,2.92-2.35,2.54,0,.29,0,.59,0,.88a.12.12,0,0,0,.18.05,11.63,11.63,0,0,1,4.44,1.3.43.43,0,0,0,.31-.16c.77-1.32,1.66-2.47,3.4-2.44l.35-.27c0-.47.36-.59.76-.6l.43-.37c.13-1,.59-1.67,1.74-1.56h0a1.44,1.44,0,0,1,1.6-1.28l.43-.41h0a.4.4,0,0,1,.42-.39l0,0c-.15-1.25.64-1.35,1.58-1.29h0a3.82,3.82,0,0,1,3.18-2.95h0c.06-1.13.45-1.95,1.75-1.93a11.92,11.92,0,0,1,5.26-5.41c0-.36,0-.68.48-.74a.38.38,0,0,1,.42-.4l.05,0c-.05-1.86,1.39-2.09,2.49-1.7,4,1.45,8.15,2.56,11.93,4.63.1.06.15.22.23.33h.16c3.25,0,6,1.57,8.81,2.84h0c2.87.44,5.85.51,8.24,2.53l.85.22c.93-.7,1.49-.12,2,.59l.84.2c.36-.45.61-.27.8.16l.88.2c1.49-.78,2.74.38,4.07.62,2.21.4,4.51.58,6.54,1.7l.86.18c.48-.46.89-.42,1.19.2l.89.16c1.48-.56,2.76,0,4,.68l1.28.18a6.82,6.82,0,0,1,5.29.76l1.26.09c.47-.47.88-.46,1.2.16a2.68,2.68,0,0,0,1.7.19c1.11-.29,2.23-.72,3.22.3a4.17,4.17,0,0,0,2.1.15c1.39-.34,2.79-.84,4.05.31l2.1.11c2.8-.74,5.64-.17,8.46-.3a30.19,30.19,0,0,1,4.46.16c.41,0,1.24,0,1.22.77a1.06,1.06,0,0,1-1,1.09l0,0c0,.34-.1.63-.5.69v0l-.46.41a1.69,1.69,0,0,0-1.16,1.17c0,.39-.31.52-.64.56a.41.41,0,0,0-.18.28c.06.9-.37,1.33-1.27,1.28l-2,2-.41.48h0l-.41.41c-.09.38-.39.46-.72.48l0,0c.05.85-.32,1.27-1.2,1.2l0,0a2.27,2.27,0,0,1-2.17,1.94l-1.11,1a.72.72,0,0,1-.82.74c-4.1,3.06-8,6.35-12.27,9.2-12.42,8.35-25.7,14.65-40.46,17.7a48.19,48.19,0,0,1-34-5.21c-18.39-10.11-31.85-25-42-43.14-1.42-2.54-2.77-5.12-4.16-7.69-.86,0-.85-.72-1-1.24-.33-.86-.14-1.76.78-1.9s1.06.73,1.05,1.52a3.87,3.87,0,0,1,3.68,2.88h0c.78-.06,1.66-.07.7-1.17-.35-.4-.73-.76-.67-1.35l-.43-.37c-1.62,0-2.4-1.08-2.87-2.48a2.92,2.92,0,0,0-1.26-1.2,12.25,12.25,0,0,1-6-5.86l-.09.09.09-.1c-1.24.15-1.35-.63-1.31-1.55a2.34,2.34,0,0,1-2.1-2.41v0a.73.73,0,0,1-.77-.85c-.58,0-.85-.27-.78-.86L97.4,317c-.42-.08-.49-.4-.48-.76a1.7,1.7,0,0,1-1.63-2.06c-.83,0-.86-.59-.86-1.18v0c-2.56-1.31-3.55-3.72-4.4-6.24-2.27-1.38-2.88-3.93-4.09-6-.73-1.26-1.76-2.57-1.64-4.23a1.6,1.6,0,0,1-.82-1.82c0-.2-.09-.39-.14-.58-1.3-.75-1.47-2.2-2-3.39a92.35,92.35,0,0,1-4.45-15.32,13.83,13.83,0,0,1-.12-1.83c.43-1.94-.79-3.78-.37-5.72a2.5,2.5,0,0,1-.15-2.87c0-2.47,0-5,0-7.43-.45-1-.71-2,.18-2.87v-2.82l-.51,0c-1.14,1-.73,2.39-.73,3.63,0,3.25-.67,6.46-.52,9.73.08,1.71,1.06,3.35.43,5.12.21.11.6.21.61.34,0,.48-.38.41-.69.44a.76.76,0,0,0-.31.9c.68,3.69,1.31,7.39,2.35,11,4.65,16.26,13.21,30.21,24.92,42.31a10.48,10.48,0,0,1,2.35,3.55A116.92,116.92,0,0,0,114,348.05a118.8,118.8,0,0,0,23.72,27.79c3.42,2.94,7.41,5.16,10.52,8.47a175.06,175.06,0,0,0,22.77,20,212,212,0,0,0,57.31,30.53,150.74,150.74,0,0,0,45.71,8.75,7.33,7.33,0,0,1,2.05.19,4.68,4.68,0,0,1,2.08.39h0a5.51,5.51,0,0,1,.7.06q0-17.28,0-34.56,0-30.07,0-60.14c0-1.62.6-1.95,2-1.94,2.26.05,4.52.06,6.77-.11,8.56-.66,16.58-2.87,23.23-8.62,4.05-3.5,6.89-7.77,7.58-13.21A7.57,7.57,0,0,0,314.62,317.67Zm-64,108.68c-.17.68-.53,1.37-1.42,1.07-.72-.24-.75-.85-.58-1.53,2.4-9.87.1-19.24-3.17-28.47a60.4,60.4,0,0,0-11.06-19.7c-.5-.58-1.13-1.22-.35-1.93.93-.83,1.45.08,2,.67,5.42,6.23,9,13.47,11.79,21.16a63.33,63.33,0,0,1,3.88,20.93A29.74,29.74,0,0,1,250.62,426.35Zm65.59-99.88c-1.28,6-5.14,10.12-10.14,13.32A35.06,35.06,0,0,1,288,345.27c-10.39.3-20.7,1.66-31.1,1.88a207.12,207.12,0,0,1-58.63-6.95c-1.54-.41-3.09-.75-4.64-1.12-.47.21-.88.24-1.16-.3l-.83-.23c-1.35.55-2.24-.43-3.27-1A345.56,345.56,0,0,1,147,320.75c-1-.5-1.49-.9-1-2.16,9-24,23.32-44.08,44.55-58.89,1.36-.95,2.16-1,3.48.12,14.16,11.6,29.14,21.95,45.6,30.06q11.25,5.52,23,9.89a11.23,11.23,0,0,0,9.74-.56A44.62,44.62,0,0,1,291,293.72a16.38,16.38,0,0,0,6-2c1.9-1,3.23-.46,4.16,1.48a8,8,0,0,1-2.58,9.71c-1.65,1.2-3.48,2.15-5.21,3.24a6.65,6.65,0,0,0-3,3.5c-.49,1.46-.25,2.39,1.4,3,4.76,1.74,9.73,2.74,14.61,4.08a31.58,31.58,0,0,1,6.34,2.29C316,320.75,317,322.85,316.21,326.47Z"/><path class="cls-4" d="M86.14,221.77h0l.05.09Z"/><path class="cls-1" d="M276.76,130.29c.08.14.16.29.25.43s0,.29,0,.43c0,1.23-.1,2.46-.1,3.68q0,56.49,0,113c0,.68,0,1.37,0,2.05,0,1-.47,1.38-1.43,1.06a80.55,80.55,0,0,1-12.82-5.4,1.55,1.55,0,0,1-.8-1.87c.17-1.22.29-2.44.43-3.66a9.41,9.41,0,0,0,.36-1.36c.64-4.46,1-8.94,1.38-13.43,1.09-14.22.73-28.36-2.24-42.36-.86-4.07-1.65-8.28-6.69-9.4l-.2-.05h0a131.43,131.43,0,0,0-3.45-20.17c-1.31-5.65-3.11-11.16-4.77-16.72,6.19-2.87,12.77-4.3,19.46-5.34A87.74,87.74,0,0,1,276.76,130.29Z"/><path class="cls-1" d="M126.37,477.06a22.19,22.19,0,1,1,22,22.17A22.23,22.23,0,0,1,126.37,477.06Z"/><path class="cls-5" d="M158.43,74.91c-.48.42-.48,1.38-1.43,1.28A16.44,16.44,0,0,0,149.32,70a25.88,25.88,0,0,1-6.77-4.55,73.68,73.68,0,0,0-9.33-6.3c-3-1.82-4.4-4.68-3.79-7.77a7.51,7.51,0,0,1,6.1-6.18,17.23,17.23,0,0,1,9.09.58c1,.31,2,.68,3.26,1.09a55.92,55.92,0,0,1-.84-9.58,28.28,28.28,0,0,1,2.38-11.14c2.15-4.51,5.19-6.12,10.13-5.21a43.51,43.51,0,0,1,14.38,5.76c10.33,6.14,18.85,14.1,23.59,25.37,1.46,3.49,3.9,6,6.18,8.79a247,247,0,0,1,42.12,73.65,15.69,15.69,0,0,1,.41,1.57l-1.83.41a5.44,5.44,0,0,1-.27-.54,246.14,246.14,0,0,0-42.58-74.34c-1.6-1.93-3.85-3.44-4.73-5.85a48.2,48.2,0,0,0-14.56-20.49c-6.9-5.86-14.48-10.54-23.54-12.25-3.4-.64-5.06.2-6.89,3.11a13.33,13.33,0,0,0-1.5,3.36c-1.72,5.94-1.41,11.89-.07,17.85.18.82.82,1.77-.14,2.45s-1.55-.18-2.27-.49c-3.35-1.44-6.75-2.66-10.5-2.28-3.08.31-5.27,2.06-5.82,4.64-.49,2.33.65,4.32,3.34,6a62,62,0,0,1,8.65,5.86,35,35,0,0,0,8.23,5.31A13.88,13.88,0,0,1,158.43,74.91Z"/><path class="cls-6" d="M72.41,222.38a110.15,110.15,0,0,0-8.49,24.53c-3.85,18.28-2.46,36,5.65,53,.18.37.38.73.53,1.12a1.18,1.18,0,0,1-.6,1.71c-.79.35-1.09-.25-1.38-.81a63.71,63.71,0,0,1-3.55-8.07c-5.64-15.53-6.2-31.37-2.79-47.45A104.69,104.69,0,0,1,68.4,226a2.48,2.48,0,0,0,.3-1.58c2.18-2.92,3.33-6.4,5.22-9.48a87.65,87.65,0,0,1,6.16-9.19c.52-.65,1-1.78,2.09-1s.13,1.56-.4,2.24A84.43,84.43,0,0,0,72.41,222.38Z"/><path class="cls-5" d="M164.94,4.66a57.33,57.33,0,0,1,17.54,5.94,66,66,0,0,1,15.87,11.86l.7.75c.44.51.68,1.05.13,1.63s-1.22.29-1.75-.21c-1.8-1.68-3.52-3.45-5.4-5a58.19,58.19,0,0,0-26.7-12.75c-.77-.15-1.61-.21-1.55-1.23A1,1,0,0,1,164.94,4.66Z"/><path class="cls-6" d="M244.4,136.47l1.83-.41.46.45c1.66,5.56,3.46,11.07,4.77,16.72a131.43,131.43,0,0,1,3.45,20.17c-1.77-.89-.77-2.66-1.14-4a43.13,43.13,0,0,1-1.42-9.35c0-1-.41-2.07-1.85-1.88C248.79,150.87,246.71,143.64,244.4,136.47Z"/><path class="cls-5" d="M204.81,9.48a1.06,1.06,0,0,1-.64,1c-.72.35-1.16-.17-1.6-.58a55.5,55.5,0,0,0-9-6.7c-.64-.39-1.32-.7-2-1.08s-1-.81-.61-1.51A1.07,1.07,0,0,1,192.58.2c1.31.72,2.65,1.41,3.9,2.22a55.78,55.78,0,0,1,7.41,5.77C204.28,8.55,204.77,8.85,204.81,9.48Z"/><path class="cls-4" d="M129.74,86.44a8.89,8.89,0,0,0-7.36,4.49c-.35.6-.48,1.2-1.48.88-7.46-2.39-13.3-8.68-13.41-14.75,0-1.8-.71-2.15-2.38-1.45a18.11,18.11,0,0,0-8.11,7,28.36,28.36,0,0,0-5,14.23c-.22,0-.31.06-.35,0a6.29,6.29,0,0,1-.67-.48c-4.54-4.09-5.79-9.22-4.79-15.08.12-.69.7-1.52-.12-2.08s-1.44.16-2.06.52a24.53,24.53,0,0,0-8.94,9.12c-5.65,9.45-7.69,19.8-7.38,30.68.33,12.07,3.73,23,12.21,32a2.12,2.12,0,0,1,.42,2.39,48.22,48.22,0,0,0,15.35,50.61c.74.62,1.59,1,.58,2.21-3.26,3.87-6,8.14-8.86,12.3a.48.48,0,0,1,0,.33c-.12,1,.11,2.13-1.3,2.39l0,.09,0-.08c-.06,2.38-1.57,3.92-3.14,5.43a.2.2,0,0,0-.1.24c.14,1.81.17,3.55-2,4.23h0a6,6,0,0,1-.77,3.73c-1.72,3.24-2.32,6.87-3.33,10.36-.25.87-.19,2-1.3,2.38,0,.27-.11.55-.17.82a3.78,3.78,0,0,1,.68,2.85l.51,0c.88-.78.67-1.89.86-2.86a83,83,0,0,1,11-27.22,4.14,4.14,0,0,0,.91-1.81,2.65,2.65,0,0,1,2-3v0a1.65,1.65,0,0,1,1.38-2l.29-.37c-.05-.64-.16-1.31.82-1.27v0a.67.67,0,0,1,.7-.87.32.32,0,0,0,.13-.28c.13-.16.27-.32.4-.49s.23-.33.35-.5c0-.86.15-1.55,1.21-1.58l0,0a2.84,2.84,0,0,1,2.41-2.81,1.18,1.18,0,0,1,1.62,1.25c.17.11.36.22.53.34,1.16-.12,2,.5,2.93,1.07a75.86,75.86,0,0,0,7.12,3.36c.37.17.81.18,1,.65l.85.23a4.37,4.37,0,0,1,4.07,1.06l.87.12c1.39-.92,2.73.21,4.12.12,3.37-.22,6.75.29,10.12-.29.3-.05.41.28.46.56l.9,0c1.86-.23,3.06,1.3,4.63,1.83.7.23,1.85.29,1.88,1.51l.64.18c1.57-.18,2.89.67,4.25,1.17a47.22,47.22,0,0,0,14.34,2.85,6.71,6.71,0,0,0,3.68-.84.36.36,0,0,0,.15-.29c-.07-.63-.18-1.3.79-1.3v0a2.74,2.74,0,0,1,.88-2.07.13.13,0,0,0,0-.21,57.81,57.81,0,0,0,1.1-14.85,3.12,3.12,0,0,1,.29-.93c0-.28,0-.57-.07-.86-1.43-1.51-1-3.52-1.37-5.32-.09-.46.49-.77,1-.84a.45.45,0,0,0,.19-.32l.33-.48a.31.31,0,0,0,.12-.27c-.09-.69-.18-1.38.88-1.3l.3-.43a2.62,2.62,0,0,1,1.58-2.92.42.42,0,0,0,.1-.32c-.09-.62-.18-1.24.72-1.32l.41-.86c-1-1,.22-1.62.48-2.3.89-2.41,1.48-4.88,2.16-7.35.18-.68.25-1.51,1.07-1.85.08-.64-.27-1.52.85-1.6a.22.22,0,0,0,.06-.28c-.07-.4-.06-.76.41-.93.12-.14.23-.29.34-.43.09-.63.24-1.09.84-.3l1.6-.23c0-.26,0-.71.16-.74,1.58-.37,3.15-1.06,4.8-.28l1.2-.13c.3-1,.71-1.08,1.22-.14l.83-.12c1-1.54,2.74-1,4.11-1.27,1.76-.4,3.66.06,5.47-.47a.78.78,0,0,1,1.08.64,6.29,6.29,0,0,0,3.3-.25,3.88,3.88,0,0,1,2.82-.83,1.53,1.53,0,0,0,1.75-1,25.91,25.91,0,0,0-6.22.21,2,2,0,0,1-2.43.12,7.47,7.47,0,0,0-2.9.27,1,1,0,0,1-1.61.15l-2.5.27a.69.69,0,0,1-1.2.13,2.46,2.46,0,0,0-1.66.24c-.34.55-.75.61-1.21.15a4.34,4.34,0,0,0-2.08.31c-.22.38-.48.48-.8.1a1.7,1.7,0,0,0-1.24.23c-.21.46-.46.64-.82.14a2.77,2.77,0,0,0-1.65.33c-.22.41-.47.5-.8.12-1.11.16-1.2-.26-.9-1.24a67.24,67.24,0,0,0,2.66-14.06c1.12-13.89-1.56-26.92-8.76-38.92a13.57,13.57,0,0,1-1.58-4.8,172,172,0,0,0-7.42-29.14,24.09,24.09,0,0,0-3.34-6.76c-.48.43-.47,1.39-1.43,1.29,4,8.34,9.68,28.26,9.08,32.28-2.38-2.87-4.59-5.69-7.14-8.23-5.07-5-10.52-9.48-17.33-12-.5-.15-.48-.19-1.1-.37l0,0a18.24,18.24,0,0,0-9.1-1.55m35.06,22.31.1.12a.69.69,0,0,0,0,.13l-.17-.14Zm-2.55,105.67a25,25,0,0,1-.89,3.15c-1.34,3.74-1.67,4-5.58,3.66a53,53,0,0,1-20.69-6.44,49.84,49.84,0,0,0,26.81-16.46C164.42,203.85,165,209.05,163.89,214.28Zm7.77-39c-5.35,30.58-37.57,47-65.53,33.59-18.74-9-29.25-30.8-24.65-51.13.63-2.74,1.82-3.82,4.65-4,2.35-.17,4.67-.09,6.63,1.51.58.48,1.18.81,1.73,0s0-1.27-.53-1.75c-1.65-1.43-3.67-1.74-5.73-1.91a22.42,22.42,0,0,0-5,.44,43.69,43.69,0,0,1,9.21-15.33A45.58,45.58,0,0,1,126,121.58c1.32,0,1.9.26,2.08,1.71.65,5.18,2.92,9.78,5.56,14.21.12.17.22.36,0,.49,0,0-.19-.13-.29-.19-2.9-.43-5.75-1.17-8.72-1.06a17.9,17.9,0,0,0-4.06.5c-.71.19-1.35.53-1.13,1.4s.91.84,1.64.68c4.71-1,9.23-.13,13.7,1.34a6.61,6.61,0,0,1,3,2.06,47.48,47.48,0,0,0,16.51,12.57c1.42.64,2.19.8,2.19-1.2a10.29,10.29,0,0,1,1.36-4.9c2-3.81,5.72-4.53,9-1.68,3.08,2.64,4.61,6.2,5.57,10.06C173.88,163.53,172.67,169.46,171.66,175.26Z"/><path class="cls-7" d="M70.05,455.52a11.36,11.36,0,0,1-11.74-10.94c-.15-6.69,4.64-12,11-12.13,6.64-.14,11.93,4.7,12.06,11.06C81.47,450.32,76.7,455.4,70.05,455.52Z"/><path class="cls-6" d="M75.31,249a3.77,3.77,0,0,1,.66,2.85c-1.13,1-.72,2.38-.72,3.63,0,3.25-.67,6.46-.52,9.73.08,1.72,1.07,3.37.41,5.14-.28-.18-.61-.32-.64-.72C73.92,262.69,73.76,255.8,75.31,249Z"/><path class="cls-6" d="M80.88,231.67a5.9,5.9,0,0,1-.78,3.73c-1.72,3.25-2.33,6.88-3.33,10.37-.25.87-.19,2-1.3,2.38A52.18,52.18,0,0,1,80.88,231.67Z"/><path class="cls-6" d="M78.21,314.25c0,.77-.41,1.28-1.09,1.28-1,0-1.38-.75-1.48-1.62-.07-.69.18-1.27,1-1.22C77.58,312.74,77.91,313.53,78.21,314.25Z"/><path class="cls-6" d="M86.14,221.76c0,2.39-1.56,3.94-3.14,5.44A15.37,15.37,0,0,1,86.14,221.76Z"/><path class="cls-6" d="M82.9,227.46c.15,1.8.17,3.55-2,4.22A9.59,9.59,0,0,1,82.9,227.46Z"/><path class="cls-6" d="M87.44,219.38c-.11,1,.11,2.14-1.31,2.39A3.68,3.68,0,0,1,87.44,219.38Z"/><path class="cls-4" d="M75.16,270.3c.21.11.6.21.61.34,0,.47-.38.41-.69.45Z"/><path class="cls-8" d="M98.57,318.3h0Z"/><path class="cls-9" d="M276.8,255.5a2.27,2.27,0,0,0-1.93-2.58,76,76,0,0,1-13.77-5.8c-1.21-.64-1.92-1.35-1.6-2.89a171.82,171.82,0,0,0,2.87-35.07,120.51,120.51,0,0,0-3.3-28.43c-.72-2.87-2.19-4.5-4.92-5.24a5.81,5.81,0,0,1-.92-.42,117.29,117.29,0,0,0-18-4.32c-5.72-.88-11.49-1.29-17.25-1.79a13,13,0,0,1-1.38-.28,4.92,4.92,0,0,1-2.38.06,3,3,0,0,1-1.93,0l-1.4,0a6.31,6.31,0,0,1-3.17,0,2.87,2.87,0,0,1-1.69.11l-.74,0-5,.17a6.29,6.29,0,0,1-3.3.25l-10.66,1.1-.83.12-1.22.14-1.2.13a9.87,9.87,0,0,1-3.48.71l0,.1,0-.07a2,2,0,0,1-1.4.28l-1.6.23-.84.3c-.11.14-.22.29-.34.43l-.41.93a.22.22,0,0,1-.06.28,2.24,2.24,0,0,1-.57,1.62c-1.43,3.79-1.87,7.93-4,11.48l-.41.86a1.25,1.25,0,0,1-.72,1.32.42.42,0,0,1-.1.32,5.27,5.27,0,0,1-1.58,2.92l-.3.43a1.67,1.67,0,0,1-.88,1.3.31.31,0,0,1-.12.27l-.33.48a.45.45,0,0,1-.19.32c-.72,2.1.73,4.08.37,6.16,0,.29,0,.58.07.86a34.84,34.84,0,0,1-.39,13.61c-.18.77-.23,1.65-1,2.17a.13.13,0,0,1,0,.21c-.07.78-.07,1.59-.88,2.07v0a1.27,1.27,0,0,1-.79,1.3.36.36,0,0,1-.15.29,1.73,1.73,0,0,1-1.84,1.55,48.64,48.64,0,0,1-20-4.28c-.17-.08-.28-.3-.41-.45l-.64-.18a23.48,23.48,0,0,1-6.51-3.34l-.9,0c-.79.75-1.8.46-2.7.45-4,0-8.08.52-12-.84l-.87-.12a7.39,7.39,0,0,1-4.07-1.06l-.85-.23a28.16,28.16,0,0,1-11-5.08c-.17-.12-.36-.23-.53-.34-2.08-1.38-2.82.72-4,1.56l0,0a2.19,2.19,0,0,1-1.21,1.59l-.35.49c-.13.17-.27.33-.4.49a.32.32,0,0,1-.13.28.85.85,0,0,1-.7.87v0a1.42,1.42,0,0,1-.82,1.27l-.29.37a3.14,3.14,0,0,1-1.38,2v0c-.21,1.3-1.16,2.11-2,3a4.14,4.14,0,0,1-.91,1.81,83,83,0,0,0-11,27.22c-.19,1,0,2.08-.86,2.86v2.82l-.18,2.87c0,2.47,0,5,0,7.43l.15,2.87c-.42,1.94.8,3.78.37,5.72.29.17.62.28.68.69,1,6.88,3.41,13.37,5.84,19.85,0,.19.09.38.14.58a1.92,1.92,0,0,1,.82,1.78A106.42,106.42,0,0,1,90,306.75a33.22,33.22,0,0,1,4.4,6.25v0a1.42,1.42,0,0,1,.87,1.18,4.1,4.1,0,0,1,1.62,2.05.84.84,0,0,1,.5.78l0,0,.4.44v0a1,1,0,0,1,.78.87h0a1.13,1.13,0,0,1,.77.85v0a5.61,5.61,0,0,1,2.1,2.4,2.73,2.73,0,0,1,1.31,1.56l-.09.1.09-.09a42.22,42.22,0,0,1,6,5.86,2.92,2.92,0,0,1,1.26,1.2,7.48,7.48,0,0,1,2.87,2.48l.43.37a12.81,12.81,0,0,1,3.76,3.19l0,0a1.9,1.9,0,0,1,1.73,1.27.26.26,0,0,1,.25.11c.73,0,1.09.55,1.41,1.11a.28.28,0,0,1,.24.11,12.65,12.65,0,0,1,3.82,2.77.34.34,0,0,1,.27.15,6.12,6.12,0,0,1,2.66,1.81,21.35,21.35,0,0,1,5.28,3.32,16.09,16.09,0,0,1,5,2.9.29.29,0,0,1,.25.1c1.84.82,1.81-.26,1.67-1.6-1.52-14.35,2.48-27.57,8.3-40.41a1.53,1.53,0,0,1,.27-.3,45.61,45.61,0,0,1,5.35-10.24,33.77,33.77,0,0,1,5.25-8.3h0a2.34,2.34,0,0,1,1.23-1.65v0a12.76,12.76,0,0,1,3.71-5.06.19.19,0,0,1,.07-.21,12.79,12.79,0,0,1,3.32-4.06l0,0a4.12,4.12,0,0,1,1.94-2.23,3.94,3.94,0,0,1,.39-.7c7.6-8.23,15.94-15.56,25.9-20.86.55-.3,1.34-.35,1.52-1.31-.65-.34-1.29-.7-2-1a151.85,151.85,0,0,1-18.7-11.41c-.71-.51-1.71-1-.92-2.08s1.46-.28,2.12.21a134.66,134.66,0,0,0,22,13.07,2.89,2.89,0,0,1,1.86,2.41,37.64,37.64,0,0,1,.26,6.95,3.31,3.31,0,0,0,1.48,3.1A221.85,221.85,0,0,0,258.69,296c2.21.87,4.36,2,6.76,2.3,3.62.46,6.63-1.17,9.69-2.75a2.57,2.57,0,0,0,1.65-2.68Q276.72,274.16,276.8,255.5ZM142.3,287.84c-1.66,2.9-3.44,5.74-5,8.72-5,9.82-8.45,20.14-9.34,31.21-.06.68-.19,1.35-.26,2s-.16,1.63-1.2,1.51-.92-.87-.92-1.58v-.87a84.57,84.57,0,0,1,7.19-28,99.12,99.12,0,0,1,7.1-13.39,8.4,8.4,0,0,1,.53-.87c.42-.54.82-1.22,1.66-.72S142.69,287.15,142.3,287.84Zm9.91-14.08a7.81,7.81,0,0,1-2.45,3.17c-.58.47-1.18.14-1.44-.55-.36-1,2-4,3-3.92C152,272.6,152.46,273.13,152.21,273.76Zm37.71-63.67c-.84-.08-1.87-.21-2-1.27-.13-.78.51-1.24,1.26-1.22s1.61.25,1.79,1.13C190.87,209.51,190.69,210.17,189.92,210.09Zm22.65-29.66a127.59,127.59,0,0,1,16.11,1,77.3,77.3,0,0,1,18,3.76c.74.26,1.66.36,1.68,1.54-.28,1.18-1.08,1.12-2,.78a64.6,64.6,0,0,0-10.9-2.72,153.86,153.86,0,0,0-21.54-2c-.54,0-1.08,0-1.64,0-.73,0-1.43-.28-1.41-1.14C210.83,180.49,211.68,180.44,212.57,180.43Zm39.63,62c-.2.75-.84.8-1.64.68A31.86,31.86,0,0,1,245,240.8c-9.6-5-18.62-10.88-27.89-16.4-5.45-3.25-11-6.37-16.47-9.56-.78-.45-2-.76-1.28-2.05.67-1.12,1.52-.34,2.29.06,10.3,5.37,20,11.75,30,17.69,6.27,3.74,12.46,7.64,19.29,10.36C251.66,241.17,252.47,241.43,252.2,242.45Z"/><path class="cls-10" d="M188.4,337.58A345,345,0,0,1,147,320.75c-1-.49-1.49-.9-1-2.16,9-24,23.32-44.08,44.55-58.89,1.35-.95,2.16-1,3.48.12,14.16,11.6,29.14,22,45.6,30.05a249.1,249.1,0,0,0,23,9.9,11.23,11.23,0,0,0,9.74-.56A44.42,44.42,0,0,1,291,293.73a16.46,16.46,0,0,0,6-2c1.9-1,3.23-.46,4.16,1.48a8,8,0,0,1-2.58,9.71c-1.65,1.2-3.48,2.15-5.21,3.25a6.64,6.64,0,0,0-3,3.49c-.48,1.46-.25,2.39,1.4,3,4.76,1.75,9.73,2.75,14.6,4.09a31.45,31.45,0,0,1,6.35,2.29c3.28,1.73,4.26,3.83,3.5,7.44-1.28,6-5.15,10.13-10.14,13.33A35,35,0,0,1,288,345.27c-10.39.31-20.7,1.66-31.09,1.88a206.78,206.78,0,0,1-58.64-6.95c-1.54-.41-3.09-.75-4.64-1.12a1.14,1.14,0,0,0-1.15-.3l-.84-.22A7,7,0,0,0,188.4,337.58Z"/><path class="cls-10" d="M244.4,136.47c2.31,7.17,4.39,14.4,6.1,21.73.71,4.53,1.76,9,2.09,13.6a.66.66,0,0,1-.59.77,28.35,28.35,0,0,0-6.5-1.9,2.29,2.29,0,0,0-1.53-.32h0a.87.87,0,0,0-1-.2l-1.26-.3a.7.7,0,0,0-.8-.14,1.67,1.67,0,0,0-1.25-.27.61.61,0,0,0-.79-.13,2.73,2.73,0,0,0-1.66-.31.6.6,0,0,0-.8-.1,4.2,4.2,0,0,0-2.07-.31.6.6,0,0,0-.8-.09,4.14,4.14,0,0,0-2.09-.29.57.57,0,0,0-.77-.09,7.39,7.39,0,0,0-2.92-.32,1.14,1.14,0,0,0-1.19-.12,10.92,10.92,0,0,0-3.32-.3,2.11,2.11,0,0,0-1.6-.09,17.77,17.77,0,0,0-4.94-.15,4.48,4.48,0,0,0-2.46-.11h-.81a3.81,3.81,0,0,0-2.09-.05,8.59,8.59,0,0,0-3.64,0A2.81,2.81,0,0,0,206,167h-.77a.19.19,0,0,0-.32,0,26,26,0,0,0-6.23.21,4.66,4.66,0,0,0-2.43.12,7.47,7.47,0,0,0-2.9.27,2,2,0,0,0-1.61.14l-2.5.28a1.23,1.23,0,0,0-1.2.13,2.52,2.52,0,0,0-1.66.24,1.3,1.3,0,0,0-1.22.15,4.37,4.37,0,0,0-2.08.31.59.59,0,0,0-.79.1,1.69,1.69,0,0,0-1.24.24.67.67,0,0,0-.82.13,2.64,2.64,0,0,0-1.65.33.63.63,0,0,0-.8.12c-1.11.16-1.2-.25-.9-1.24a66.61,66.61,0,0,0,2.66-14.06c1.12-13.89-1.55-26.92-8.76-38.91a13.83,13.83,0,0,1-1.58-4.81,171.38,171.38,0,0,0-7.42-29.15,24,24,0,0,0-3.34-6.74,13.88,13.88,0,0,0-6.68-6.12,35,35,0,0,1-8.23-5.31,62,62,0,0,0-8.65-5.86c-2.69-1.66-3.83-3.65-3.34-6,.55-2.58,2.74-4.33,5.82-4.64,3.75-.38,7.15.84,10.5,2.28.72.31,1.44,1.07,2.27.49s.32-1.63.14-2.45c-1.34-6-1.65-11.91.07-17.85a13.33,13.33,0,0,1,1.5-3.36c1.83-2.91,3.49-3.75,6.89-3.11,9.06,1.71,16.64,6.39,23.54,12.25a48.2,48.2,0,0,1,14.56,20.49c.88,2.41,3.13,3.92,4.73,5.85a246.14,246.14,0,0,1,42.58,74.34A5.44,5.44,0,0,0,244.4,136.47Zm-78.3-84c-1.12,0-1.79.28-1.77.92,0,1,.74,1.17,1.57,1.21,7,.33,11.84,4,15.4,9.74.41.65.79,1.48,1.7,1s.54-1.4.11-2.11C179.21,56.82,173.72,53,166.1,52.46Z"/><path class="cls-11" d="M251.68,418.56a29.67,29.67,0,0,1-1.06,7.79c-.17.68-.53,1.37-1.42,1.07-.72-.24-.75-.85-.58-1.53,2.41-9.87.11-19.24-3.17-28.47a60.5,60.5,0,0,0-11.06-19.7c-.5-.58-1.13-1.22-.35-1.93.93-.84,1.45.08,2,.67,5.42,6.22,9,13.47,11.79,21.16A63.6,63.6,0,0,1,251.68,418.56Z"/><path class="cls-6" d="M254.9,173.39l.2.05c5,1.12,5.83,5.33,6.69,9.4,3,14,3.33,28.14,2.24,42.36-.34,4.49-.74,9-1.38,13.43a9.41,9.41,0,0,1-.36,1.36c-.05-4.84.81-9.61,1.1-14.42.43-7.27,1-14.56.18-21.86-.22-2-.37-4.09-.39-6.1a71.05,71.05,0,0,0-1.39-11.31,89.59,89.59,0,0,0-2.46-9.15c-.4-1.4-2-1.31-2.88-2.09C255.86,174.55,254.85,174.48,254.9,173.39Z"/><path class="cls-12" d="M137.94,350c1.84.8,1.81-.27,1.67-1.61-1.52-14.35,2.48-27.57,8.3-40.41a1.88,1.88,0,0,1,.27-.3c-.08,3.11-2,5.61-2.92,8.42-1.33,3.89-2.6,7.79-3.56,11.78a64.68,64.68,0,0,0-1.71,18,12.29,12.29,0,0,0,.3,2.82c.71,2.62.38,2.92-2.35,2.53h0Z"/><path class="cls-5" d="M244,170.35a2.29,2.29,0,0,1,1.53.32c-.29,1.15.41,1.69,1.35,1.76,1.78.13,3.25,1.21,5,1.45.66.09,1.32.33,1.4,1.19a117,117,0,0,0-18-4.32c-5.73-.88-11.49-1.29-17.26-1.78a11.15,11.15,0,0,1-1.37-.29,1.16,1.16,0,0,1,.16-.21c2.84.15,5.67.08,8.52.36,5.58.55,11.16,1,16.61,2.38C242.79,171.45,243.65,171.57,244,170.35Z"/><path class="cls-12" d="M76.81,273.57c.29.17.62.29.68.69,1,6.89,3.41,13.37,5.84,19.85-1.29-.75-1.47-2.2-2-3.38a91.89,91.89,0,0,1-4.45-15.34A13.68,13.68,0,0,1,76.81,273.57Z"/><path class="cls-12" d="M179.4,336.48c-3.62-.72-6.94-2.28-10.32-3.65-1.57-.63-3-1.07-4.34.39,0-1.85,1.4-2.1,2.5-1.7,4,1.46,8.16,2.56,11.93,4.63C179.27,336.21,179.32,336.37,179.4,336.48Z"/><path class="cls-3" d="M254.91,350.75c.29-1.44-.7-1.32-1.6-1.33-3.19,0-6.38,0-9.58-.06-.65,0-1.37.22-1.94-.33,2.8-.74,5.64-.17,8.46-.3a30.19,30.19,0,0,1,4.46.16c.42,0,1.24,0,1.22.77A1.06,1.06,0,0,1,254.91,350.75Z"/><path class="cls-12" d="M137.93,352.06a26.91,26.91,0,0,1-7.1-4.11c1-.52,1.73,1,2.8.57,0-.81-.91-.83-1-1.44l.14-.14a16.26,16.26,0,0,1,5,2.89c-.89.34-1.54-.83-2.57-.39a4,4,0,0,0,2.82,1.72h0Z"/><path class="cls-12" d="M84.29,296.48A101.38,101.38,0,0,1,90,306.77c-2.27-1.38-2.88-3.94-4.1-6C85.19,299.47,84.15,298.15,84.29,296.48Z"/><path class="cls-12" d="M148.18,307.64a45.68,45.68,0,0,1,5.35-10.25c.32,1.38-.64,2.38-1.25,3.34C150.83,303,150.3,305.79,148.18,307.64Z"/><path class="cls-3" d="M212.61,345.57a37.82,37.82,0,0,1-10.6-2.33c1.49-.78,2.74.39,4.07.62C208.28,344.25,210.59,344.44,212.61,345.57Z"/><path class="cls-12" d="M153.53,297.39a33.77,33.77,0,0,1,5.25-8.3A19.85,19.85,0,0,1,153.53,297.39Z"/><path class="cls-3" d="M196.62,341.86a22.39,22.39,0,0,1-8.28-2.53C191.22,339.78,194.22,339.84,196.62,341.86Z"/><path class="cls-12" d="M188.37,339.34c-1.6.22-3-.7-4.47-.94l-1.18-.22c-.81-1-2.38-.61-3.16-1.69C182.82,336.45,185.54,338.06,188.37,339.34Z"/><path class="cls-12" d="M102.77,323.14a43.31,43.31,0,0,1,6,5.87A12.17,12.17,0,0,1,102.77,323.14Z"/><path class="cls-12" d="M90,306.75A32.81,32.81,0,0,1,94.42,313C91.85,311.69,90.86,309.27,90,306.75Z"/><path class="cls-12" d="M163.8,334.34a19.12,19.12,0,0,1-5.26,5.42A11.9,11.9,0,0,1,163.8,334.34Z"/><path class="cls-12" d="M115.36,337.24a3.89,3.89,0,0,1-2.06-1.66c.78-.06,1.67-.06.71-1.17-.35-.4-.73-.76-.67-1.36a13,13,0,0,1,3.75,3.2c-.76.45-1.19-.87-2-.38Z"/><path class="cls-12" d="M160,287.47a12.89,12.89,0,0,1,3.72-5.06A7.6,7.6,0,0,1,160,287.47Z"/><path class="cls-12" d="M163.79,282.2a12.39,12.39,0,0,1,3.31-4.06C166.34,279.78,166,281.77,163.79,282.2Z"/><path class="cls-12" d="M142.55,353.4c-2,1.48-3.07-.47-4.43-1.31A11.88,11.88,0,0,1,142.55,353.4Z"/><path class="cls-3" d="M226.16,347.71a12.86,12.86,0,0,1-5.29-.75A6.9,6.9,0,0,1,226.16,347.71Z"/><path class="cls-12" d="M113.31,335.59a10.83,10.83,0,0,1-3.69-2.89A3.88,3.88,0,0,1,113.31,335.59Z"/><path class="cls-12" d="M109.62,332.7c-.36-.07-.72-.61-1.05-.23-.54.65.32,1.21.26,1.86-.85,0-.85-.73-1-1.25-.33-.86-.14-1.76.78-1.91S109.63,331.93,109.62,332.7Z"/><path class="cls-3" d="M239.69,348.92c-1.36.11-2.74.41-4.05-.31C237,348.27,238.42,347.78,239.69,348.92Z"/><path class="cls-12" d="M156.77,341.69a9.51,9.51,0,0,1-3.19,3A3.83,3.83,0,0,1,156.77,341.69Z"/><path class="cls-3" d="M219.59,346.78a6.9,6.9,0,0,1-4-.69C217,345.54,218.32,346.13,219.59,346.78Z"/><path class="cls-12" d="M110,330.21a7.41,7.41,0,0,1,2.87,2.48C111.29,332.64,110.5,331.61,110,330.21Z"/><path class="cls-12" d="M146.25,350.8a9.4,9.4,0,0,1-3.38,2.44C143.62,351.91,144.52,350.77,146.25,350.8Z"/><path class="cls-3" d="M188.4,337.58a7,7,0,0,1,3.26,1C190.31,339.1,189.42,338.12,188.4,337.58Z"/><path class="cls-3" d="M233.54,348.46a4.82,4.82,0,0,1-3.22-.3C231.43,347.87,232.55,347.45,233.54,348.46Z"/><path class="cls-12" d="M99.35,319.17a5.68,5.68,0,0,1,2.11,2.42A2.34,2.34,0,0,1,99.35,319.17Z"/><path class="cls-3" d="M243.7,361.77a3.79,3.79,0,0,1,2.16-1.94A2.27,2.27,0,0,1,243.7,361.77Z"/><path class="cls-12" d="M167.12,278.12a4.13,4.13,0,0,1,1.94-2.23C169.05,277.19,168.22,277.78,167.12,278.12Z"/><path class="cls-12" d="M158.55,339.76a3.54,3.54,0,0,1-1.76,1.91C156.85,340.55,157.23,339.73,158.55,339.76Z"/><path class="cls-12" d="M95.29,314.19a4.19,4.19,0,0,1,1.64,2.07A1.71,1.71,0,0,1,95.29,314.19Z"/><path class="cls-3" d="M199.49,342.68a2.43,2.43,0,0,1-2-.59C198.4,341.39,199,342,199.49,342.68Z"/><path class="cls-12" d="M149.54,348a2.32,2.32,0,0,1-1.74,1.56C147.94,348.54,148.39,347.89,149.54,348Z"/><path class="cls-12" d="M158.77,289.09a2.3,2.3,0,0,1,1.23-1.64C160.16,288.42,160,289.16,158.77,289.09Z"/><path class="cls-12" d="M153.59,344.64a2.18,2.18,0,0,1-1.59,1.29C151.86,344.68,152.65,344.57,153.59,344.64Z"/><path class="cls-12" d="M76.49,254.69l-.18,2.86C75.87,256.57,75.6,255.59,76.49,254.69Z"/><path class="cls-12" d="M151.15,346.72a1.74,1.74,0,0,1-1.63,1.27A1.44,1.44,0,0,1,151.15,346.72Z"/><path class="cls-12" d="M101.45,321.58a2.73,2.73,0,0,1,1.31,1.56C101.53,323.29,101.41,322.5,101.45,321.58Z"/><path class="cls-3" d="M250.67,355.2a2,2,0,0,1,1.27-1.28C252,354.83,251.58,355.25,250.67,355.2Z"/><path class="cls-12" d="M76.29,265c0,1,.1,1.91.14,2.87A2.52,2.52,0,0,1,76.29,265Z"/><path class="cls-3" d="M214.67,345.94a.83.83,0,0,1-1.19-.21C214,345.28,214.37,345.32,214.67,345.94Z"/><path class="cls-3" d="M228.62,348a.83.83,0,0,1-1.2-.16C227.89,347.34,228.3,347.36,228.62,348Z"/><path class="cls-12" d="M83.47,294.69a2,2,0,0,1,.83,1.81A1.57,1.57,0,0,1,83.47,294.69Z"/><path class="cls-3" d="M245.9,359.79a2.27,2.27,0,0,1,1.19-1.21C247.15,359.44,246.77,359.86,245.9,359.79Z"/><path class="cls-3" d="M252,172.57a.66.66,0,0,0,.59-.77.64.64,0,0,1,0,1C252.36,173,252.13,172.84,252,172.57Z"/><path class="cls-12" d="M94.43,313a1.47,1.47,0,0,1,.87,1.19C94.46,314.21,94.44,313.62,94.43,313Z"/><path class="cls-3" d="M201.13,343a.54.54,0,0,1-.8-.16C200.7,342.44,200.94,342.61,201.13,343Z"/><path class="cls-3" d="M192.5,338.78a1.14,1.14,0,0,1,1.15.3C193.19,339.29,192.76,339.32,192.5,338.78Z"/><path class="cls-12" d="M97.8,317.43a1,1,0,0,1,.77.88C98,318.31,97.71,318,97.8,317.43Z"/><path class="cls-3" d="M241.76,363.46a1.1,1.1,0,0,1,.82-.74A.72.72,0,0,1,241.76,363.46Z"/><path class="cls-12" d="M98.57,318.3a1.16,1.16,0,0,1,.77.86A.73.73,0,0,1,98.57,318.3Z"/><path class="cls-12" d="M147.37,349.93c-.26.19-.51.39-.76.59C146.65,350.06,147,349.94,147.37,349.93Z"/><path class="cls-3" d="M254.38,351.48a.69.69,0,0,1,.49-.69C254.86,351.13,254.78,351.42,254.38,351.48Z"/><path class="cls-3" d="M252.12,353.64l.63-.55C252.72,353.47,252.46,353.6,252.12,353.64Z"/><path class="cls-3" d="M247.12,358.56a.79.79,0,0,1,.73-.49C247.75,358.45,247.45,358.54,247.12,358.56Z"/><path class="cls-12" d="M96.92,316.26a.82.82,0,0,1,.5.77C97,317,96.92,316.62,96.92,316.26Z"/><path class="cls-12" d="M164.31,333.59a.84.84,0,0,1-.51.76C163.8,334,163.85,333.65,164.31,333.59Z"/><path class="cls-3" d="M253.92,351.9l.46-.4Z"/><path class="cls-3" d="M248.25,357.67l.41-.47C248.52,357.35,248.39,357.51,248.25,357.67Z"/><path class="cls-3" d="M247.85,358.08l.4-.41Z"/><path class="cls-12" d="M97.39,317l.41.45Z"/><path class="cls-12" d="M151.56,346.3l-.44.42Z"/><path class="cls-12" d="M152,345.91c-.15.13-.29.27-.43.41A.41.41,0,0,1,152,345.91Z"/><path class="cls-12" d="M164.71,333.2l-.43.4A.39.39,0,0,1,164.71,333.2Z"/><path class="cls-13" d="M277,131.15c0-.14,0-.28,0-.43C277.31,130.85,277.3,131,277,131.15Z"/><path class="cls-14" d="M133.34,137.79c-2.9-.42-5.75-1.16-8.72-1a18.49,18.49,0,0,0-4.06.5c-.72.2-1.34.53-1.13,1.4s.91.84,1.64.68c4.71-1,9.23-.13,13.7,1.34a6.51,6.51,0,0,1,3,2.06,47.48,47.48,0,0,0,16.51,12.57c1.42.64,2.19.8,2.19-1.2a10.55,10.55,0,0,1,1.35-4.9c2-3.81,5.73-4.53,9.05-1.68,3.08,2.64,4.62,6.2,5.57,10.05,1.48,6,.27,11.9-.74,17.7-5.35,30.58-37.57,47-65.53,33.59-18.74-9-29.25-30.8-24.64-51.12.62-2.76,1.81-3.83,4.64-4,2.35-.17,4.67-.09,6.62,1.51.59.49,1.19.81,1.74,0s0-1.27-.53-1.74c-1.65-1.44-3.67-1.74-5.73-1.92a21.89,21.89,0,0,0-5,.45,43.4,43.4,0,0,1,9.21-15.34A45.58,45.58,0,0,1,126,121.58c1.32,0,1.9.26,2.08,1.71.66,5.18,2.92,9.78,5.56,14.21ZM124.67,202a32.85,32.85,0,0,0,8.33-.92c7.27-1.73,13.46-5.18,17.75-11.54.47-.7,1-1.5,0-2.11s-1.31.28-1.74.9a24.78,24.78,0,0,1-11,8.87,34,34,0,0,1-19.07,2.13c-.8-.12-1.76-.47-2,.73s.79,1.24,1.6,1.39A31.35,31.35,0,0,0,124.67,202Zm-2.07-47.71a10.26,10.26,0,0,0-4.63,1c-.69.39-1.34.88-.93,1.77s1.15.5,1.86.21a10.59,10.59,0,0,1,10.47,1.2c.69.47,1.32,1.61,2.18.52s-.25-1.76-1-2.33C128.36,154.87,125.7,154.36,122.6,154.27Z"/><path class="cls-11" d="M163.53,198.19c.89,5.66,1.43,10.86.36,16.09a22.9,22.9,0,0,1-.89,3.14c-1.34,3.76-1.67,4-5.59,3.67a53.13,53.13,0,0,1-20.69-6.44A49.81,49.81,0,0,0,163.53,198.19Z"/><path class="cls-3" d="M162.91,221.87a1.75,1.75,0,0,1-1.86,1.54,48.59,48.59,0,0,1-20-4.28c-.17-.08-.28-.3-.41-.45,1.57-.18,2.89.67,4.26,1.17a47.41,47.41,0,0,0,14.32,2.86A7,7,0,0,0,162.91,221.87Z"/><path class="cls-3" d="M132.59,215.17c-.8.76-1.81.46-2.71.46-4,0-8.08.53-12-.84,1.4-.92,2.73.21,4.12.12,3.37-.22,6.76.29,10.12-.29C132.42,214.57,132.53,214.9,132.59,215.17Z"/><path class="cls-3" d="M166.15,202.19a34.84,34.84,0,0,1-.39,13.61c-.18.77-.23,1.65-1,2.17a57.81,57.81,0,0,0,1.1-14.85A3.33,3.33,0,0,1,166.15,202.19Z"/><path class="cls-3" d="M112.09,213.38a28.16,28.16,0,0,1-11-5.08c1.16-.12,2,.5,2.93,1.07a75.86,75.86,0,0,0,7.12,3.36C111.51,212.9,112,212.9,112.09,213.38Z"/><path class="cls-3" d="M174.33,175.47c-1.43,3.79-1.87,7.93-4,11.48-1-1,.22-1.61.48-2.3.89-2.41,1.49-4.88,2.16-7.34.18-.69.25-1.51,1.07-1.86Z"/><path class="cls-5" d="M197,169.17l-10.66,1.1c1-1.54,2.74-1,4.11-1.27,1.76-.4,3.66.06,5.47-.48A.79.79,0,0,1,197,169.17Z"/><path class="cls-5" d="M204.9,167.05a.19.19,0,0,1,.32,0c.07.31-.05.79.42.78s.31-.49.35-.79a2.81,2.81,0,0,1,1.72-.05,1.3,1.3,0,0,0,0,.34l0,1.35a2.79,2.79,0,0,1-1.69.11.43.43,0,0,0-.74,0l-5,.17a3.9,3.9,0,0,1,2.83-.83A1.56,1.56,0,0,0,204.9,167.05Z"/><path class="cls-3" d="M140,218.5a23.48,23.48,0,0,1-6.51-3.34c1.86-.23,3.05,1.3,4.63,1.83C138.81,217.22,140,217.28,140,218.5Z"/><path class="cls-3" d="M165.72,195.17c-.73,2.1.71,4.08.36,6.16-1.42-1.51-1-3.52-1.36-5.31C164.62,195.55,165.19,195.24,165.72,195.17Z"/><path class="cls-3" d="M100.56,208c-2.08-1.38-2.81.72-4,1.56a2.84,2.84,0,0,1,2.41-2.8A1.17,1.17,0,0,1,100.56,208Z"/><path class="cls-5" d="M179.55,171.4a2,2,0,0,1-1.4.28c0-.26,0-.71.16-.74,1.58-.38,3.15-1.06,4.8-.29a9.71,9.71,0,0,1-3.48.72Z"/><path class="cls-3" d="M117,214.66a7.24,7.24,0,0,1-4.08-1.06A4.45,4.45,0,0,1,117,214.66Z"/><path class="cls-3" d="M91.2,217c-.21,1.3-1.17,2.11-2,3A2.65,2.65,0,0,1,91.2,217Z"/><path class="cls-3" d="M169.11,189.44a5.26,5.26,0,0,1-1.58,2.93A2.63,2.63,0,0,1,169.11,189.44Z"/><path class="cls-3" d="M196.24,167.38a4.66,4.66,0,0,1,2.43-.12A2,2,0,0,1,196.24,167.38Z"/><path class="cls-3" d="M92.58,215a3.15,3.15,0,0,1-1.38,2A1.64,1.64,0,0,1,92.58,215Z"/><path class="cls-3" d="M191.73,167.79a2,2,0,0,1,1.61-.14A1,1,0,0,1,191.73,167.79Z"/><path class="cls-3" d="M96.49,209.57a2.16,2.16,0,0,1-1.21,1.58C95.25,210.29,95.44,209.6,96.49,209.57Z"/><path class="cls-5" d="M174.33,175.47l-.28,0c.08-.65-.27-1.52.85-1.6A2.2,2.2,0,0,1,174.33,175.47Z"/><path class="cls-3" d="M188,168.2a1.23,1.23,0,0,1,1.2-.13A.69.69,0,0,1,188,168.2Z"/><path class="cls-3" d="M93.69,213.31a1.42,1.42,0,0,1-.82,1.27C92.82,213.94,92.71,213.27,93.69,213.31Z"/><path class="cls-3" d="M185.15,168.59a1.3,1.3,0,0,1,1.22-.15C186,169,185.62,169.05,185.15,168.59Z"/><path class="cls-3" d="M167.23,192.8a1.63,1.63,0,0,1-.88,1.3C166.26,193.41,166.17,192.72,167.23,192.8Z"/><path class="cls-3" d="M169.93,187.8a1.24,1.24,0,0,1-.73,1.33C169.13,188.51,169,187.89,169.93,187.8Z"/><path class="cls-5" d="M185.53,170.39l-1.22.14C184.61,169.51,185,169.45,185.53,170.39Z"/><path class="cls-3" d="M163.84,220.27a1.27,1.27,0,0,1-.79,1.3C163,220.93,162.87,220.27,163.84,220.27Z"/><path class="cls-3" d="M164.72,218.18c-.06.79-.08,1.59-.88,2.06A2.77,2.77,0,0,1,164.72,218.18Z"/><path class="cls-3" d="M182.28,169a.59.59,0,0,1,.79-.1C182.86,169.29,182.6,169.39,182.28,169Z"/><path class="cls-3" d="M180.22,169.37a.67.67,0,0,1,.82-.13C180.83,169.7,180.58,169.86,180.22,169.37Z"/><path class="cls-3" d="M94.4,212.43a.84.84,0,0,1-.7.86A.66.66,0,0,1,94.4,212.43Z"/><path class="cls-3" d="M177.77,169.82a.63.63,0,0,1,.8-.12C178.35,170.1,178.1,170.2,177.77,169.82Z"/><path class="cls-5" d="M176.55,171.91l-.84.3C175.8,171.58,176,171.12,176.55,171.91Z"/><path class="cls-5" d="M175.37,172.64c-.14.31-.27.62-.41.94C174.89,173.17,174.9,172.81,175.37,172.64Z"/><path class="cls-3" d="M166.23,194.37l-.33.48Z"/><path class="cls-3" d="M94.94,211.65l-.41.49Z"/><path class="cls-14" d="M133.66,137.5c.12.17.22.36,0,.49,0,0-.19-.13-.29-.2Z"/><path class="cls-15" d="M166.54,108.74l-.06.12-.16-.13.12-.12Z"/><path class="cls-12" d="M250.56,243.13A31.86,31.86,0,0,1,245,240.8c-9.59-5-18.62-10.88-27.89-16.4-5.45-3.25-11-6.37-16.47-9.56-.79-.46-2-.75-1.28-2.05.67-1.12,1.52-.34,2.29.06,10.3,5.38,20,11.75,30,17.69,6.27,3.74,12.46,7.64,19.29,10.35.69.28,1.51.54,1.24,1.56C252,243.2,251.36,243.25,250.56,243.13Z"/><path class="cls-12" d="M125.63,328.85a84.08,84.08,0,0,1,7.18-28,99.6,99.6,0,0,1,7.09-13.39c.19-.29.33-.61.54-.87.42-.54.82-1.22,1.66-.72s.59,1.26.19,2c-1.65,2.9-3.43,5.74-4.95,8.72-5,9.83-8.45,20.14-9.34,31.21-.06.68-.19,1.35-.26,2s-.16,1.63-1.21,1.52c-.88-.1-.9-.88-.9-1.59Z"/><path class="cls-12" d="M248.32,186.7c-.28,1.18-1.08,1.12-2,.79a62.86,62.86,0,0,0-10.89-2.72,152.66,152.66,0,0,0-21.55-2c-.54,0-1.09,0-1.63,0-.75,0-1.44-.28-1.42-1.13,0-1.12.88-1.16,1.77-1.18a129.48,129.48,0,0,1,16.11,1,77.3,77.3,0,0,1,18,3.76C247.38,185.42,248.31,185.52,248.32,186.7Z"/><path class="cls-12" d="M151.35,272.45c.68.15,1.11.68.86,1.32a7.83,7.83,0,0,1-2.45,3.16c-.58.47-1.18.14-1.44-.55C148,275.4,150.27,272.38,151.35,272.45Z"/><path class="cls-5" d="M211.35,167a3.81,3.81,0,0,1,2.09.05c0,.32-.06.81.31.86.63.07.42-.52.5-.87a4.48,4.48,0,0,1,2.46.11l0,1.34a1.16,1.16,0,0,0-.16.21,5,5,0,0,1-2.39.07,1.76,1.76,0,0,0-1.92,0l-1.4-.06c-1-.52.42-.9.08-1.39Z"/><path class="cls-2" d="M115.36,337.24l-.27-1.37c.81-.49,1.24.83,2,.38l0,0a1.57,1.57,0,0,0,1.74,1.27.25.25,0,0,1,.24.11,1.12,1.12,0,0,0,1.41,1.11.25.25,0,0,1,.24.11c-.08,1.06,1.23,1.26,1.5,2.19-1,.21-1.55-.74-2.39-.52h0l-.45-.4v0a4.33,4.33,0,0,0-3.39-2.5Z"/><path class="cls-12" d="M119.81,340.56c.84-.22,1.41.73,2.39.52-.27-.93-1.58-1.13-1.5-2.19a12.6,12.6,0,0,1,3.82,2.77c-.78,0-1.51.15-1.3,1.24l-.1.1A7.13,7.13,0,0,1,119.81,340.56Z"/><path class="cls-12" d="M190.92,208.73c0,.77-.22,1.44-1,1.36s-1.87-.21-2-1.27c-.13-.79.51-1.24,1.27-1.22S190.74,207.85,190.92,208.73Z"/><path class="cls-12" d="M129.33,347.05a2.34,2.34,0,0,1-1.76-1.1l.14-.15c.36,0,.93.12,1-.31,0-.68-.62-.4-1-.48h0l-.42-1.22.19-.17a21.35,21.35,0,0,1,5.28,3.32l-.14.14c-.73-.3-1.47-.57-2.18-.91C129.35,345.64,129.33,346.32,129.33,347.05Z"/><path class="cls-12" d="M127.57,346a13.51,13.51,0,0,1-4.45-2.95l.1-.1c.83-.16,1.34.73,2.34.69l-.76-1.78a6.29,6.29,0,0,1,2.65,1.81l-.19.17c-.37,0-1-.14-1,.36.06.72.82.74,1.4.86h0l0,.79Z"/><path class="cls-4" d="M211,167.29c.34.49-1.11.87-.08,1.39a6.3,6.3,0,0,1-3.17,0c0-.45,0-.9,0-1.35Z"/><path class="cls-2" d="M124.8,341.81l.76,1.78c-1,0-1.51-.85-2.34-.69-.21-1.09.52-1.19,1.3-1.24A.32.32,0,0,1,124.8,341.81Z"/><path class="cls-2" d="M137.94,351.16a4,4,0,0,1-2.82-1.72c1-.44,1.68.73,2.57.39a.32.32,0,0,1,.25.12Z"/><path class="cls-12" d="M118.81,337.56a1.57,1.57,0,0,1-1.74-1.27A2,2,0,0,1,118.81,337.56Z"/><path class="cls-12" d="M120.46,338.78a1.12,1.12,0,0,1-1.41-1.11C119.78,337.71,120.14,338.22,120.46,338.78Z"/><path class="cls-3" d="M212.27,168.74a1.76,1.76,0,0,1,1.92,0A3,3,0,0,1,212.27,168.74Z"/><path class="cls-3" d="M205.27,168.75a.43.43,0,0,1,.74,0Z"/><polygon class="cls-3" points="179.55 171.4 179.63 171.37 179.6 171.47 179.55 171.4"/><path class="cls-3" d="M166.1,52.46c7.62.49,13.11,4.36,17,10.75.43.71.91,1.56-.11,2.11s-1.29-.34-1.7-1c-3.56-5.72-8.43-9.41-15.4-9.74-.83,0-1.54-.23-1.57-1.21C164.31,52.74,165,52.43,166.1,52.46Z"/><path class="cls-2" d="M216.74,168.47l0-1.34a17.77,17.77,0,0,1,4.94.15,1,1,0,0,0,1.6.09,10.92,10.92,0,0,1,3.32.3.69.69,0,0,0,1.19.12,7.39,7.39,0,0,1,2.92.32c.21.39.47.47.77.09a4.14,4.14,0,0,1,2.09.29c.22.39.48.48.8.09a4.2,4.2,0,0,1,2.07.31c.22.4.48.49.8.1a2.73,2.73,0,0,1,1.66.31c.21.39.46.5.79.13a1.67,1.67,0,0,1,1.25.27c.21.41.46.57.8.14l1.26.3a.63.63,0,0,0,1,.2h0c-.32,1.22-1.18,1.1-2.1.86-5.45-1.41-11-1.83-16.61-2.38C222.41,168.55,219.58,168.62,216.74,168.47Z"/><path class="cls-3" d="M211,167.29l-3.23,0a1.3,1.3,0,0,1,0-.34,8.59,8.59,0,0,1,3.64,0Z"/><path class="cls-3" d="M223.25,167.37a1,1,0,0,1-1.6-.09A2.11,2.11,0,0,1,223.25,167.37Z"/><path class="cls-3" d="M227.76,167.79a.69.69,0,0,1-1.19-.12A1.14,1.14,0,0,1,227.76,167.79Z"/><path class="cls-4" d="M214.25,167c-.08.35.13.94-.5.87-.37,0-.27-.54-.31-.86Z"/><path class="cls-3" d="M244,170.34a.63.63,0,0,1-1-.2A.87.87,0,0,1,244,170.34Z"/><path class="cls-4" d="M206,167c0,.3.13.78-.35.79s-.35-.47-.42-.78Z"/><path class="cls-3" d="M231.45,168.2c-.3.38-.56.3-.77-.09A.57.57,0,0,1,231.45,168.2Z"/><path class="cls-3" d="M234.34,168.58c-.32.39-.58.3-.8-.09A.6.6,0,0,1,234.34,168.58Z"/><path class="cls-3" d="M237.21,169c-.32.39-.58.3-.8-.1A.6.6,0,0,1,237.21,169Z"/><path class="cls-3" d="M239.66,169.43c-.33.37-.58.26-.79-.13A.61.61,0,0,1,239.66,169.43Z"/><path class="cls-3" d="M241.71,169.84c-.34.43-.59.27-.8-.14A.7.7,0,0,1,241.71,169.84Z"/><path class="cls-9" d="M253.31,349.43c-3.19,0-6.39,0-9.57-.06-.66,0-1.38.2-2-.34l-2.1-.11c-1.36.11-2.74.41-4.05-.31a4.17,4.17,0,0,1-2.1-.15,4.89,4.89,0,0,1-3.22-.3,2.68,2.68,0,0,1-1.7-.19.84.84,0,0,1-1.2-.16l-1.26-.09a13,13,0,0,1-5.29-.76l-1.28-.18a7,7,0,0,1-4-.68l-.88-.16a.83.83,0,0,1-1.19-.2l-.86-.18A37.45,37.45,0,0,1,202,343.24l-.88-.2a.54.54,0,0,1-.8-.16l-.84-.2a2.44,2.44,0,0,1-2-.59l-.85-.22a22.87,22.87,0,0,1-8.26-2.53c-1.59.21-3-.7-4.45-.93l-1.19-.23c-.82-1-2.38-.61-3.16-1.69h-.16c-3.62-.72-6.94-2.28-10.32-3.64-1.57-.65-3-1.08-4.33.37h-.05l-.39.39a.84.84,0,0,1-.51.76,18.92,18.92,0,0,1-5.26,5.4,3.52,3.52,0,0,1-1.75,1.93h0a9.44,9.44,0,0,1-3.18,2.95h0a2.2,2.2,0,0,1-1.59,1.28l0,0-.43.41v0l-.44.42h0a1.79,1.79,0,0,1-1.63,1.28h0a2.34,2.34,0,0,1-1.74,1.56l-.43.37c-.26.19-.5.39-.76.6l-.35.27a9.38,9.38,0,0,1-3.4,2.44.43.43,0,0,1-.31.16c-2,1.48-3.07-.47-4.44-1.3a.12.12,0,0,1-.18-.05,26.34,26.34,0,0,1-7.1-4.1.4.4,0,0,1-.28-.1,1.06,1.06,0,0,1-1-.72.17.17,0,0,1-.21-.08,2.34,2.34,0,0,1-1.76-1.1,13.37,13.37,0,0,1-4.44-2.95,7.22,7.22,0,0,1-3.32-2.44h0l-.45-.4v0a6.61,6.61,0,0,1-3.4-2.5c-.21-.15-.43-.29-.64-.45a3.89,3.89,0,0,1-2-1.65,10.81,10.81,0,0,1-3.69-2.89c-.36-.07-.72-.61-1.05-.23-.55.64.32,1.21.26,1.85,1.39,2.57,2.73,5.15,4.16,7.69,10.15,18.12,23.61,33,42,43.14a48.19,48.19,0,0,0,34,5.21c14.76-3.05,28-9.35,40.46-17.7,4.25-2.85,8.17-6.14,12.27-9.2a1.1,1.1,0,0,1,.82-.74l1.11-1a3.84,3.84,0,0,1,2.17-1.94l0,0a2.21,2.21,0,0,1,1.2-1.2l0,0a.73.73,0,0,1,.72-.48l.41-.41h0l.41-.48,2-2a2,2,0,0,1,1.27-1.27.41.41,0,0,1,.18-.29l.64-.55a1.68,1.68,0,0,1,1.16-1.18l.46-.41v0a.68.68,0,0,1,.5-.69l0,0C255.21,349.31,254.21,349.43,253.31,349.43Zm-51.26,24.84a104.93,104.93,0,0,1-25.5,7.17c-.88,0-1.64-.1-1.68-1.12s.6-1.11,1.35-1.21a100,100,0,0,0,24.61-6.77c.78-.32,1.68-.59,2.16.4C203.38,373.57,202.71,374,202.05,374.27Z"/><path class="cls-12" d="M176.55,381.44c-.89,0-1.64-.1-1.68-1.12s.6-1.1,1.35-1.2a100.62,100.62,0,0,0,24.62-6.78c.77-.31,1.67-.59,2.14.4.4.83-.27,1.25-.93,1.53A104.49,104.49,0,0,1,176.55,381.44Z"/><path class="cls-2" d="M129.33,347.05c0-.73,0-1.41,1.08-.88.71.34,1.45.61,2.18.91.13.61,1.06.63,1,1.44-1.07.44-1.75-1.09-2.8-.57a.36.36,0,0,1-.28-.1c-.05-.64-.44-.81-1-.71A.18.18,0,0,1,129.33,347.05Z"/><path class="cls-12" d="M116,337.69a4.33,4.33,0,0,1,3.39,2.5A6.59,6.59,0,0,1,116,337.69Z"/><path class="cls-12" d="M129.54,347.14c.57-.1,1,.07,1,.71A1.07,1.07,0,0,1,129.54,347.14Z"/><path class="cls-12" d="M119.39,340.16l.45.4Z"/><path class="cls-3" d="M124.67,202a31.35,31.35,0,0,1-6.11-.55c-.81-.15-1.79-.21-1.6-1.39s1.17-.85,2-.73A34,34,0,0,0,138,197.18a24.78,24.78,0,0,0,11-8.87c.43-.62.83-1.46,1.74-.9s.47,1.41,0,2.11c-4.29,6.36-10.48,9.81-17.75,11.54A32.85,32.85,0,0,1,124.67,202Z"/><path class="cls-3" d="M122.6,154.27c3.1.09,5.76.6,8,2.38.7.57,1.79,1.26,1,2.33s-1.49,0-2.18-.52a10.59,10.59,0,0,0-10.47-1.2c-.71.29-1.4.81-1.86-.21s.24-1.38.93-1.77A10.26,10.26,0,0,1,122.6,154.27Z"/><path class="cls-2" d="M127.68,345c-.58-.12-1.34-.14-1.4-.86,0-.5.61-.31,1-.36Z"/><path class="cls-2" d="M127.71,345.8l0-.79c.38.08,1-.2,1,.48C128.64,345.92,128.07,345.79,127.71,345.8Z"/></g></g></svg>