<svg xmlns="http://www.w3.org/2000/svg" viewBox="0 0 21.75 28.99"><defs><style>.cls-1{fill:#06f;}</style></defs><g id="Layer_2" data-name="Layer 2"><g id="Layer_1-2" data-name="Layer 1"><path class="cls-1" d="M20,29a1.71,1.71,0,0,1-1.15-1.85,7.7,7.7,0,0,0-4.44-7.46A7.93,7.93,0,0,0,3,25.75a8.1,8.1,0,0,0-.07,1.39A1.66,1.66,0,0,1,1.78,29H1.17A1.67,1.67,0,0,1,0,27.19,10.88,10.88,0,0,1,21.32,23.8a11.91,11.91,0,0,1,.42,3.8A1.5,1.5,0,0,1,20.59,29Z"/><path class="cls-1" d="M10.89,13A6.52,6.52,0,1,1,17.4,6.58,6.52,6.52,0,0,1,10.89,13Zm3.6-6.5a3.62,3.62,0,1,0-3.6,3.61A3.62,3.62,0,0,0,14.49,6.54Z"/></g></g></svg>