<svg xmlns="http://www.w3.org/2000/svg" viewBox="0 0 23.68 23.68"><defs><style>.cls-1{fill:#fff;}</style></defs><g id="Layer_2" data-name="Layer 2"><g id="Layer_1-2" data-name="Layer 1"><path class="cls-1" d="M5.33,0l.51.13a2.9,2.9,0,0,1,1.5,1c.6.79,1.21,1.58,1.83,2.36a3.09,3.09,0,0,1-.1,3.92c-.39.46-.76,1-1.15,1.41-.1.14,0,.23,0,.34A12.64,12.64,0,0,0,12,14.31a13.15,13.15,0,0,0,2.5,1.43.25.25,0,0,0,.31,0c.46-.38.94-.74,1.4-1.13a3.15,3.15,0,0,1,4-.06l2.26,1.75A3,3,0,0,1,23,20.57a13.83,13.83,0,0,1-1.66,1.76,6,6,0,0,1-4.65,1.31,13.11,13.11,0,0,1-5.49-1.91A25.51,25.51,0,0,1,2,12.79,13.51,13.51,0,0,1,.13,8a7.07,7.07,0,0,1,1.4-5.92A11.14,11.14,0,0,1,3.46.43,4.49,4.49,0,0,1,4.59,0ZM17.26,21.66h.1l.39,0a4,4,0,0,0,2.94-1.44c.22-.27.45-.53.68-.78a1.06,1.06,0,0,0-.15-1.6l-2.28-1.77a1.12,1.12,0,0,0-1.43,0l-2,1.58a1.09,1.09,0,0,1-1.18.18A14.75,14.75,0,0,1,5.83,9.29,1.12,1.12,0,0,1,6,8.07c.54-.65,1.05-1.31,1.58-2a1.08,1.08,0,0,0,0-1.37L5.81,2.4a1.06,1.06,0,0,0-1.55-.16c-.33.28-.66.56-1,.86a2.83,2.83,0,0,0-.48.55A5.09,5.09,0,0,0,2,7.33,10,10,0,0,0,3.27,11a23,23,0,0,0,9.82,9.52A9.62,9.62,0,0,0,17.26,21.66Z"/><path class="cls-1" d="M16.57,0c.4.09.81.15,1.2.27a8,8,0,0,1,5.79,6.52,7.37,7.37,0,0,1-1.38,5.66,1,1,0,0,1-1.36.22,1,1,0,0,1-.24-1.36,6,6,0,0,0,.93-2,5.71,5.71,0,0,0-1.8-5.74A5.7,5.7,0,0,0,12.47,3a1.07,1.07,0,0,1-.86.24,1,1,0,0,1-.78-.74.92.92,0,0,1,.37-1A8.11,8.11,0,0,1,14.43.09L14.9,0Z"/><path class="cls-1" d="M14.76,6.4V5a1,1,0,1,1,2,0c0,.76,0,1.53,0,2.3a.52.52,0,0,0,.14.34c.5.52,1,1,1.53,1.54a1,1,0,0,1-.6,1.67.91.91,0,0,1-.78-.27l-2-2a1,1,0,0,1-.27-.7Z"/></g></g></svg>