<svg xmlns="http://www.w3.org/2000/svg" viewBox="0 0 22.43 22.44"><defs><style>.cls-1{fill:#fff;}</style></defs><g id="Layer_2" data-name="Layer 2"><g id="Layer_1-2" data-name="Layer 1"><path class="cls-1" d="M4.25,22.44c-.36-.09-.73-.15-1.08-.26A4.62,4.62,0,0,1,0,17.86Q0,9.4,0,1A.93.93,0,0,1,.91,0a.94.94,0,0,1,1,.9,2.43,2.43,0,0,1,0,.27c0,5.5,0,11,0,16.49a2.78,2.78,0,0,0,1.39,2.52,2.58,2.58,0,0,0,1.29.38H4.9c5.45,0,10.89,0,16.34,0a1.09,1.09,0,0,1,1.19.74v.39a1.09,1.09,0,0,1-.74.75Z"/><path class="cls-1" d="M22.43,1.1a1.85,1.85,0,0,1-.52.75C20.27,3.49,18.64,5.13,17,6.76a2.81,2.81,0,0,1-4.09,0c-.64-.63-1.28-1.28-1.92-1.92a.91.91,0,0,0-1-.26,1.27,1.27,0,0,0-.48.32L6.34,8.08a1,1,0,0,1-.67.33A.94.94,0,0,1,4.88,6.9a1.62,1.62,0,0,1,.18-.19Q6.64,5.12,8.23,3.54a2.79,2.79,0,0,1,4.1,0l1.89,1.89a1,1,0,0,0,1.48,0L20.78.34a.91.91,0,0,1,1.43,0,2.43,2.43,0,0,1,.22.46Z"/><path class="cls-1" d="M18.7,13.08V8.46a.93.93,0,0,1,1.85-.18,1.09,1.09,0,0,1,0,.18v9.26a.93.93,0,0,1-1.85.13c0-.27,0-.54,0-.81Z"/><path class="cls-1" d="M9.35,13.08c0-1.54,0-3.08,0-4.62a.92.92,0,0,1,1-1,.93.93,0,0,1,.82.79c0,.06,0,.12,0,.18v9.26a.91.91,0,0,1-.8,1,.92.92,0,0,1-1.06-.83c0-.27,0-.54,0-.81C9.35,15.72,9.35,14.4,9.35,13.08Z"/><path class="cls-1" d="M14,15V12.15a.94.94,0,0,1,.76-.92.92.92,0,0,1,1,.52,1.06,1.06,0,0,1,.1.46c0,1.83,0,3.66,0,5.5A.94.94,0,0,1,14,18a1.32,1.32,0,0,1,0-.28Z"/><path class="cls-1" d="M4.67,15c0-.94,0-1.87,0-2.81a.92.92,0,0,1,1.76-.4,1.06,1.06,0,0,1,.1.46c0,1.83,0,3.66,0,5.5a.94.94,0,0,1-.86,1,.92.92,0,0,1-1-.74,1.33,1.33,0,0,1,0-.28Z"/></g></g></svg>