<svg xmlns="http://www.w3.org/2000/svg" viewBox="0 0 19.03 23.36"><defs><style>.cls-1{fill:#fff;}</style></defs><g id="Layer_2" data-name="Layer 2"><g id="Layer_1-2" data-name="Layer 1"><path class="cls-1" d="M4.43,23.36A13,13,0,0,1,3.07,23,4.8,4.8,0,0,1,0,18.64c0-3,0-6,0-9V5A4.85,4.85,0,0,1,4.1.07,4.72,4.72,0,0,1,7.78,1C10.88,3.24,14,5.5,17.08,7.8A4.85,4.85,0,0,1,17,15.62c-3.06,2.26-6.13,4.5-9.2,6.75a4.73,4.73,0,0,1-2.38.95l-.13,0ZM2,11.66q0,3.39,0,6.78a2.79,2.79,0,0,0,1.79,2.74,2.8,2.8,0,0,0,2.91-.38l9.11-6.69a2.91,2.91,0,0,0,0-4.83l-4-3L6.64,2.56A2.84,2.84,0,0,0,4.41,2,2.85,2.85,0,0,0,2,4.91Q1.94,8.29,2,11.66Z"/></g></g></svg>