<svg xmlns="http://www.w3.org/2000/svg" viewBox="0 0 27.85 27.84"><defs><style>.cls-1{fill:#06f;}</style></defs><g id="Layer_2" data-name="Layer 2"><g id="Layer_1-2" data-name="Layer 1"><path class="cls-1" d="M19.48,0H20a1.28,1.28,0,0,1,.93,1.44c0,.28,0,.57,0,.89.46,0,.88,0,1.3,0A5.77,5.77,0,0,1,27.7,6.82l.15.74v15a1.89,1.89,0,0,0-.05.23,5.77,5.77,0,0,1-5.63,5c-5.49,0-11,0-16.47,0A5.75,5.75,0,0,1,0,22.14C0,17.43,0,12.72,0,8A5.55,5.55,0,0,1,3.59,2.77,5.52,5.52,0,0,1,6,2.32c.33,0,.66,0,1,0,0-.32,0-.6,0-.88A1.27,1.27,0,0,1,7.9,0h.49A1.3,1.3,0,0,1,9.3,1.48c0,.27,0,.55,0,.83h9.27c0-.29,0-.56,0-.83A1.29,1.29,0,0,1,19.48,0ZM2.34,11.61V22a4.21,4.21,0,0,0,0,.62,3.47,3.47,0,0,0,3.55,2.93h16a3.82,3.82,0,0,0,.68-.05A3.43,3.43,0,0,0,25.52,22q0-5,0-10.08c0-.09,0-.18,0-.28ZM25.53,9.27V8.17A3.47,3.47,0,0,0,22,4.64H5.89a3.68,3.68,0,0,0-1.32.25C2.5,5.75,2.18,7.44,2.38,9.27Z"/><path class="cls-1" d="M14,15.66a1.74,1.74,0,1,1-1.75,1.73A1.73,1.73,0,0,1,14,15.66Z"/><path class="cls-1" d="M9.87,17.39a1.73,1.73,0,0,1-1.73,1.74,1.74,1.74,0,1,1,0-3.47A1.73,1.73,0,0,1,9.87,17.39Z"/><path class="cls-1" d="M18,17.39a1.74,1.74,0,1,1,3.47,0,1.74,1.74,0,0,1-1.73,1.72A1.72,1.72,0,0,1,18,17.39Z"/></g></g></svg>