<svg xmlns="http://www.w3.org/2000/svg" viewBox="0 0 373.07 430.07"><defs><style>.cls-1,.cls-3{fill:#d6e9fc;}.cls-1{opacity:0.56;}.cls-2{fill:#96c7f2;}.cls-4{fill:#18398d;}.cls-5{fill:#2c57ae;}.cls-6{fill:#5e98f7;}.cls-7{fill:#14316e;opacity:0.45;}.cls-8{fill:#e5e5e5;}.cls-9{fill:#e59692;}.cls-10{fill:#f3b7b2;}.cls-11{fill:#fff;}.cls-12{fill:#b2cde2;}</style></defs><g id="Layer_2" data-name="Layer 2"><g id="Layer_1-2" data-name="Layer 1"><path class="cls-1" d="M372.87,393.66c-2.13,20.43-21,36.41-44,36.41H48.16c-26.73-5.7-42.72-12.95-42.72-20.83,0-7.2,13.35-13.87,36.05-19.33a416.39,416.39,0,0,1,45.35-7.79q7.2-.89,14.88-1.65c13.58-1.37,28.22-2.47,43.66-3.24,14.33-.72,29.34-1.17,44.84-1.31,3.38,0,6.78,0,10.21,0,11.71,0,23.19.18,34.33.51q7.55.24,14.87.56,12.11.54,23.57,1.33l5,.36c11.42.85,22.28,1.88,32.44,3.08,10.84,1.27,20.89,2.73,30,4.34A248,248,0,0,1,372.87,393.66Z"/><path class="cls-2" d="M182.76,389.41c-68.39-14.4-120.5-65-150.71-146.33C10.54,185.15,7.62,131.54,7.5,129.29L6.33,106.1,189.17,41.47,372,106.1l-1.17,23.19c-.12,2.25-3,55.86-24.55,113.79C316.08,324.41,264,375,195.59,389.41l-6.42,1.35Z"/><path class="cls-3" d="M334,131.11,189.17,79.92h0L44.35,131.11s9.8,194,144.82,222.4h0C324.19,325.08,334,131.11,334,131.11Z"/><polygon class="cls-4" points="188.81 333.79 255.22 324.3 313.59 324.3 365.77 334.51 276.01 379.76 188.81 333.79"/><path class="cls-4" d="M310.71,381.58S193.23,317,179.36,338.16c-20,30.57,10.58,46,119.68,75.17Z"/><path class="cls-5" d="M343.1,413.86h0a13.78,13.78,0,0,0-7.46-18l-27.13-11.24L298,410.08l27.13,11.23A13.77,13.77,0,0,0,343.1,413.86Z"/><path class="cls-6" d="M306.8,388.74l20.53,8.49a9.33,9.33,0,1,1-7.14,17.24L299.66,406Z"/><path class="cls-7" d="M299.75,405.78,326.88,417a13.76,13.76,0,0,0,16.89-5.4,14.32,14.32,0,0,1-.67,2.24,13.77,13.77,0,0,1-18,7.45L298,410.08Z"/><path class="cls-8" d="M308.73,406.21l4.34-10.47a1,1,0,0,1,1.36-.56h0a1,1,0,0,1,.56,1.35L310.65,407a1,1,0,0,1-1.35.57h0A1.05,1.05,0,0,1,308.73,406.21Z"/><path class="cls-8" d="M315.12,408.86l4.34-10.48a1,1,0,0,1,1.35-.56h0a1,1,0,0,1,.56,1.36L317,409.65a1,1,0,0,1-1.36.56h0A1,1,0,0,1,315.12,408.86Z"/><path class="cls-8" d="M322.15,411.76l4.33-10.47a1,1,0,0,1,1.36-.56h0a1,1,0,0,1,.56,1.35l-4.34,10.48a1,1,0,0,1-1.35.56h0A1,1,0,0,1,322.15,411.76Z"/><path class="cls-6" d="M353.28,294.3c-1.81-6.2-10.8-16.71-18.79-38.27-8.32-22.41-43.73-24.82-43.73-24.82L277,238.57l-13.75-7.36s-35.41,2.41-43.72,24.82c-8,21.56-17,32.07-18.79,38.27s7.95,46.38,35.95,52.06h80.62C345.33,340.68,355.08,300.51,353.28,294.3Z"/><path class="cls-9" d="M292.29,231.35v11s-2.54,12.3-14.52,14.35a18.7,18.7,0,0,1-14.42-14.35v-11Z"/><path class="cls-4" d="M250.29,209.72S246.19,184,256,180.84c2.67-.85.72-9.35,15.63-9.45,20.35-.15,36.39-2.88,33.72,38.68Z"/><path class="cls-10" d="M263.19,212.56a7,7,0,1,0-7,7A7,7,0,0,0,263.19,212.56Z"/><path class="cls-10" d="M306,212.56a7,7,0,1,0-7,7A7,7,0,0,0,306,212.56Z"/><path class="cls-10" d="M301.21,200.65l0,0h0c-.29-.09-5.9-2-7-9.34l-3.07.87a47.08,47.08,0,0,1-26.05-.25l-2.45-.62a11.19,11.19,0,0,1-7.28,9.34h-.06l-.2,11.4c0,6.63,2.8,14.69,7.29,20.89a19.59,19.59,0,0,0,31.54,0c4.48-6.2,7.28-14.26,7.28-20.89V200.68Z"/><rect class="cls-3" x="233.21" y="294.99" width="89.03" height="59.35" rx="2.87"/><circle class="cls-11" cx="277.45" cy="324.06" r="9.24"/><path class="cls-4" d="M373.07,339.31v27.2c-5.65,6.68-16.24,13-32.41,19.55h0q-6.84,2.79-15,5.65-3.08,1.08-6.36,2.18l-4.52,1.49-1.74.56q-4.12,1.33-8.55,2.7l-2,.6h0Q290.24,403,275.85,407q-11,3.08-23.19,6.34l-.9-2.44-1.53-4.17-.08-.2-2.9-7.88-3.47-9.44L242.24,385,241,381.58s3.22-1.77,8.65-4.63c3-1.54,6.55-3.41,10.64-5.49,4.64-2.36,9.91-5,15.58-7.73,6.32-3.07,13.15-6.27,20.14-9.39,6.22-2.78,12.58-5.49,18.85-8,2.48-1,5-1.95,7.39-2.86,2.74-1,5.44-2,8.09-2.88,13-4.41,24.64-7.17,32.58-6.66,4.44.29,7.72,1.59,9.43,4.2Z"/><path class="cls-5" d="M208.6,413.86h0a13.78,13.78,0,0,1,7.46-18l27.13-11.24,10.53,25.45-27.13,11.23A13.77,13.77,0,0,1,208.6,413.86Z"/><path class="cls-6" d="M252,406l-20.53,8.49a9.33,9.33,0,1,1-7.14-17.24l20.53-8.49Z"/><path class="cls-7" d="M252,405.78,224.82,417a13.76,13.76,0,0,1-16.89-5.4,14.32,14.32,0,0,0,.67,2.24,13.77,13.77,0,0,0,18,7.45l27.13-11.23Z"/><path class="cls-8" d="M243,406.21l-4.33-10.47a1,1,0,0,0-1.36-.56h0a1,1,0,0,0-.56,1.35L241.05,407a1,1,0,0,0,1.35.57h0A1,1,0,0,0,243,406.21Z"/><path class="cls-8" d="M236.58,408.86l-4.34-10.48a1,1,0,0,0-1.35-.56h0a1,1,0,0,0-.56,1.36l4.33,10.47a1,1,0,0,0,1.36.56h0A1,1,0,0,0,236.58,408.86Z"/><path class="cls-8" d="M229.55,411.76l-4.33-10.47a1,1,0,0,0-1.36-.56h0a1,1,0,0,0-.56,1.35l4.34,10.48a1,1,0,0,0,1.35.56h0A1,1,0,0,0,229.55,411.76Z"/><path class="cls-4" d="M61.72,334.61S30.6,284.92,40.23,277.72s19.08,22,24,17.35S47.07,248.6,57.5,239.61s9.66,21.53,18.52,27.2-4.8-41.58,5.81-49S97.54,234,97.54,234s11.76-46.79,27.57-37.62S100.87,252.63,110.27,251s19.07-17.52,27.22-6.8-45.26,38-36.7,37.28,23.74-11.32,26.38-1.85S83.81,306.2,88.58,309.47s28.8-15.28,32.59-1.62S71.27,343.3,61.72,334.61Z"/><path class="cls-3" d="M58,354a162.38,162.38,0,0,0,14.39-31.24c2-5.8,3.65-11.8,5.28-17.61.74-2.64,1.48-5.28,2.25-7.92a383.47,383.47,0,0,1,36-84.26l.61.35a383.08,383.08,0,0,0-36,84.11q-1.14,3.94-2.25,7.91C76.66,311.16,75,317.17,73,323a163.85,163.85,0,0,1-14.46,31.38Z"/><path class="cls-3" d="M91.9,262.06a.3.3,0,0,1-.13-.18,158.78,158.78,0,0,1-7-33,.36.36,0,0,1,.31-.39.35.35,0,0,1,.39.32,158.62,158.62,0,0,0,7,32.82.36.36,0,0,1-.22.45A.37.37,0,0,1,91.9,262.06Z"/><path class="cls-3" d="M87.53,275l-.09-.08a.35.35,0,0,1,.08-.49c9.65-7,19.62-14.34,30.32-20.16a26.65,26.65,0,0,1,6.37-2.72.35.35,0,0,1,.42.26.34.34,0,0,1-.26.42,26.7,26.7,0,0,0-6.2,2.65c-10.65,5.8-20.61,13.08-30.24,20.11A.35.35,0,0,1,87.53,275Z"/><path class="cls-3" d="M80.56,296.14a.28.28,0,0,1-.1-.09A141.77,141.77,0,0,1,67.54,272.9a179.46,179.46,0,0,1-6.23-18.59.36.36,0,0,1,.24-.44.34.34,0,0,1,.43.24,182.09,182.09,0,0,0,6.2,18.52,140.8,140.8,0,0,0,12.87,23,.36.36,0,0,1-.1.49A.35.35,0,0,1,80.56,296.14Z"/><path class="cls-3" d="M80.45,296.46a.35.35,0,0,1,.32-.61,6.07,6.07,0,0,0,3.14,0,53.09,53.09,0,0,0,8.32-2.58l1.5-.56c8-2.9,16.25-5.12,24.28-7.26a.36.36,0,0,1,.43.25.35.35,0,0,1-.25.43c-8,2.14-16.3,4.35-24.22,7.24l-1.5.55a52.35,52.35,0,0,1-8.42,2.61,6.68,6.68,0,0,1-3.52-.05Z"/><path class="cls-3" d="M71.93,324.4C62.63,318,52,300.77,45.67,288a.35.35,0,1,1,.62-.31c6.27,12.74,16.85,29.86,26,36.18a.35.35,0,0,1-.4.58Z"/><path class="cls-3" d="M72.53,324.67l-.24-.19a.35.35,0,1,1,.44-.54c1.32,1.07,3.29.73,5.23.2l34-9.3a.36.36,0,0,1,.43.25.35.35,0,0,1-.24.43l-33.95,9.3C76.14,325.37,74.07,325.72,72.53,324.67Z"/><path class="cls-6" d="M57.59,333.7S3.72,310.36,7.58,299s28.25,7.37,29.66.7-40.54-28.6-37-41.94S20.39,270,30.92,269.64,3.37,238.06,7.93,226,30,230.34,30,230.34s-16.85-45.28,1.4-46.68,11.94,60.19,18.78,53.52,5.79-25.27,18.6-21.06-15.79,57-9.12,51.59,13.16-22.81,20.7-16.49-20.7,46.5-14.91,46.5,15.09-29,26-19.83S70.4,335.45,57.59,333.7Z"/><path class="cls-3" d="M65.48,351.85a162,162,0,0,0-5.85-34C58,312,56,306.09,54,300.38c-.89-2.6-1.78-5.2-2.64-7.81a384.54,384.54,0,0,1-18.09-90l.7-.06A383.69,383.69,0,0,0,52,292.35c.86,2.61,1.75,5.21,2.64,7.81,1.95,5.72,4,11.63,5.64,17.55a163.19,163.19,0,0,1,5.87,34.09Z"/><path class="cls-3" d="M41.33,256.72a.38.38,0,0,1-.21-.07A159.45,159.45,0,0,1,16.6,233.43a.35.35,0,0,1,0-.49.35.35,0,0,1,.5,0,158.86,158.86,0,0,0,24.4,23.11.34.34,0,0,1,.07.49A.35.35,0,0,1,41.33,256.72Z"/><path class="cls-3" d="M45,269.85l-.11,0a.36.36,0,0,1-.22-.45c4-11.29,8.06-23,13.58-33.84A26.57,26.57,0,0,1,62,229.69a.35.35,0,0,1,.53.47,25.83,25.83,0,0,0-3.61,5.7c-5.5,10.83-9.59,22.49-13.55,33.75A.34.34,0,0,1,45,269.85Z"/><path class="cls-3" d="M51.31,291.28a.28.28,0,0,1-.13,0,141,141,0,0,1-23.8-11.77,178.63,178.63,0,0,1-15.69-11.81.35.35,0,0,1,.44-.54,178.22,178.22,0,0,0,15.63,11.76A140.67,140.67,0,0,0,51.44,290.6a.36.36,0,0,1-.13.68Z"/><path class="cls-3" d="M51.4,291.6a.36.36,0,0,1-.34-.26.36.36,0,0,1,.25-.43,6.05,6.05,0,0,0,2.61-1.77,53.06,53.06,0,0,0,5.4-6.84l.92-1.32c4.91-6.9,10.51-13.44,15.91-19.76a.35.35,0,0,1,.54.46c-5.4,6.31-11,12.83-15.88,19.71l-.92,1.31a53.21,53.21,0,0,1-5.47,6.93,6.64,6.64,0,0,1-2.93,2Z"/><path class="cls-3" d="M60.22,319.48c-11.3,0-29.88-8.17-42.35-15.17a.36.36,0,0,1-.14-.48.35.35,0,0,1,.48-.13c12.4,7,30.84,15.08,42,15.08a.35.35,0,0,1,0,.7Z"/><path class="cls-3" d="M60.87,319.36h-.3a.35.35,0,0,1-.32-.38.36.36,0,0,1,.38-.32c1.68.13,3.12-1.26,4.42-2.8l22.74-26.94a.36.36,0,0,1,.49,0,.35.35,0,0,1,0,.5L65.59,316.3C64.24,317.9,62.74,319.36,60.87,319.36Z"/><path class="cls-3" d="M33.75,342l8.6,53.24a15.59,15.59,0,0,0,15.39,13.1H84a15.59,15.59,0,0,0,15.38-13.1l8.6-53.24Z"/><path class="cls-12" d="M107.93,342H33.75l1.19,7.38H92.13l-7.41,45.86a15.59,15.59,0,0,1-15.38,13.1H84a15.59,15.59,0,0,0,15.38-13.1l7.41-45.86h0Z"/><path class="cls-3" d="M108.76,326.69H32.92a7.78,7.78,0,0,0-7.75,7.75h0a7.78,7.78,0,0,0,7.75,7.76h75.84a7.77,7.77,0,0,0,7.75-7.76h0A7.77,7.77,0,0,0,108.76,326.69Z"/><path class="cls-6" d="M373.07.24v90L327,90.18h0l-16.52,0L258.94,90a16.58,16.58,0,0,1-8.1-2.13,16.93,16.93,0,0,1-5.72-5.25,16.56,16.56,0,0,1-2.87-9.38l0-13V52.72l.07-36A16.8,16.8,0,0,1,259.13,0Z"/><path class="cls-11" d="M373.07,77.93v3.24l-62.6,0h-19.6l-29.05,0a1.56,1.56,0,0,1-1.55-1.56l0-.14a1.56,1.56,0,0,1,1.55-1.55l29,0h19.59Z"/><polygon class="cls-11" points="373.07 77.92 373.07 81.17 310.47 81.14 301.38 81.13 294.5 81.13 294.5 77.88 297.31 77.88 310.48 77.89 373.07 77.92"/><path class="cls-11" d="M297.62,80.36A3.61,3.61,0,0,0,293.28,76a3.56,3.56,0,0,0-2.69,2.69,3.62,3.62,0,0,0,4.34,4.34A3.56,3.56,0,0,0,297.62,80.36Z"/><ellipse class="cls-11" cx="316.52" cy="38.18" rx="21.9" ry="21.39"/><path class="cls-6" d="M313,31.19l10.46,5.17a2.6,2.6,0,0,1,0,4.68L313,46.21a2.61,2.61,0,0,1-3.77-2.35V33.54A2.61,2.61,0,0,1,313,31.19Z"/><rect class="cls-4" x="160.2" y="52.71" width="150.24" height="91.21" rx="17.56" transform="translate(0.21 -0.49) rotate(0.12)"/><path class="cls-11" d="M295.84,82.66H234.05a2.63,2.63,0,0,0-2.63,2.62h0a2.63,2.63,0,0,0,2.63,2.63h61.79a2.63,2.63,0,0,0,2.63-2.63h0A2.63,2.63,0,0,0,295.84,82.66Z"/><path class="cls-11" d="M281.92,95.61H234.05a2.63,2.63,0,0,0-2.63,2.63h0a2.63,2.63,0,0,0,2.63,2.62h47.87a2.63,2.63,0,0,0,2.63-2.62h0A2.63,2.63,0,0,0,281.92,95.61Z"/><rect class="cls-11" x="231.42" y="107.95" width="46.57" height="5.25" rx="0.85"/><path class="cls-11" d="M205.79,84.84a9.91,9.91,0,1,1-9.91-10.24A10.09,10.09,0,0,1,205.79,84.84Z"/><path class="cls-11" d="M204.63,101.22l-.38-.13a27,27,0,0,0-16.69,0l-.42.14a14.56,14.56,0,0,0-10.08,13.86h0a5.59,5.59,0,0,0,5.59,5.59h26.47a5.59,5.59,0,0,0,5.59-5.59h0A14.58,14.58,0,0,0,204.63,101.22Z"/></g></g></svg>