<svg xmlns="http://www.w3.org/2000/svg" viewBox="0 0 397.58 476.46"><defs><style>.cls-1,.cls-3{fill:#d6e9fc;}.cls-1{opacity:0.56;}.cls-2{fill:#96c7f2;}.cls-4{fill:#18398d;}.cls-5{fill:#5e98f7;}.cls-6{fill:#3875d0;}.cls-7{fill:#f3b7b2;}.cls-8{fill:#14316e;}.cls-9{fill:#fff;}.cls-10{fill:#b2cde2;}</style></defs><g id="Layer_2" data-name="Layer 2"><g id="Layer_1-2" data-name="Layer 1"><ellipse class="cls-1" cx="199.38" cy="442.56" rx="198.2" ry="33.91"/><circle class="cls-2" cx="199.02" cy="181.35" r="161.51"/><circle class="cls-3" cx="199.02" cy="181.35" r="125.32" transform="translate(-69.94 193.85) rotate(-45)"/><path class="cls-4" d="M231.16,229.46a4.79,4.79,0,0,1-3.4-1.41L190,190.28a4.79,4.79,0,0,1-1.41-3.41V95.27a4.82,4.82,0,0,1,9.64,0v89.61l36.35,36.35a4.82,4.82,0,0,1-3.41,8.23Z"/><rect class="cls-5" x="246.03" width="134.49" height="96.72" rx="12.21"/><path class="cls-2" d="M230.59,245l-10.91-10.91a61.62,61.62,0,1,1-43.06-113.37v-18a79.41,79.41,0,1,0,56.5,143.87A6.53,6.53,0,0,1,230.59,245Z"/><path class="cls-6" d="M94.92,203.31s-18.25,3.91-28.2,43.06c-3.49,13.77,22.08,45.57,22.08,45.57Z"/><path class="cls-4" d="M122.78,432.58l-1.56,6.51a4,4,0,0,0,2.69,4.9l36.56,8.75c3.12.75,5.89-2.74,4.69-5.94-1.47-3.9-15.28-11.34-22.53-15.95L128,426.77Z"/><path class="cls-7" d="M181.25,153.91s2.62-17.15,6.81-16.36h0a2.94,2.94,0,0,1,2.06,2.6l.34,4.51,6.14-10.13a2.33,2.33,0,0,1,4-.08c1.9,2.93,4.85,5.48,2.7,10.65-2,4.75-9.49,12.9-11.73,14.39l-3.27-.77Z"/><polygon class="cls-8" points="116.87 289.3 155.72 348.44 145.67 433.68 123.25 432.13 130.79 362.94 95.95 318.17 116.87 289.3"/><path class="cls-4" d="M124.84,161.17s-2-19-13.91-16.83c-19.43,3.55-33.72,19.92-16.16,46.44L111,185.64Z"/><path class="cls-4" d="M40.71,441.66v6.7a4,4,0,0,0,3.75,4.14H82.05c3.22,0,5.1-4,3.18-6.87-2.34-3.45-17.5-7.48-25.62-10.27l-15.22-.55Z"/><path class="cls-4" d="M79.79,295H121L62.29,436.22,40.82,442,77,324.68S78,307.76,79.79,295Z"/><path class="cls-5" d="M119.16,202s16.93,61.85,13.17,93.69l-3.53,1.14a84.26,84.26,0,0,1-53.29-.4h0s.07-29.17,2.1-54.48c1.2-15,6.07-38.06,21.51-39.83l.39-.28Z"/><path class="cls-7" d="M94.61,189.8,98,206.59l16.74-3.42-1.23-6a15.77,15.77,0,0,0,5-.18c9.51-1.94,11.06-12,8.68-23.58L124.82,161s-4.9,5.14-15.29,8.33l-2.06,8.8Z"/><path class="cls-7" d="M99,182.13a4.71,4.71,0,1,1,5.61,4A4.85,4.85,0,0,1,99,182.13Z"/><path class="cls-5" d="M97.94,202.49l47.71-4.57a8.28,8.28,0,0,0,6.29-3.95l29-41.37L194.28,158l-32.35,54.13a10.91,10.91,0,0,1-7.39,5.12l-52.18,9.49a12.31,12.31,0,0,1-14.42-12.41h0A12.29,12.29,0,0,1,97.94,202.49Z"/><path class="cls-7" d="M125.59,167.74s6.13,8.66,6,9.36-4.85,3.1-4.85,3.1Z"/><path class="cls-4" d="M78.8,39.69h-53A25.87,25.87,0,0,0,0,65.48V89.12a25.86,25.86,0,0,0,25.79,25.79h53a25.57,25.57,0,0,0,6.34-.83l19.45,19.45v-68A25.87,25.87,0,0,0,78.8,39.69Z"/><path class="cls-9" d="M33.69,76.26a5.32,5.32,0,1,1-5.32-5.32A5.33,5.33,0,0,1,33.69,76.26Z"/><path class="cls-9" d="M56.42,76.26a5.33,5.33,0,1,1-5.33-5.32A5.33,5.33,0,0,1,56.42,76.26Z"/><path class="cls-9" d="M78.28,76.26A5.32,5.32,0,1,1,73,70.94,5.33,5.33,0,0,1,78.28,76.26Z"/><path class="cls-9" d="M355.24,28.58H277.35A3.32,3.32,0,0,0,274,31.89h0a3.32,3.32,0,0,0,3.31,3.31h77.89a3.32,3.32,0,0,0,3.31-3.31h0A3.32,3.32,0,0,0,355.24,28.58Z"/><path class="cls-9" d="M337.7,44.91H277.35A3.32,3.32,0,0,0,274,48.22h0a3.32,3.32,0,0,0,3.31,3.31H337.7A3.32,3.32,0,0,0,341,48.22h0A3.32,3.32,0,0,0,337.7,44.91Z"/><path class="cls-9" d="M329.42,60.47H277.35A3.32,3.32,0,0,0,274,63.78h0a3.32,3.32,0,0,0,3.31,3.31h52.07a3.32,3.32,0,0,0,3.31-3.31h0A3.32,3.32,0,0,0,329.42,60.47Z"/><path class="cls-5" d="M305.84,356.5c1.2-72.07-31-101.63-31-101.63-7.85,39.76,4.7,82.33,11.69,101.63Z"/><path class="cls-5" d="M323.4,356.5c35.1-47.83,29.43-85.36,29.43-85.36-30.31,25.27-46,67.24-51.44,84.58l.89.78Z"/><path class="cls-4" d="M344.53,356.5c29.92-30.28,36.08-54.73,36.08-54.73-37,14.91-55.11,39.1-64.51,54.73Z"/><path class="cls-4" d="M291.27,356.5c-11.46-51.81-39.4-67.45-39.4-67.45.6,26.82,12.84,52.43,21.61,67.45Z"/><path class="cls-4" d="M322.26,356.5c15.19-84.39-9.07-116.9-9.07-116.9-28.95,29.36-18,98.78-14.51,116.9Z"/><path class="cls-3" d="M315.58,356c-2.21-31.14-3.72-62.56-4.37-93.66a.67.67,0,0,0-.67-.65h0a.66.66,0,0,0-.65.68c.66,31.09,2.17,62.5,4.38,93.63Z"/><path class="cls-3" d="M295.75,356h1.38c-4-12.2-6.52-25-9-37.34l-9.71-49a.65.65,0,0,0-.78-.52.66.66,0,0,0-.52.78l9.71,49C289.29,331.18,291.82,343.82,295.75,356Z"/><path class="cls-3" d="M282,356c-8-17.05-15.33-34.52-21.77-52.16a.66.66,0,0,0-1.24.46c6.38,17.47,13.62,34.79,21.54,51.7Z"/><path class="cls-3" d="M319.49,356c1.25-2.36,2.43-4.76,3.46-7.23a129.15,129.15,0,0,0,4.77-14.62c.81-2.87,1.65-5.84,2.59-8.71a216.78,216.78,0,0,1,8.23-20.29c2.69-6,5.47-12.29,7.68-18.64a.67.67,0,0,0-.41-.85.66.66,0,0,0-.84.41c-2.19,6.31-5,12.52-7.64,18.54A219,219,0,0,0,329.05,325c-.95,2.9-1.79,5.88-2.61,8.76a130.55,130.55,0,0,1-4.71,14.47c-1.1,2.64-2.39,5.21-3.74,7.74Z"/><path class="cls-3" d="M324.13,356c2.56-2.88,5.34-5.57,8.09-8.19l36.76-35a.64.64,0,0,0,0-.93.65.65,0,0,0-.93,0l-36.76,35c-3.05,2.9-6.14,5.9-8.94,9.15Z"/><path class="cls-3" d="M273.54,368.92,282.28,423a15.85,15.85,0,0,0,15.64,13.32h26.65A15.84,15.84,0,0,0,340.2,423L349,368.92Z"/><path class="cls-10" d="M349,368.92H273.54l1.21,7.5h58.13L325.35,423a15.83,15.83,0,0,1-15.64,13.31h14.86A15.83,15.83,0,0,0,340.2,423l7.54-46.62h0Z"/><path class="cls-3" d="M349.79,353.36H272.7a7.89,7.89,0,0,0-7.88,7.87h0a7.9,7.9,0,0,0,7.88,7.88h77.09a7.9,7.9,0,0,0,7.88-7.88h0A7.9,7.9,0,0,0,349.79,353.36Z"/></g></g></svg>